<svg viewBox="0 0 330 200" xmlns="http://www.w3.org/2000/svg"><g><g><g><g><g><line x1="40" y1="177" x2="35" y2="177" style="visibility: inherit;" fill="rgb(0, 0, 0)" stroke="rgb(200, 195, 188)" stroke-width="1px"></line><line x1="40" y1="160.9090909090909" x2="35" y2="160.9090909090909" style="visibility: inherit;" fill="rgb(0, 0, 0)" stroke="rgb(200, 195, 188)" stroke-width="1px"></line><line x1="40" y1="144.8181818181818" x2="35" y2="144.8181818181818" style="visibility: inherit;" fill="rgb(0, 0, 0)" stroke="rgb(200, 195, 188)" stroke-width="1px"></line><line x1="40" y1="128.72727272727272" x2="35" y2="128.72727272727272" style="visibility: inherit;" fill="rgb(0, 0, 0)" stroke="rgb(200, 195, 188)" stroke-width="1px"></line><line x1="40" y1="112.63636363636364" x2="35" y2="112.63636363636364" style="visibility: inherit;" fill="rgb(0, 0, 0)" stroke="rgb(200, 195, 188)" stroke-width="1px"></line><line x1="40" y1="96.54545454545453" x2="35" y2="96.54545454545453" style="visibility: inherit;" fill="rgb(0, 0, 0)" stroke="rgb(200, 195, 188)" stroke-width="1px"></line><line x1="40" y1="80.45454545454547" x2="35" y2="80.45454545454547" style="visibility: inherit;" fill="rgb(0, 0, 0)" stroke="rgb(200, 195, 188)" stroke-width="1px"></line><line x1="40" y1="64.36363636363636" x2="35" y2="64.36363636363636" style="visibility: inherit;" fill="rgb(0, 0, 0)" stroke="rgb(200, 195, 188)" stroke-width="1px"></line><line x1="40" y1="48.272727272727266" x2="35" y2="48.272727272727266" style="visibility: inherit;" fill="rgb(0, 0, 0)" stroke="rgb(200, 195, 188)" stroke-width="1px"></line><line x1="40" y1="32.18181818181817" x2="35" y2="32.18181818181817" style="visibility: inherit;" fill="rgb(0, 0, 0)" stroke="rgb(200, 195, 188)" stroke-width="1px"></line><line x1="40" y1="16.090909090909097" x2="35" y2="16.090909090909097" style="visibility: inherit;" fill="rgb(0, 0, 0)" stroke="rgb(200, 195, 188)" stroke-width="1px"></line><line x1="40" y1="0" x2="35" y2="0" style="visibility: inherit;" fill="rgb(0, 0, 0)" stroke="rgb(200, 195, 188)" stroke-width="1px"></line></g><g transform="translate(30, 0)"><text x="0" y="177" dx="0em" dy="0.3em" style="text-anchor: end; visibility: hidden; font-family: Roboto, sans-serif; font-size: 12px; font-weight: 200;" fill="rgb(232, 230, 227)" stroke="none" stroke-width="1px">45</text><text x="0" y="160.9090909090909" dx="0em" dy="0.3em" style="text-anchor: end; visibility: inherit; font-family: Roboto, sans-serif; font-size: 12px; font-weight: 200;" fill="rgb(232, 230, 227)" stroke="none" stroke-width="1px">50</text><text x="0" y="144.8181818181818" dx="0em" dy="0.3em" style="text-anchor: end; visibility: hidden; font-family: Roboto, sans-serif; font-size: 12px; font-weight: 200;" fill="rgb(232, 230, 227)" stroke="none" stroke-width="1px">55</text><text x="0" y="128.72727272727272" dx="0em" dy="0.3em" style="text-anchor: end; visibility: inherit; font-family: Roboto, sans-serif; font-size: 12px; font-weight: 200;" fill="rgb(232, 230, 227)" stroke="none" stroke-width="1px">60</text><text x="0" y="112.63636363636364" dx="0em" dy="0.3em" style="text-anchor: end; visibility: hidden; font-family: Roboto, sans-serif; font-size: 12px; font-weight: 200;" fill="rgb(232, 230, 227)" stroke="none" stroke-width="1px">65</text><text x="0" y="96.54545454545453" dx="0em" dy="0.3em" style="text-anchor: end; visibility: inherit; font-family: Roboto, sans-serif; font-size: 12px; font-weight: 200;" fill="rgb(232, 230, 227)" stroke="none" stroke-width="1px">70</text><text x="0" y="80.45454545454547" dx="0em" dy="0.3em" style="text-anchor: end; visibility: hidden; font-family: Roboto, sans-serif; font-size: 12px; font-weight: 200;" fill="rgb(232, 230, 227)" stroke="none" stroke-width="1px">75</text><text x="0" y="64.36363636363636" dx="0em" dy="0.3em" style="text-anchor: end; visibility: inherit; font-family: Roboto, sans-serif; font-size: 12px; font-weight: 200;" fill="rgb(232, 230, 227)" stroke="none" stroke-width="1px">80</text><text x="0" y="48.272727272727266" dx="0em" dy="0.3em" style="text-anchor: end; visibility: hidden; font-family: Roboto, sans-serif; font-size: 12px; font-weight: 200;" fill="rgb(232, 230, 227)" stroke="none" stroke-width="1px">85</text><text x="0" y="32.18181818181817" dx="0em" dy="0.3em" style="text-anchor: end; visibility: inherit; font-family: Roboto, sans-serif; font-size: 12px; font-weight: 200;" fill="rgb(232, 230, 227)" stroke="none" stroke-width="1px">90</text><text x="0" y="16.090909090909097" dx="0em" dy="0.3em" style="text-anchor: end; visibility: hidden; font-family: Roboto, sans-serif; font-size: 12px; font-weight: 200;" fill="rgb(232, 230, 227)" stroke="none" stroke-width="1px">95</text><text x="0" y="0" dx="0em" dy="0.3em" style="text-anchor: end; visibility: hidden; font-family: Roboto, sans-serif; font-size: 12px; font-weight: 200;" fill="rgb(232, 230, 227)" stroke="none" stroke-width="1px">100</text></g><line x1="40" y1="0" x2="40" y2="177" fill="rgb(0, 0, 0)" stroke="rgb(200, 195, 188)" stroke-width="1px"></line></g></g><g transform="translate(40, 0)" clip-path="url(#clip_0)"><clipPath id="clip_0"><rect width="290" height="177"></rect></clipPath><g><g><g><line x1="0" y1="0" x2="0" y2="177" fill="rgb(0, 0, 0)" stroke="rgb(194, 189, 181)" stroke-width="1px" opacity="0.25"></line><line x1="24.166666666666664" y1="0" x2="24.166666666666664" y2="177" fill="rgb(0, 0, 0)" stroke="rgb(194, 189, 181)" stroke-width="1px" opacity="0.25"></line><line x1="48.33333333333333" y1="0" x2="48.33333333333333" y2="177" fill="rgb(0, 0, 0)" stroke="rgb(194, 189, 181)" stroke-width="1px" opacity="0.25"></line><line x1="72.5" y1="0" x2="72.5" y2="177" fill="rgb(0, 0, 0)" stroke="rgb(194, 189, 181)" stroke-width="1px" opacity="0.25"></line><line x1="96.66666666666666" y1="0" x2="96.66666666666666" y2="177" fill="rgb(0, 0, 0)" stroke="rgb(194, 189, 181)" stroke-width="1px" opacity="0.25"></line><line x1="120.83333333333334" y1="0" x2="120.83333333333334" y2="177" fill="rgb(0, 0, 0)" stroke="rgb(194, 189, 181)" stroke-width="1px" opacity="0.25"></line><line x1="145" y1="0" x2="145" y2="177" fill="rgb(0, 0, 0)" stroke="rgb(194, 189, 181)" stroke-width="1px" opacity="0.25"></line><line x1="169.16666666666669" y1="0" x2="169.16666666666669" y2="177" fill="rgb(0, 0, 0)" stroke="rgb(194, 189, 181)" stroke-width="1px" opacity="0.25"></line><line x1="193.33333333333331" y1="0" x2="193.33333333333331" y2="177" fill="rgb(0, 0, 0)" stroke="rgb(194, 189, 181)" stroke-width="1px" opacity="0.25"></line><line x1="217.5" y1="0" x2="217.5" y2="177" fill="rgb(0, 0, 0)" stroke="rgb(194, 189, 181)" stroke-width="1px" opacity="0.25"></line><line x1="241.66666666666669" y1="0" x2="241.66666666666669" y2="177" fill="rgb(0, 0, 0)" stroke="rgb(194, 189, 181)" stroke-width="1px" opacity="0.25"></line><line x1="265.8333333333333" y1="0" x2="265.8333333333333" y2="177" fill="rgb(0, 0, 0)" stroke="rgb(194, 189, 181)" stroke-width="1px" opacity="0.25"></line><line x1="290" y1="0" x2="290" y2="177" fill="rgb(0, 0, 0)" stroke="rgb(194, 189, 181)" stroke-width="1px" opacity="0.25"></line></g><g><line x1="0" y1="177" x2="290" y2="177" fill="rgb(0, 0, 0)" stroke="rgb(194, 189, 181)" stroke-width="1px" opacity="0.25"></line><line x1="0" y1="160.9090909090909" x2="290" y2="160.9090909090909" fill="rgb(0, 0, 0)" stroke="rgb(194, 189, 181)" stroke-width="1px" opacity="0.25"></line><line x1="0" y1="144.8181818181818" x2="290" y2="144.8181818181818" fill="rgb(0, 0, 0)" stroke="rgb(194, 189, 181)" stroke-width="1px" opacity="0.25"></line><line x1="0" y1="128.72727272727272" x2="290" y2="128.72727272727272" fill="rgb(0, 0, 0)" stroke="rgb(194, 189, 181)" stroke-width="1px" opacity="0.25"></line><line x1="0" y1="112.63636363636364" x2="290" y2="112.63636363636364" fill="rgb(0, 0, 0)" stroke="rgb(194, 189, 181)" stroke-width="1px" opacity="0.25"></line><line x1="0" y1="96.54545454545453" x2="290" y2="96.54545454545453" fill="rgb(0, 0, 0)" stroke="rgb(194, 189, 181)" stroke-width="1px" opacity="0.25"></line><line x1="0" y1="80.45454545454547" x2="290" y2="80.45454545454547" fill="rgb(0, 0, 0)" stroke="rgb(194, 189, 181)" stroke-width="1px" opacity="0.25"></line><line x1="0" y1="64.36363636363636" x2="290" y2="64.36363636363636" fill="rgb(0, 0, 0)" stroke="rgb(194, 189, 181)" stroke-width="1px" opacity="0.25"></line><line x1="0" y1="48.272727272727266" x2="290" y2="48.272727272727266" fill="rgb(0, 0, 0)" stroke="rgb(194, 189, 181)" stroke-width="1px" opacity="0.25"></line><line x1="0" y1="32.18181818181817" x2="290" y2="32.18181818181817" fill="rgb(0, 0, 0)" stroke="rgb(194, 189, 181)" stroke-width="1px" opacity="0.25"></line><line x1="0" y1="16.090909090909097" x2="290" y2="16.090909090909097" fill="rgb(0, 0, 0)" stroke="rgb(194, 189, 181)" stroke-width="1px" opacity="0.25"></line><line x1="0" y1="0" x2="290" y2="0" fill="rgb(0, 0, 0)" stroke="rgb(194, 189, 181)" stroke-width="1px" opacity="0.25"></line></g></g></g><g><g><line x1="0" y1="321.81818181818187" x2="290" y2="321.81818181818187" fill="rgb(0, 0, 0)" stroke="rgb(168, 160, 149)" stroke-width="1.5px"></line></g></g><g><g><line x1="24.166666666666664" y1="0" x2="24.166666666666664" y2="177" fill="rgb(0, 0, 0)" stroke="rgb(168, 160, 149)" stroke-width="1.5px"></line></g></g><g><g><g><g><g><path stroke="rgb(187, 187, 187)" stroke-width="2px" d="M36.25,178.83881624242414L37.458333333333336,173.74121017347025L38.666666666666664,169.03989514771104L39.875,164.5379674792152L41.083333333333336,160.4404309692421L42.29166666666667,156.52296468390122L43.5,152.65395296752828L44.708333333333336,148.81125522568468L45.916666666666664,145.31122266890821L47.125,141.98838485149963L48.33333333333333,139.4206247840448L49.541666666666664,136.6081639354346L50.75,133.6565964097057L51.958333333333336,130.61899186447096L53.166666666666664,128.03951822284225L54.375,125.66283238444078L55.583333333333336,123.43356867557924L56.791666666666664,121.01727509194352L58,119.20448692363163L59.208333333333336,117.29810677179053L60.41666666666667,114.72283211636501L61.625,113.41967939071489L62.833333333333336,111.20891424050832L64.04166666666667,109.57608563575054L65.25,107.8446216885993L66.45833333333333,105.98446270233605L67.66666666666667,104.39721913767956L68.875,102.79351724547392L70.08333333333333,101.32411427245525L71.29166666666666,99.62376499230814L72.5,98.30747837687532L73.70833333333333,97.15469848464357L74.91666666666667,95.62887444368361L76.125,94.72110923414598L77.33333333333333,92.984432341621L78.54166666666666,91.39404480304454L79.75,90.24157314421258L80.95833333333333,88.93992413330231L82.16666666666667,87.90405724097594L83.375,86.75733352559544L84.58333333333334,85.57240998085226L85.79166666666667,84.41605862611452L87,83.15584467051737L88.20833333333333,82.40228942837494L89.41666666666667,81.61031636165872L90.625,80.71291311688836L91.83333333333333,80.06891386356325L93.04166666666667,78.99253212273653L94.25,77.81635323582222L95.45833333333333,76.75277442151818L96.66666666666666,76.34119035426036L97.875,74.96658971193474L99.08333333333333,74.22421863096056L100.29166666666667,73.11971101034126L101.5,72.22787008543058L102.70833333333334,72.10726554158151L103.91666666666667,71.23937314108885L105.125,70.28868908129746L106.33333333333333,70.08643283132467L107.54166666666667,69.02794862146875L108.75,68.78933636703962L109.95833333333333,67.95876977787647L111.16666666666667,67.12316303416195L112.375,66.41325750622164L113.58333333333333,65.93839523304763L114.79166666666666,65.21838298721849L116,64.41049223906404L117.20833333333333,63.55502065194342L118.41666666666667,63.01342343520017L119.625,62.155532310409846L120.83333333333334,61.97033521099734L122.04166666666667,61.45243633389595L123.25,60.89454873659466L124.45833333333333,60.34612843407331L125.66666666666667,59.620597981076074L126.875,59.213593973748615L128.08333333333334,58.4750753850482L129.29166666666669,57.75649187520506L130.5,56.98550184786804L131.70833333333334,56.67222801079822L132.91666666666666,56.108380307899395L134.125,55.636200115226146L135.33333333333334,55.02077147183457L136.54166666666666,54.46357749602687L137.75,54.29402989827308L138.95833333333334,53.88078550377209L140.16666666666666,53.10505233475615L141.375,52.348691468325285L142.58333333333331,52.04419512779914L143.79166666666666,51.39035896233288L145,50.69168768963342L146.20833333333334,50.089684577558465L147.41666666666666,49.81859140837813L148.625,49.6662378528394L149.83333333333334,49.0547684019558L151.04166666666669,48.22961402634752L152.25,47.53113600281136L153.45833333333334,47.22789902001072L154.66666666666666,46.79880855928985L155.875,46.330239669931146L157.08333333333331,45.59339876245227L158.29166666666666,44.9685036906212L159.5,44.73516743321153L160.70833333333334,44.09827636324722L161.91666666666666,43.49473458348455L163.125,43.15320438645439L164.33333333333334,42.762922609678014L165.54166666666666,41.92116065920166L166.75,41.531953320236894L167.95833333333334,41.05127082470605L169.16666666666669,40.755141933744106L170.375,40.16039145685515L171.58333333333334,39.86789891441845L172.79166666666666,39.44781842801898L174,39.079920304858234L175.20833333333331,38.648066818035716L176.41666666666666,38.3348895071034L177.625,38.062020684908326L178.83333333333334,37.380815205245426L180.04166666666666,36.95922626137524L181.25,36.567245240578664L182.45833333333334,35.93815148783088L183.66666666666666,35.46801340690305L184.875,35.216817954031725L186.08333333333334,35.00688920104116L187.29166666666669,34.27076593362183L188.5,33.91405440880592L189.70833333333334,33.27779826806408L190.91666666666666,32.99388249643859L192.125,32.96255086682619L193.33333333333331,32.53955422393096L194.54166666666666,31.999981535601435L195.75,31.508886182546963L196.95833333333334,31.4665431464067L198.16666666666666,31.188823149030107L199.375,30.60769113950687L200.58333333333334,30.49587750108694L201.79166666666666,30.153307140300626L203,29.577027785600787L204.20833333333334,29.47069887128941L205.41666666666669,29.172618907734577L206.625,28.512330222481665L207.83333333333334,28.2963744074592L209.04166666666666,27.999449178388918L210.25,27.823876993272698L211.45833333333331,27.31689932717809L212.66666666666666,27.30621664486862L213.875,26.79518850520952L215.08333333333334,26.540063709038343L216.29166666666666,26.276285262443565L217.5,26.20812689255137L218.70833333333334,25.811943340786506L219.91666666666666,25.599984164095492L221.125,25.220504303499936L222.33333333333334,25.010838126755477L223.54166666666669,24.88761155192332L224.75,24.638604473323742L225.95833333333334,24.48662709494947L227.16666666666666,24.49584189084754L228.375,24.13064345126989L229.58333333333331,24.48564692392246L230.79166666666666,24.204332823210013L232,23.747196528975707L233.20833333333334,23.55014797331578L234.41666666666666,23.25170144379061L235.625,23.291467532645136L236.83333333333334,23.03728169812045L238.04166666666666,22.992900635083203L239.25,22.74743799069127L240.45833333333334,22.831869887809646L241.66666666666669,22.43713179818647L242.875,22.401101211369294L244.08333333333334,22.392358336462923L245.29166666666666,22.371664003120657L246.5,22.05030469848105L247.70833333333331,22.06087451386847L248.91666666666666,22.16247136359453L250.125,21.770312851892538L251.33333333333334,21.885150191160385L252.54166666666666,21.951479463506633L253.75,21.831654501612498L254.95833333333334,21.95027926657473L256.1666666666667,21.81806872738093L257.375,21.676947970270895L258.58333333333337,21.571680645177477L259.7916666666667,21.51109338133589L261,21.544254850268135L262.2083333333333,21.759817736155206L263.4166666666667,21.49267719620302" style="fill: none;" fill="none"></path></g><g><path stroke="rgb(0, 153, 136)" stroke-width="2px" d="M27.791666666666668,185.46476802953427L29,176.43345873806652L30.208333333333336,168.7855830301147L31.416666666666668,162.77636637801064L32.625,156.8189196635852L33.833333333333336,150.9164485388894L35.041666666666664,147.15424998068872L36.25,140.8289497971765L37.458333333333336,136.5324540988439L38.666666666666664,130.8154987886408L39.875,126.59136951281334L41.083333333333336,124.39386257515078L42.29166666666667,119.98569645608647L43.5,116.22147241104686L44.708333333333336,112.95917266649238L45.916666666666664,109.93350104583003L47.125,108.38855205409072L48.33333333333333,105.45343244546642L49.541666666666664,101.56837196781552L50.75,99.6364229625666L51.958333333333336,97.07413411690709L53.166666666666664,96.4378581223083L54.375,93.7518703923442L55.583333333333336,92.01155524646921L56.791666666666664,89.82169465377552L58,88.64937999668194L59.208333333333336,86.11806615910484L60.41666666666667,83.2090211277763L61.625,83.27865375997752L62.833333333333336,82.23911908622952L64.04166666666667,81.02325402077251L65.25,79.09657095400514L66.45833333333333,76.97510657972947L67.66666666666667,76.74491574195643L68.875,75.30666285203148L70.08333333333333,74.76552930402967L71.29166666666666,72.25247964404424L72.5,71.20806881808178L73.70833333333333,70.87749937174463L74.91666666666667,69.76519524595004L76.125,68.96907764104006L77.33333333333333,68.22108098396038L78.54166666666666,67.41184819748128L79.75,67.5956860225439L80.95833333333333,66.30286615895187L82.16666666666667,64.49735213053859L83.375,63.41404371350615L84.58333333333334,62.69970091959526L85.79166666666667,61.76905966530203L87,61.892927886805694L88.20833333333333,60.96317766381186L89.41666666666667,60.379576575648244L90.625,59.07683685447936L91.83333333333333,59.299264177673464L93.04166666666667,58.73759212032917L94.25,58.13026279172868L95.45833333333333,57.62426440887953L96.66666666666666,56.65128788227725L97.875,56.543786589895475L99.08333333333333,56.23471067464042L100.29166666666667,55.79180468736593L101.5,55.06264212749415L102.70833333333334,55.204423211510694L103.91666666666667,54.55574680021964L105.125,54.26952512869356L106.33333333333333,53.531388983022254L107.54166666666667,52.972647643186924L108.75,52.392827699459794L109.95833333333333,51.74885868466165L111.16666666666667,51.478336928215306L112.375,51.187288744731056L113.58333333333333,51.84938907159005L114.79166666666666,51.56439629362872L116,51.11019905547413L117.20833333333333,51.21099098202381L118.41666666666667,50.0485609754891L119.625,49.9174962932125L120.83333333333334,49.90322504865475L122.04166666666667,48.92920775646558L123.25,49.104283576109445L124.45833333333333,47.9091906845506L125.66666666666667,47.4882021770656L126.875,47.75052012770598L128.08333333333334,47.19991679075713L129.29166666666669,47.11412992841379L130.5,47.242875207137054L131.70833333333334,46.419035393724684L132.91666666666666,46.15644098943079L134.125,45.81866695072522L135.33333333333334,46.311130978762556L136.54166666666666,45.73126354819505L137.75,45.40908422311093L138.95833333333334,45.447486111814015L140.16666666666666,44.69816557289454L141.375,44.351557424791395L142.58333333333331,43.989116273056695L143.79166666666666,44.71136499421399L145,44.64266882784942L146.20833333333334,44.408368075828996L147.41666666666666,43.89447735517427L148.625,43.573267445597466L149.83333333333334,43.27755732460278L151.04166666666669,43.19023995007065L152.25,43.17647595690318L153.45833333333334,43.03948243138623L154.66666666666666,42.378017517247926L155.875,42.26434014014279L157.08333333333331,42.24762580150404L158.29166666666666,42.16035415632855L159.5,42.26246743209613L160.70833333333334,42.34947653081306L161.91666666666666,42.10561476259294L163.125,41.804821438788004L164.33333333333334,41.39263596075154L165.54166666666666,41.19681676155394L166.75,41.323910202972804L167.95833333333334,40.96248843357344L169.16666666666669,40.449568144483585L170.375,40.60523493853671L171.58333333333334,40.260957180717924L172.79166666666666,40.18311583453156L174,40.149286504003726L175.20833333333331,40.18048099331135L176.41666666666666,40.3922905602091L177.625,40.506500823163805L178.83333333333334,40.33044201999915L180.04166666666666,39.87724742302577L181.25,40.06874963234882L182.45833333333334,40.09354225987806L183.66666666666666,39.77372417739347L184.875,39.56895785071874L186.08333333333334,39.36886483383325L187.29166666666669,39.72510346839297L188.5,39.77149490907198L189.70833333333334,40.14689890966551L190.91666666666666,39.94733895295486L192.125,40.059312462682044L193.33333333333331,39.98489578282942L194.54166666666666,39.46395133022681L195.75,39.49895379485129L196.95833333333334,39.70017266975524L198.16666666666666,39.65356207575228L199.375,39.27802658316443L200.58333333333334,39.207181550484584L201.79166666666666,38.88147295949883L203,38.77615650297201L204.20833333333334,38.815950804304514L205.41666666666669,38.89131947272832L206.625,38.74344780046936L207.83333333333334,38.51312401142508L209.04166666666666,38.45216295887921L210.25,38.17101118752568L211.45833333333331,37.93795255990529L212.66666666666666,37.875350604213814L213.875,37.91503247279105L215.08333333333334,38.0160748148181L216.29166666666666,38.23117648290718L217.5,38.06416043519883L218.70833333333334,38.05405950463845L219.91666666666666,38.43418469292871L221.125,38.366182757340994L222.33333333333334,38.24814837510773L223.54166666666669,38.31892853145669L224.75,38.11681166432857L225.95833333333334,38.11139137537273L227.16666666666666,38.0566569354864L228.375,38.12679062569168L229.58333333333331,38.05302100849383L230.79166666666666,38.08599245905583L232,38.10577532939302L233.20833333333334,38.091903918338936L234.41666666666666,38.16081429258718L235.625,38.112051819071446L236.83333333333334,38.12141094540238L238.04166666666666,38.10128528794456L239.25,38.2050597247909L240.45833333333334,38.24158325364231L241.66666666666669,38.34073059183381L242.875,38.42596994911666L244.08333333333334,38.29688634624554L245.29166666666666,38.19369505126651L246.5,38.01593044295809L247.70833333333331,38.153846817799014L248.91666666666666,38.210855509447164L250.125,38.219309770068165L251.33333333333334,38.10853249511972L252.54166666666666,38.09355821777494L253.75,38.058822697000224L254.95833333333334,38.17958217022427L256.1666666666667,38.13618802283768L257.375,38.09727605722175L258.58333333333337,38.11254548829257L259.7916666666667,38.08309053649471L261,38.065417565415984L262.2083333333333,38.10630587039306L263.4166666666667,38.169455463819624" style="fill: none;" fill="none"></path></g></g></g></g><g opacity="0.2"><g><g><g><path stroke="rgb(187, 187, 187)" stroke-width="2px" d="M33.833333333333336,180.1860054016113L35.041666666666664,176.8841477134011L36.25,171.3617489901456L37.458333333333336,166.12254201715643L38.666666666666664,162.0032732183283L39.875,157.79389572143555L41.083333333333336,154.29894270463424L42.29166666666667,150.6495281566273L43.5,146.8520726290616L44.708333333333336,143.0481842734597L45.916666666666664,140.06170702847567L47.125,137.00443184592507L48.33333333333333,135.5691255049272L49.541666666666664,132.38956520774147L50.75,129.22930339466444L51.958333333333336,126.06262102994053L53.166666666666664,124.1703260941939L54.375,122.09781376231801L55.583333333333336,120.08967881636185L56.791666666666664,117.39283842606979L58,116.48530634099787L59.208333333333336,114.43853759765625L60.41666666666667,110.85992098721592L61.625,111.46495056152344L62.833333333333336,107.89276677911931L64.04166666666667,107.12684284556995L65.25,105.24742584228515L66.45833333333333,103.19422427090733L67.66666666666667,102.01635381525213L68.875,100.38796442205256L70.08333333333333,99.12000982111151L71.29166666666666,97.07324107776988L72.5,96.33304845636542L73.70833333333333,95.42552864768288L74.91666666666667,93.34013838334518L76.125,93.3594614202326L77.33333333333333,90.3794170032848L78.54166666666666,89.00846349542792L79.75,88.51286565607245L80.95833333333333,86.98745061700996L82.16666666666667,86.3502569025213L83.375,85.03724795254794L84.58333333333334,83.79502466375178L85.79166666666667,82.68153159401635L87,81.26552373712714L88.20833333333333,81.27195656516335L89.41666666666667,80.42235676158559L90.625,79.36680824973365L91.83333333333333,79.10291498357599L93.04166666666667,77.3779595114968L94.25,76.05208490545098L95.45833333333333,75.15740620006214L96.66666666666666,75.72381425337358L97.875,72.90468874844638L99.08333333333333,73.1106620094993L100.29166666666667,71.4629495794123L101.5,70.89010869806462L102.70833333333334,71.92635872580789L103.91666666666667,69.93753454034979L105.125,68.86266299161043L106.33333333333333,69.78304845636542L107.54166666666667,67.440222306685L108.75,68.43141798539594L109.95833333333333,66.71291989413174L111.16666666666667,65.8697529185902L112.375,65.34839921431107L113.58333333333333,65.22610182328658L114.79166666666666,64.1383646184748L116,63.198656116832375L117.20833333333333,62.27181327126243L118.41666666666667,62.201027610085234L119.625,60.86869562322444L120.83333333333334,61.692539561878554L122.04166666666667,60.67558801824397L123.25,60.05771734064276L124.45833333333333,59.52349798029119L125.66666666666667,58.53230230158025L126.875,58.603087962757456L128.08333333333334,57.36729750199751L129.29166666666669,56.67861661044034L130.5,55.82901680686257L131.70833333333334,56.20231725519354L132.91666666666666,55.26260875355114L134.125,54.92792982621627L135.33333333333334,54.09762850674716L136.54166666666666,53.62778653231535L137.75,54.03970850164241L138.95833333333334,53.2609189120206L140.16666666666666,51.94145258123225L141.375,51.214150168678984L142.58333333333331,51.587450617009935L143.79166666666666,50.40960471413353L145,49.64368078058416L146.20833333333334,49.18667990944602L147.41666666666666,49.41195165460759L148.625,49.43770751953126L149.83333333333334,48.13756422563032L151.04166666666669,46.99188246293502L152.25,46.48341896750711L153.45833333333334,46.77304354580966L154.66666666666666,46.155172868208446L155.875,45.6273863358931L157.08333333333331,44.48813740123403L158.29166666666666,44.03116108287464L159.5,44.38516304709695L160.70833333333334,43.14293975830078L161.91666666666666,42.58942191384056L163.125,42.6409090909091L164.33333333333334,42.177499944513485L165.54166666666666,40.65851773348722L166.75,40.948142311789766L167.95833333333334,40.33024708140981L169.16666666666669,40.31094859730114L170.375,39.26826574152167L171.58333333333334,39.42916010076349L172.79166666666666,38.817697698419735L174,38.52807312011719L175.20833333333331,38.00028658780185L176.41666666666666,37.8651235407049L177.625,37.652717451615764L178.83333333333334,36.35900698575106L180.04166666666666,36.326842845569956L181.25,35.979273709383875L182.45833333333334,34.99451085870916L183.66666666666666,34.76280628551137L184.875,34.840024774724796L186.08333333333334,34.69199607155539L187.29166666666669,33.1665810324929L188.5,33.378987121582036L189.70833333333334,32.32341405695135L190.91666666666666,32.568008839000356L192.125,32.91555342240767L193.33333333333331,31.905059259588064L194.54166666666666,31.190622503107235L195.75,30.772243152965196L196.95833333333334,31.403028592196367L198.16666666666666,30.772243152965196L199.375,29.73599312522195L200.58333333333334,30.32815704345704L201.79166666666666,29.639451599121102L203,28.712608753551137L204.20833333333334,29.311205499822435L205.41666666666669,28.725498962402348L206.625,27.52189719460228L207.83333333333334,27.972440684925434L209.04166666666666,27.554061334783377L210.25,27.56051871559836L211.45833333333331,26.55643282803621L212.66666666666666,27.29019262140448L213.875,26.02864629572089L215.08333333333334,26.15737651478161L216.29166666666666,25.880617592551484L217.5,26.105889337713073L218.70833333333334,25.21766801313921L219.91666666666666,25.28204539905894L221.125,24.65128451260654L222.33333333333334,24.69633886163885L223.54166666666669,24.702771689675078L224.75,24.265093855424357L225.95833333333334,24.258661027388147L227.16666666666666,24.50966408469461L228.375,23.5828457919034L229.58333333333331,25.01815213290129L230.79166666666666,23.782361672141345L232,23.061492087624284L233.20833333333334,23.254575139826002L234.41666666666666,22.804031649502843L235.625,23.35111666592685L236.83333333333334,22.656002946333455L238.04166666666666,22.926329040527335L239.25,22.37924402410333L240.45833333333334,22.95851773348721L241.66666666666669,21.84502466375178L242.875,22.347055331143476L244.08333333333334,22.37924402410333L245.29166666666666,22.340622503107248L246.5,21.56826574152167L247.70833333333331,22.076729236949575L248.91666666666666,22.314866638183602L250.125,21.182075084339488L251.33333333333334,22.05740620006214L252.54166666666666,22.05097337202593L253.75,21.65191705877131L254.95833333333334,22.128216414018112L256.1666666666667,21.61975291859019L257.375,21.46526683460582L258.58333333333337,21.413779657537283L259.7916666666667,21.42021248557351L261,21.593997053666545L262.2083333333333,22.083162064985803L263.4166666666667,21.091966386274866" style="fill: none;" fill="none"></path></g><g><path stroke="rgb(0, 153, 136)" stroke-width="2px" d="M26.583333333333332,186.9120058926669L27.791666666666668,173.33127469149503L29,164.64218132712625L30.208333333333336,158.20581769076261L31.416666666666668,154.18309041803533L32.625,148.13290516246448L33.833333333333336,142.21145012595434L35.041666666666664,141.56782358342952L36.25,131.39836952903053L37.458333333333336,130.11109189120205L38.666666666666664,122.2587326743386L39.875,120.26345110806552L41.083333333333336,121.10018525557085L42.29166666666667,113.37655625776812L43.5,110.57672923694957L44.708333333333336,108.06655134721235L45.916666666666664,105.39545454545454L47.125,106.07126978093928L48.33333333333333,101.05091400146485L49.541666666666664,95.74090909090908L50.75,96.73853759765625L51.958333333333336,93.23073120117188L53.166666666666664,95.48344865278764L54.375,89.72290025190874L55.583333333333336,89.40108698064631L56.791666666666664,86.53690712668678L58,86.8909090909091L59.208333333333336,82.3210968017578L60.41666666666667,78.84545454545454L61.625,83.38310269442472L62.833333333333336,80.67981719970703L64.04166666666667,79.19945650967685L65.25,76.20654643665661L66.45833333333333,73.79291007302024L67.66666666666667,76.39962948885832L68.875,73.14928353049538L70.08333333333333,73.95382898504083L71.29166666666666,68.48290516246448L72.5,69.64145258123224L73.70833333333333,70.38164520263672L74.91666666666667,68.09673905806108L76.125,67.77490123401988L77.33333333333333,67.09908599853516L78.54166666666666,66.19799901788886L79.75,67.87144276012074L80.95833333333333,64.36363636363636L82.16666666666667,61.7890810879794L83.375,61.7890810879794L84.58333333333334,61.62818672873758L85.79166666666667,60.37309778386897L87,62.078730219060716L88.20833333333333,59.5685523293235L89.41666666666667,59.504174943403775L90.625,57.122727272727275L91.83333333333333,59.632905162464496L93.04166666666667,57.89508403431285L94.25,57.219268798828125L95.45833333333333,56.86526683460581L96.66666666666666,55.19182309237394L97.875,56.3825346513228L99.08333333333333,55.77109680175782L100.29166666666667,55.127445706454196L101.5,53.96889828768643L102.70833333333334,55.41709483753551L103.91666666666667,53.58273218328302L105.125,53.84019262140448L106.33333333333333,52.42418476451528L107.54166666666667,52.13453563343394L108.75,51.52309778386896L109.95833333333333,50.78290516246449L111.16666666666667,51.07255429354581L112.375,50.75071646950461L113.58333333333333,52.842539561878546L114.79166666666666,51.1369071266868L116,50.428903198242196L117.20833333333333,51.362178871848364L118.41666666666667,48.304915965687144L119.625,49.72089926979759L120.83333333333334,49.88181818181819L122.04166666666667,47.46818181818182L123.25,49.366897305575286L124.45833333333333,46.116551347212365L125.66666666666667,46.856719415838064L126.875,48.143997053666546L128.08333333333334,46.374011785333806L129.29166666666669,46.985449634898785L130.5,47.43599312522195L131.70833333333334,45.18327567360617L132.91666666666666,45.76254938299005L134.125,45.31200589266691L135.33333333333334,47.04982702081853L136.54166666666666,44.861462402343754L137.75,44.92581523548473L138.95833333333334,45.50508894486861L140.16666666666666,43.57418476451527L141.375,43.831645202636714L142.58333333333331,43.44545454545455L143.79166666666666,45.79473807594992L145,44.539624578302565L146.20833333333334,44.05691694779831L147.41666666666666,43.12364127419211L148.625,43.09145258123224L149.83333333333334,42.8339921431108L151.04166666666669,43.05926388827237L152.25,43.15582996715199L153.45833333333334,42.8339921431108L154.66666666666666,41.385820146040494L155.875,42.09382407448509L157.08333333333331,42.22255429354581L158.29166666666666,42.02944668856534L159.5,42.41563734574751L160.70833333333334,42.479990178888485L161.91666666666666,41.739822110262786L163.125,41.35363145308062L164.33333333333334,40.77435774369674L165.54166666666666,40.90308796275746L166.75,41.514550365101215L167.95833333333334,40.42035577947443L169.16666666666669,39.68018771084873L170.375,40.83873512961649L171.58333333333334,39.7445405439897L172.79166666666666,40.066353815252135L174,40.098542508212006L175.20833333333331,40.227272727272734L176.41666666666666,40.710004910555746L177.625,40.67781621759589L178.83333333333334,40.066353815252135L180.04166666666666,39.197455527565694L181.25,40.356002946333454L182.45833333333334,40.13073120117188L183.66666666666666,39.29399705366654L184.875,39.26180836070669L186.08333333333334,39.06872530850497L187.29166666666669,40.259461420232604L188.5,39.84108207009054L189.70833333333334,40.710004910555746L190.91666666666666,39.64799901788885L192.125,40.227272727272734L193.33333333333331,39.87327076305042L194.54166666666666,38.682534651322804L195.75,39.551457491788L196.95833333333334,40.00200098211114L198.16666666666666,39.58364618474788L199.375,38.71472334428268L200.58333333333334,39.100914001464844L201.79166666666666,38.39291007302024L203,38.61818181818181L204.20833333333334,38.87564225630327L205.41666666666669,39.00437247536399L206.625,38.52164029208096L207.83333333333334,38.167638327858675L209.04166666666666,38.36072138006037L210.25,37.74928353049539L211.45833333333331,37.58836461847479L212.66666666666666,37.781447670676485L213.875,37.974555275656954L215.08333333333334,38.167638327858675L216.29166666666666,38.55382898504084L217.5,37.81363636363636L218.70833333333334,38.03890810879793L219.91666666666666,39.00437247536399L221.125,38.26417985395952L222.33333333333334,38.071096801757804L223.54166666666669,38.42509876598012L224.75,37.81363636363636L225.95833333333334,38.10326094193893L227.16666666666666,37.974555275656954L228.375,38.23199116099965L229.58333333333331,37.94236658269708L230.79166666666666,38.1354496348988L232,38.1354496348988L233.20833333333334,38.071096801757804L234.41666666666666,38.26417985395952L235.625,38.03890810879793L236.83333333333334,38.1354496348988L238.04166666666666,38.071096801757804L239.25,38.36072138006037L240.45833333333334,38.296368546919396L241.66666666666669,38.48945159912109L242.875,38.55382898504084L244.08333333333334,38.10326094193893L245.29166666666666,38.03890810879793L246.5,37.74928353049539L247.70833333333331,38.36072138006037L248.91666666666666,38.296368546919396L250.125,38.23199116099965L251.33333333333334,37.94236658269708L252.54166666666666,38.071096801757804L253.75,38.00671941583808L254.95833333333334,38.36072138006037L256.1666666666667,38.071096801757804L257.375,38.03890810879793L258.58333333333337,38.1354496348988L259.7916666666667,38.03890810879793L261,38.03890810879793L262.2083333333333,38.167638327858675L263.4166666666667,38.26417985395952" style="fill: none;" fill="none"></path></g></g></g></g></g></g><g transform="translate(40, 177)" clip-path="url(#clip_1)"><clipPath id="clip_1"><rect width="290" height="23"></rect></clipPath><g><g><line x1="0" y1="0" x2="0" y2="5" style="visibility: inherit;" fill="rgb(0, 0, 0)" stroke="rgb(200, 195, 188)" stroke-width="1px"></line><line x1="24.166666666666664" y1="0" x2="24.166666666666664" y2="5" style="visibility: inherit;" fill="rgb(0, 0, 0)" stroke="rgb(200, 195, 188)" stroke-width="1px"></line><line x1="48.33333333333333" y1="0" x2="48.33333333333333" y2="5" style="visibility: inherit;" fill="rgb(0, 0, 0)" stroke="rgb(200, 195, 188)" stroke-width="1px"></line><line x1="72.5" y1="0" x2="72.5" y2="5" style="visibility: inherit;" fill="rgb(0, 0, 0)" stroke="rgb(200, 195, 188)" stroke-width="1px"></line><line x1="96.66666666666666" y1="0" x2="96.66666666666666" y2="5" style="visibility: inherit;" fill="rgb(0, 0, 0)" stroke="rgb(200, 195, 188)" stroke-width="1px"></line><line x1="120.83333333333334" y1="0" x2="120.83333333333334" y2="5" style="visibility: inherit;" fill="rgb(0, 0, 0)" stroke="rgb(200, 195, 188)" stroke-width="1px"></line><line x1="145" y1="0" x2="145" y2="5" style="visibility: inherit;" fill="rgb(0, 0, 0)" stroke="rgb(200, 195, 188)" stroke-width="1px"></line><line x1="169.16666666666669" y1="0" x2="169.16666666666669" y2="5" style="visibility: inherit;" fill="rgb(0, 0, 0)" stroke="rgb(200, 195, 188)" stroke-width="1px"></line><line x1="193.33333333333331" y1="0" x2="193.33333333333331" y2="5" style="visibility: inherit;" fill="rgb(0, 0, 0)" stroke="rgb(200, 195, 188)" stroke-width="1px"></line><line x1="217.5" y1="0" x2="217.5" y2="5" style="visibility: inherit;" fill="rgb(0, 0, 0)" stroke="rgb(200, 195, 188)" stroke-width="1px"></line><line x1="241.66666666666669" y1="0" x2="241.66666666666669" y2="5" style="visibility: inherit;" fill="rgb(0, 0, 0)" stroke="rgb(200, 195, 188)" stroke-width="1px"></line><line x1="265.8333333333333" y1="0" x2="265.8333333333333" y2="5" style="visibility: inherit;" fill="rgb(0, 0, 0)" stroke="rgb(200, 195, 188)" stroke-width="1px"></line><line x1="290" y1="0" x2="290" y2="5" style="visibility: inherit;" fill="rgb(0, 0, 0)" stroke="rgb(200, 195, 188)" stroke-width="1px"></line></g><g transform="translate(0, 8)"><text x="0" y="0" dx="0em" dy="0.95em" style="text-anchor: middle; visibility: hidden; font-family: Roboto, sans-serif; font-size: 12px; font-weight: 200;" fill="rgb(232, 230, 227)" stroke="none" stroke-width="1px">-20</text><text x="24.166666666666664" y="0" dx="0em" dy="0.95em" style="text-anchor: middle; visibility: inherit; font-family: Roboto, sans-serif; font-size: 12px; font-weight: 200;" fill="rgb(232, 230, 227)" stroke="none" stroke-width="1px">0</text><text x="48.33333333333333" y="0" dx="0em" dy="0.95em" style="text-anchor: middle; visibility: hidden; font-family: Roboto, sans-serif; font-size: 12px; font-weight: 200;" fill="rgb(232, 230, 227)" stroke="none" stroke-width="1px">20</text><text x="72.5" y="0" dx="0em" dy="0.95em" style="text-anchor: middle; visibility: inherit; font-family: Roboto, sans-serif; font-size: 12px; font-weight: 200;" fill="rgb(232, 230, 227)" stroke="none" stroke-width="1px">40</text><text x="96.66666666666666" y="0" dx="0em" dy="0.95em" style="text-anchor: middle; visibility: hidden; font-family: Roboto, sans-serif; font-size: 12px; font-weight: 200;" fill="rgb(232, 230, 227)" stroke="none" stroke-width="1px">60</text><text x="120.83333333333334" y="0" dx="0em" dy="0.95em" style="text-anchor: middle; visibility: inherit; font-family: Roboto, sans-serif; font-size: 12px; font-weight: 200;" fill="rgb(232, 230, 227)" stroke="none" stroke-width="1px">80</text><text x="145" y="0" dx="0em" dy="0.95em" style="text-anchor: middle; visibility: hidden; font-family: Roboto, sans-serif; font-size: 12px; font-weight: 200;" fill="rgb(232, 230, 227)" stroke="none" stroke-width="1px">100</text><text x="169.16666666666669" y="0" dx="0em" dy="0.95em" style="text-anchor: middle; visibility: inherit; font-family: Roboto, sans-serif; font-size: 12px; font-weight: 200;" fill="rgb(232, 230, 227)" stroke="none" stroke-width="1px">120</text><text x="193.33333333333331" y="0" dx="0em" dy="0.95em" style="text-anchor: middle; visibility: hidden; font-family: Roboto, sans-serif; font-size: 12px; font-weight: 200;" fill="rgb(232, 230, 227)" stroke="none" stroke-width="1px">140</text><text x="217.5" y="0" dx="0em" dy="0.95em" style="text-anchor: middle; visibility: inherit; font-family: Roboto, sans-serif; font-size: 12px; font-weight: 200;" fill="rgb(232, 230, 227)" stroke="none" stroke-width="1px">160</text><text x="241.66666666666669" y="0" dx="0em" dy="0.95em" style="text-anchor: middle; visibility: hidden; font-family: Roboto, sans-serif; font-size: 12px; font-weight: 200;" fill="rgb(232, 230, 227)" stroke="none" stroke-width="1px">180</text><text x="265.8333333333333" y="0" dx="0em" dy="0.95em" style="text-anchor: middle; visibility: inherit; font-family: Roboto, sans-serif; font-size: 12px; font-weight: 200;" fill="rgb(232, 230, 227)" stroke="none" stroke-width="1px">200</text><text x="290" y="0" dx="0em" dy="0.95em" style="text-anchor: middle; visibility: hidden; font-family: Roboto, sans-serif; font-size: 12px; font-weight: 200;" fill="rgb(232, 230, 227)" stroke="none" stroke-width="1px">220</text></g><line x1="0" y1="0" x2="290" y2="0" fill="rgb(0, 0, 0)" stroke="rgb(200, 195, 188)" stroke-width="1px"></line></g></g></g></g></svg>