<svg viewBox="0 0 330 200" xmlns="http://www.w3.org/2000/svg"><g><g><g><g><g><line x1="30" y1="177" x2="25" y2="177" style="visibility: inherit;" fill="rgb(0, 0, 0)" stroke="rgb(200, 195, 188)" stroke-width="1px"></line><line x1="30" y1="162.25" x2="25" y2="162.25" style="visibility: inherit;" fill="rgb(0, 0, 0)" stroke="rgb(200, 195, 188)" stroke-width="1px"></line><line x1="30" y1="147.5" x2="25" y2="147.5" style="visibility: inherit;" fill="rgb(0, 0, 0)" stroke="rgb(200, 195, 188)" stroke-width="1px"></line><line x1="30" y1="132.75" x2="25" y2="132.75" style="visibility: inherit;" fill="rgb(0, 0, 0)" stroke="rgb(200, 195, 188)" stroke-width="1px"></line><line x1="30" y1="118.00000000000001" x2="25" y2="118.00000000000001" style="visibility: inherit;" fill="rgb(0, 0, 0)" stroke="rgb(200, 195, 188)" stroke-width="1px"></line><line x1="30" y1="103.24999999999999" x2="25" y2="103.24999999999999" style="visibility: inherit;" fill="rgb(0, 0, 0)" stroke="rgb(200, 195, 188)" stroke-width="1px"></line><line x1="30" y1="88.5" x2="25" y2="88.5" style="visibility: inherit;" fill="rgb(0, 0, 0)" stroke="rgb(200, 195, 188)" stroke-width="1px"></line><line x1="30" y1="73.75" x2="25" y2="73.75" style="visibility: inherit;" fill="rgb(0, 0, 0)" stroke="rgb(200, 195, 188)" stroke-width="1px"></line><line x1="30" y1="59.00000000000001" x2="25" y2="59.00000000000001" style="visibility: inherit;" fill="rgb(0, 0, 0)" stroke="rgb(200, 195, 188)" stroke-width="1px"></line><line x1="30" y1="44.25" x2="25" y2="44.25" style="visibility: inherit;" fill="rgb(0, 0, 0)" stroke="rgb(200, 195, 188)" stroke-width="1px"></line><line x1="30" y1="29.499999999999993" x2="25" y2="29.499999999999993" style="visibility: inherit;" fill="rgb(0, 0, 0)" stroke="rgb(200, 195, 188)" stroke-width="1px"></line><line x1="30" y1="14.750000000000007" x2="25" y2="14.750000000000007" style="visibility: inherit;" fill="rgb(0, 0, 0)" stroke="rgb(200, 195, 188)" stroke-width="1px"></line><line x1="30" y1="0" x2="25" y2="0" style="visibility: inherit;" fill="rgb(0, 0, 0)" stroke="rgb(200, 195, 188)" stroke-width="1px"></line></g><g transform="translate(20, 0)"><text x="0" y="177" dx="0em" dy="0.3em" style="text-anchor: end; visibility: hidden; font-family: Roboto, sans-serif; font-size: 12px; font-weight: 200;" fill="rgb(232, 230, 227)" stroke="none" stroke-width="1px">15</text><text x="0" y="162.25" dx="0em" dy="0.3em" style="text-anchor: end; visibility: inherit; font-family: Roboto, sans-serif; font-size: 12px; font-weight: 200;" fill="rgb(232, 230, 227)" stroke="none" stroke-width="1px">20</text><text x="0" y="147.5" dx="0em" dy="0.3em" style="text-anchor: end; visibility: hidden; font-family: Roboto, sans-serif; font-size: 12px; font-weight: 200;" fill="rgb(232, 230, 227)" stroke="none" stroke-width="1px">25</text><text x="0" y="132.75" dx="0em" dy="0.3em" style="text-anchor: end; visibility: inherit; font-family: Roboto, sans-serif; font-size: 12px; font-weight: 200;" fill="rgb(232, 230, 227)" stroke="none" stroke-width="1px">30</text><text x="0" y="118.00000000000001" dx="0em" dy="0.3em" style="text-anchor: end; visibility: hidden; font-family: Roboto, sans-serif; font-size: 12px; font-weight: 200;" fill="rgb(232, 230, 227)" stroke="none" stroke-width="1px">35</text><text x="0" y="103.24999999999999" dx="0em" dy="0.3em" style="text-anchor: end; visibility: inherit; font-family: Roboto, sans-serif; font-size: 12px; font-weight: 200;" fill="rgb(232, 230, 227)" stroke="none" stroke-width="1px">40</text><text x="0" y="88.5" dx="0em" dy="0.3em" style="text-anchor: end; visibility: hidden; font-family: Roboto, sans-serif; font-size: 12px; font-weight: 200;" fill="rgb(232, 230, 227)" stroke="none" stroke-width="1px">45</text><text x="0" y="73.75" dx="0em" dy="0.3em" style="text-anchor: end; visibility: inherit; font-family: Roboto, sans-serif; font-size: 12px; font-weight: 200;" fill="rgb(232, 230, 227)" stroke="none" stroke-width="1px">50</text><text x="0" y="59.00000000000001" dx="0em" dy="0.3em" style="text-anchor: end; visibility: hidden; font-family: Roboto, sans-serif; font-size: 12px; font-weight: 200;" fill="rgb(232, 230, 227)" stroke="none" stroke-width="1px">55</text><text x="0" y="44.25" dx="0em" dy="0.3em" style="text-anchor: end; visibility: inherit; font-family: Roboto, sans-serif; font-size: 12px; font-weight: 200;" fill="rgb(232, 230, 227)" stroke="none" stroke-width="1px">60</text><text x="0" y="29.499999999999993" dx="0em" dy="0.3em" style="text-anchor: end; visibility: hidden; font-family: Roboto, sans-serif; font-size: 12px; font-weight: 200;" fill="rgb(232, 230, 227)" stroke="none" stroke-width="1px">65</text><text x="0" y="14.750000000000007" dx="0em" dy="0.3em" style="text-anchor: end; visibility: inherit; font-family: Roboto, sans-serif; font-size: 12px; font-weight: 200;" fill="rgb(232, 230, 227)" stroke="none" stroke-width="1px">70</text><text x="0" y="0" dx="0em" dy="0.3em" style="text-anchor: end; visibility: hidden; font-family: Roboto, sans-serif; font-size: 12px; font-weight: 200;" fill="rgb(232, 230, 227)" stroke="none" stroke-width="1px">75</text></g><line x1="30" y1="0" x2="30" y2="177" fill="rgb(0, 0, 0)" stroke="rgb(200, 195, 188)" stroke-width="1px"></line></g></g><g transform="translate(30, 0)" clip-path="url(#clip_0)"><clipPath id="clip_0"><rect width="300" height="177"></rect></clipPath><g><g><g><line x1="0" y1="0" x2="0" y2="177" fill="rgb(0, 0, 0)" stroke="rgb(194, 189, 181)" stroke-width="1px" opacity="0.25"></line><line x1="25" y1="0" x2="25" y2="177" fill="rgb(0, 0, 0)" stroke="rgb(194, 189, 181)" stroke-width="1px" opacity="0.25"></line><line x1="50" y1="0" x2="50" y2="177" fill="rgb(0, 0, 0)" stroke="rgb(194, 189, 181)" stroke-width="1px" opacity="0.25"></line><line x1="75" y1="0" x2="75" y2="177" fill="rgb(0, 0, 0)" stroke="rgb(194, 189, 181)" stroke-width="1px" opacity="0.25"></line><line x1="100" y1="0" x2="100" y2="177" fill="rgb(0, 0, 0)" stroke="rgb(194, 189, 181)" stroke-width="1px" opacity="0.25"></line><line x1="125" y1="0" x2="125" y2="177" fill="rgb(0, 0, 0)" stroke="rgb(194, 189, 181)" stroke-width="1px" opacity="0.25"></line><line x1="150" y1="0" x2="150" y2="177" fill="rgb(0, 0, 0)" stroke="rgb(194, 189, 181)" stroke-width="1px" opacity="0.25"></line><line x1="175" y1="0" x2="175" y2="177" fill="rgb(0, 0, 0)" stroke="rgb(194, 189, 181)" stroke-width="1px" opacity="0.25"></line><line x1="200" y1="0" x2="200" y2="177" fill="rgb(0, 0, 0)" stroke="rgb(194, 189, 181)" stroke-width="1px" opacity="0.25"></line><line x1="225" y1="0" x2="225" y2="177" fill="rgb(0, 0, 0)" stroke="rgb(194, 189, 181)" stroke-width="1px" opacity="0.25"></line><line x1="250" y1="0" x2="250" y2="177" fill="rgb(0, 0, 0)" stroke="rgb(194, 189, 181)" stroke-width="1px" opacity="0.25"></line><line x1="275" y1="0" x2="275" y2="177" fill="rgb(0, 0, 0)" stroke="rgb(194, 189, 181)" stroke-width="1px" opacity="0.25"></line><line x1="300" y1="0" x2="300" y2="177" fill="rgb(0, 0, 0)" stroke="rgb(194, 189, 181)" stroke-width="1px" opacity="0.25"></line></g><g><line x1="0" y1="177" x2="300" y2="177" fill="rgb(0, 0, 0)" stroke="rgb(194, 189, 181)" stroke-width="1px" opacity="0.25"></line><line x1="0" y1="162.25" x2="300" y2="162.25" fill="rgb(0, 0, 0)" stroke="rgb(194, 189, 181)" stroke-width="1px" opacity="0.25"></line><line x1="0" y1="147.5" x2="300" y2="147.5" fill="rgb(0, 0, 0)" stroke="rgb(194, 189, 181)" stroke-width="1px" opacity="0.25"></line><line x1="0" y1="132.75" x2="300" y2="132.75" fill="rgb(0, 0, 0)" stroke="rgb(194, 189, 181)" stroke-width="1px" opacity="0.25"></line><line x1="0" y1="118.00000000000001" x2="300" y2="118.00000000000001" fill="rgb(0, 0, 0)" stroke="rgb(194, 189, 181)" stroke-width="1px" opacity="0.25"></line><line x1="0" y1="103.24999999999999" x2="300" y2="103.24999999999999" fill="rgb(0, 0, 0)" stroke="rgb(194, 189, 181)" stroke-width="1px" opacity="0.25"></line><line x1="0" y1="88.5" x2="300" y2="88.5" fill="rgb(0, 0, 0)" stroke="rgb(194, 189, 181)" stroke-width="1px" opacity="0.25"></line><line x1="0" y1="73.75" x2="300" y2="73.75" fill="rgb(0, 0, 0)" stroke="rgb(194, 189, 181)" stroke-width="1px" opacity="0.25"></line><line x1="0" y1="59.00000000000001" x2="300" y2="59.00000000000001" fill="rgb(0, 0, 0)" stroke="rgb(194, 189, 181)" stroke-width="1px" opacity="0.25"></line><line x1="0" y1="44.25" x2="300" y2="44.25" fill="rgb(0, 0, 0)" stroke="rgb(194, 189, 181)" stroke-width="1px" opacity="0.25"></line><line x1="0" y1="29.499999999999993" x2="300" y2="29.499999999999993" fill="rgb(0, 0, 0)" stroke="rgb(194, 189, 181)" stroke-width="1px" opacity="0.25"></line><line x1="0" y1="14.750000000000007" x2="300" y2="14.750000000000007" fill="rgb(0, 0, 0)" stroke="rgb(194, 189, 181)" stroke-width="1px" opacity="0.25"></line><line x1="0" y1="0" x2="300" y2="0" fill="rgb(0, 0, 0)" stroke="rgb(194, 189, 181)" stroke-width="1px" opacity="0.25"></line></g></g></g><g><g><line x1="0" y1="221.25" x2="300" y2="221.25" fill="rgb(0, 0, 0)" stroke="rgb(168, 160, 149)" stroke-width="1.5px"></line></g></g><g><g><line x1="25" y1="0" x2="25" y2="177" fill="rgb(0, 0, 0)" stroke="rgb(168, 160, 149)" stroke-width="1.5px"></line></g></g><g><g><g><g><g><path stroke="rgb(238, 51, 119)" stroke-width="2px" d="M32.5,178.13001265406825L33.75,174.8595169394723L35,171.9338255754192L36.25,169.1336837060666L37.5,166.062266943969L38.75000000000001,162.991955758927L40,160.36478204010638L41.25,157.63100636544164L42.5,155.17516922955136L43.75,152.70384366542334L45,150.1380720798893L46.25,147.52969835961696L47.5,145.2591611805314L48.75,143.0897778963792L50,141.27370643061778L51.25,139.29435767980755L52.5,137.0589162517185L53.75,134.99549984773972L54.99999999999999,132.85593377177975L56.25,130.9467961421701L57.50000000000001,129.27267741228732L58.75,127.32892500165008L60,125.7355147379843L61.25,124.08090991743032L62.5,122.37070514743729L63.75,121.12982334981226L65,119.57817202722359L66.25,118.16338144728311L67.5,116.73395093242002L68.75,115.3452917334833L70,113.72385708266776L71.25,112.36395284013211L72.5,110.95329288929092L73.75,109.10389421865122L75,108.10753581017674L76.25,106.99288108945147L77.50000000000001,105.67508915744081L78.75,104.84901543890145L80,103.0388485789486L81.25,101.82058903926097L82.5,100.61999471989839L83.75,99.33087546350187L85,98.14204700660073L86.25,97.24230881613579L87.5,96.08178474951471L88.75,95.06923297433968L90,94.14310136907484L91.24999999999999,93.30422042532588L92.5,91.91589185907648L93.75,91.0828947193274L95,90.04029751580032L96.25000000000001,89.2070607421461L97.5,88.41683608518018L98.75,87.41642229930143L100,86.38901460394604L101.25,85.20144861832463L102.5,84.24819071945667L103.75,83.35291353140545L105,82.56086768671437L106.25,81.93931953170636L107.5,80.97875384365761L108.75,80.43545428678539L109.99999999999999,79.51711134770602L111.25,78.72774598037655L112.5,78.06532694003255L113.75,77.20531753242776L115.00000000000001,76.85215246403672L116.25,75.62308949783124L117.5,75.01781564327881L118.75,74.12128722532277L120,72.89189190306476L121.25,72.41621485375292L122.5,71.71072981252028L123.75,71.22843968804929L125,70.12250402889403L126.25,69.744503317605L127.5,68.96546015401515L128.75,68.22427609240907L130,67.5152468077892L131.25,66.9175493450495L132.5,66.26628957101896L133.75,65.05189150994535L135,64.40113490596723L136.25,64.07911935910768L137.5,63.293551327378665L138.75,62.71836903190085L140,62.36382033881823L141.25,61.32981213126944L142.5,60.95956933137395L143.75,60.508503363350734L145,59.645500577580734L146.25,59.0427405626129L147.5,58.258642537030624L148.75,57.28786397375645L150,56.61099917649018L151.25,55.76120094632382L152.5,55.168722368331416L153.75,54.643314033181454L155.00000000000003,53.721549104112974L156.25,52.92069122699415L157.5,52.18293376390643L158.75,51.91020047440831L160,51.15891920432273L161.25,50.12758975806727L162.5,49.33415349473294L163.74999999999997,48.50645134061418L165,47.85879199272302L166.25,47.31679512361232L167.5,46.72963685810296L168.75,46.13190168273286L170,45.546698993038156L171.25,44.8580982074684L172.5,43.8690989604918L173.75000000000003,43.34650103278921L175,42.57273849503972L176.25,41.499602340798255L177.5,40.88640180059711L178.75,40.20696154849791L180,39.51845862160364L181.25,38.57199726158522L182.49999999999997,38.49735958131636L183.75,38.100936577036876L185,37.27544147808247L186.25,36.45682647132214L187.5,35.74853519858918L188.75,34.68164194740056L190,33.95654315183876L191.25,33.464847979726315L192.50000000000003,33.13206911193247L193.75,32.20316175524541L195,31.641099934006622L196.25,30.897940752640302L197.5,30.121646684250216L198.75,29.81398440947592L200,29.35563338250195L201.24999999999997,28.323055780233602L202.5,27.299954836548377L203.75,27.1038098770267L205,26.186090247505078L206.25,25.817177677555776L207.5,25.30790624642607L208.75,24.898506412650597L210,23.984984279719264L211.25000000000003,23.495874601034696L212.5,22.687923320191135L213.75,22.13707283977096L215,21.58235967065945L216.25,21.103220123684736L217.5,20.85585236229678L218.75,20.060795810688607L219.99999999999997,19.77727460555379L221.25,18.634844835353775L222.5,18.13346488461072L223.75,17.78071842661603L225,17.39206875128211L226.25,16.807243051306394L227.5,16.41150525461195L228.75,15.876703872982034L230.00000000000003,15.515698074521627L231.25,15.152782949937585L232.5,14.748588257511376L233.75,14.175672882485316L235,13.798883801512638L236.25,13.16688826430601L237.5,12.976495263271087L238.74999999999997,12.418580110843518L240,12.312751307472915L241.25,12.006172512999388L242.5,12.112507829088706L243.75,11.515502896916118L245,11.051104258901596L246.25,10.873943347577296L247.5,10.279125072267092L248.75000000000003,10.205431586329002L250,9.896896647109909L251.25,9.586701373275723L252.5,9.410019023428319L253.75,9.348851990228862L255,9.078514074996704L256.25,9.114550461599588L257.5,9.00401286973316L258.75,8.725289954505897L260,8.510855125047314L261.25,8.835317396317457L262.5,8.760949501511199L263.75,8.522807036111796L265,8.247762133044056L266.25,8.47921346268777L267.5,8.120127717505213L268.75,7.4562795113625135L270,7.7919235295714L271.25,7.969713901678375L272.5,7.80735187005974" style="fill: none;" fill="none"></path></g><g><path stroke="rgb(51, 187, 238)" stroke-width="2px" d="M27.499999999999996,177.33353049511814L28.750000000000004,171.64900371660204L30,166.62558116221246L31.25,162.58650054165295L32.5,158.17480041619874L33.75,154.7680609182755L35,150.49618489273482L36.25,147.62837081067303L37.5,143.9528885752479L38.75000000000001,141.3067724962209L40,138.0922654885961L41.25,134.158676228654L42.5,132.30813546065622L43.75,129.16819384386994L45,126.37604152756367L46.25,123.46192769888809L47.5,121.17081682820667L48.75,118.07337774991227L50,115.4715692140945L51.25,112.8013076423949L52.5,110.3141662041053L53.75,107.81888645844649L54.99999999999999,107.52533014021026L56.25,105.13079183883683L57.50000000000001,103.56427512047068L58.75,102.0933648892198L60,100.49101834313683L61.25,98.39681162322987L62.5,95.87768808022008L63.75,94.82641348467955L65,93.67644587524998L66.25,92.6678692967902L67.5,91.0361201095935L68.75,88.54667204007889L70,87.78460195895516L71.25,86.27716062961454L72.5,86.08069853797556L73.75,83.17802055933485L75,82.12081143448444L76.25,81.58088812080679L77.50000000000001,80.47813431259539L78.75,78.63648202766784L80,78.54629137723585L81.25,77.18237626668615L82.5,76.36402720041076L83.75,75.07061740053967L85,73.031971880726L86.25,71.37218132788507L87.5,70.42350807651162L88.75,69.0755043057419L90,69.1989031236065L91.24999999999999,68.37613989357222L92.5,68.01228267576711L93.75,67.53437140599719L95,67.25942266354456L96.25000000000001,66.25665449839515L97.5,65.04139305914441L98.75,64.0644372759163L100,62.758463085764554L101.25,61.82147731129759L102.5,61.613284946348855L103.75,61.32317024759448L105,61.1609039490938L106.25,60.9101429096174L107.5,60.15788376517965L108.75,58.77433169953747L109.99999999999999,58.41619775934653L111.25,57.221919735930165L112.5,55.60855040112842L113.75,55.867729880569634L115.00000000000001,55.49223666796579L116.25,54.6061436212629L117.5,56.38728671291886L118.75,55.52077328812729L120,55.07166235239299L121.25,55.22699651116724L122.5,54.25819970723745L123.75,52.980721444825875L125,52.20243196662696L126.25,51.216259900191005L127.5,51.98155395952379L128.75,51.48493327598281L130,51.04536212623422L131.25,50.72261583531085L132.5,48.98317094161621L133.75,48.14010184475486L135,47.657860926799216L136.25,47.675314395435L137.5,47.567788277153575L138.75,47.63307332639956L140,47.42444543626944L141.25,46.46146528117084L142.5,45.966281329347034L143.75,46.12937023803791L145,45.31862304309129L146.25,45.245172925586225L147.5,44.51670519578141L148.75,44.53982383768367L150,44.494695923093595L151.25,44.18441719374873L152.5,43.99824995614182L153.75,43.615150153738796L155.00000000000003,43.031291172565545L156.25,43.09397398332449L157.5,42.32918330967243L158.75,42.00010962569603L160,41.248063974880495L161.25,41.05643802482089L162.5,40.81166173457027L163.74999999999997,40.40519902133296L165,40.31471815242378L166.25,40.79143053134685L167.5,40.263259579184094L168.75,39.474355207349326L170,39.44941384462444L171.25,39.0332488469358L172.5,38.34695110869859L173.75000000000003,38.371771205380284L175,38.46926290328189L176.25,38.12655774196915L177.5,38.14513302469808L178.75,37.58987873449657L180,37.64612832102022L181.25,37.6444750120213L182.49999999999997,37.560883386729365L183.75,37.45172931182279L185,36.53663542644913L186.25,35.680781075815766L187.5,36.07586900559688L188.75,35.510521403358126L190,35.312911581638886L191.25,34.55714910962787L192.50000000000003,34.50488730513219L193.75,34.78033274318674L195,35.32319964591204L196.25,34.97632014765463L197.5,35.01599136837791L198.75,35.14599428086563L200,35.164996928626806L201.24999999999997,35.235397617014954L202.5,35.49003839015527L203.75,34.54542249393204L205,34.20285133571469L206.25,33.97371260196592L207.5,33.23442684096471L208.75,33.251054664149144L210,32.824437119778565L211.25000000000003,32.73366137159857L212.5,32.797198623496236L213.75,32.847118994044045L215,32.487673557070956L216.25,32.30740485445742L217.5,32.09303895149282L218.75,31.704826971969926L219.99999999999997,31.200495823074544L221.25,31.393494973092764L222.5,31.249693022674002L223.75,31.364018694463766L225,30.93700725549659L226.25,31.01120795437219L227.5,31.185529093912375L228.75,30.806317456347397L230.00000000000003,30.437187232841637L231.25,29.967910179060443L232.5,29.957747907973385L233.75,29.39704910489147L235,29.79223306400911L236.25,29.710738397975796L237.5,29.343245559537436L238.74999999999997,29.358746255400202L240,29.46244883356239L241.25,29.57187146078195L242.5,29.24812287646916L243.75,29.36067624663345L245,29.263008988946858L246.25,29.534807193905202L247.5,29.367487557309925L248.75000000000003,29.373291454063704L250,29.43577739319017L251.25,29.555868596558632L252.5,29.55711719675352L253.75,29.58147139837439L255,29.71408211880982L256.25,29.49864855107103L257.5,29.62898985085746L258.75,29.789794270621893L260,29.732880163447334L261.25,29.71052521720904L262.5,29.59091657075512L263.75,29.51915138288276L265,29.41708866908512L266.25,29.344057522740137L267.5,29.253037754610883L268.75,29.257420492121966L270,29.212849054306403L271.25,29.186106191617025L272.5,29.170060474003403" style="fill: none;" fill="none"></path></g></g></g></g><g opacity="0.2"><g><g><g><path stroke="rgb(238, 51, 119)" stroke-width="2px" d="M30,179.80839900970457L31.25,175.5662998199463L32.5,173.7962986946106L33.75,170.0911027908325L35,167.61899909973144L36.25,164.97579936981202L37.5,161.48299932479858L38.75000000000001,158.40319747924804L40,156.43259963989257L41.25,153.53569860458373L42.5,151.49430027008057L43.75,148.99859828948973L45,146.2905004501343L46.25,143.61780004501344L47.5,141.8537013053894L48.75,139.83590126037598L50,138.54969882965088L51.25,136.32539968490602L52.5,133.7057982444763L53.75,131.900399684906L54.99999999999999,129.6465998649597L56.25,128.08309783935547L57.50000000000001,126.76150360107421L58.75,124.41329936981201L60,123.34540081024171L61.25,121.59900360107423L62.5,119.8053985595703L63.75,119.26850090026855L65,117.25069522857667L66.25,116.04119567871093L67.5,114.58980522155761L68.75,113.26230297088624L70,111.29170513153078L71.25,110.32409648895263L72.5,108.83730297088623L73.75,106.32979621887208L75,106.61299819946288L76.25,105.3208990097046L77.50000000000001,103.69840126037599L78.75,103.60990486145019L80,100.32359828948975L81.25,99.99319972991944L82.5,98.8191032409668L83.75,97.39719657897949L85,96.35880432128907L86.25,95.89270153045655L87.5,94.34099864959717L88.75,93.55040531158447L90,92.75390396118165L91.24999999999999,92.04589900970458L92.5,89.83339900970458L93.75,89.83339900970458L95,88.47640171051025L96.25000000000001,87.95720558166504L97.5,87.23149909973144L98.75,85.9158016204834L100,84.84790306091308L101.25,83.42009963989258L102.5,82.81830387115478L103.75,82.0099977493286L105,81.37279891967773L106.25,81.00699729919434L107.5,79.53790531158447L108.75,79.62050495147705L109.99999999999999,78.13959693908691L111.25,77.54369792938232L112.5,77.0716983795166L113.75,75.91530342102051L115.00000000000001,76.3224048614502L116.25,73.77949504852295L117.5,74.1099048614502L118.75,72.77649459838867L120,71.04779891967773L121.25,71.70269927978515L122.5,70.65250225067139L123.75,70.50500450134278L125,68.46360054016112L126.25,69.17750225067138L127.5,67.79689540863038L128.75,67.1125L130,66.45170288085937L131.25,66.02100315093995L132.5,65.28939990997314L133.75,63.23029441833497L135,63.42499999999999L136.25,63.59609603881837L137.5,62.115199279785166L138.75,61.85559558868409L140,61.831997299194335L141.25,59.778799819946286L142.5,60.40420513153076L143.75,59.83190441131591L145,58.35099639892578L146.25,58.13860054016114L147.5,57.08249549865722L148.75,55.83169612884522L150,55.59570198059081L151.25,54.48650360107421L152.5,54.28000450134278L153.75,53.85520153045653L155.00000000000003,52.33890171051026L156.25,51.71940441131592L157.5,51.0762975692749L158.75,51.501100540161126L160,50.03199729919434L161.25,48.580595588684076L162.5,48.14399909973144L163.74999999999997,47.264898109436025L165,46.88730297088624L166.25,46.503799819946295L167.5,45.84889945983886L168.75,45.23529891967773L170,44.66889495849609L171.25,43.825197029113774L172.5,42.385600090026855L173.75000000000003,42.56260414123535L175,41.412094688415536L176.25,39.88989810943603L177.5,39.96660099029541L178.75,39.18780117034911L180,38.48570423126221L181.25,37.15230522155761L182.49999999999997,38.38540306091308L183.75,37.506302070617686L185,36.037198829650876L186.25,35.228903961181636L187.5,34.68609828948975L188.75,33.08130207061768L190,32.86889495849609L191.25,32.72730522155761L192.50000000000003,32.6329008102417L193.75,30.809800720214838L195,30.798007202148447L196.25,29.783201980590825L197.5,28.957205581665036L198.75,29.35249099731446L200,28.66810684204102L201.24999999999997,26.774189376831053L202.5,25.765303421020498L203.75,26.80959243774415L205,24.809510803222658L206.25,25.263808822631844L207.5,24.543999099731444L208.75,24.284406661987298L210,22.614701080322263L211.25000000000003,22.762210083007815L212.5,21.475996398925773L213.75,21.310797119140624L215,20.750289916992188L216.25,20.384510803222653L217.5,20.484800720214835L218.75,18.868210983276377L219.99999999999997,19.351992797851572L221.25,16.921200180053717L222.5,17.381394958496088L223.75,17.251598739624015L225,16.80909423828124L226.25,15.93000450134278L227.5,15.817898559570303L228.75,15.0745018005371L230.00000000000003,14.974189376831056L231.25,14.608410263061522L232.5,14.142296218872062L233.75,13.316299819946295L235,13.23370018005371L236.25,12.218894958496087L237.5,12.690905761718753L238.74999999999997,11.581707382202154L240,12.154008102417002L241.25,11.546304321289057L242.5,12.272010803222663L243.75,10.619995498657225L245,10.354506301879873L246.25,10.608201980590813L247.5,9.38689765930176L248.75000000000003,10.094891357421865L250,9.434094238281247L251.25,9.121408462524407L252.5,9.14499549865723L253.75,9.257101440429686L255,8.673007202148447L256.25,9.168605041503916L257.5,8.838206481933597L258.75,8.30720558166503L260,8.18920288085937L261.25,9.322010803222653L262.5,8.649397659301762L263.75,8.165593338012705L265,7.835194778442386L266.25,8.826390457153323L267.5,7.581499099731445L268.75,6.460507202148435L270,8.295389556884757L271.25,8.236399459838857L272.5,7.563808822631828" style="fill: none;" fill="none"></path></g><g><path stroke="rgb(51, 187, 238)" stroke-width="2px" d="M26.25,179.33049988746643L27.499999999999996,171.8375L28.750000000000004,164.96400022506714L30,160.06700067520143L31.25,156.99899797439576L32.5,151.86599864959717L33.75,149.80100202560425L35,144.1959975242615L36.25,143.3700011253357L37.5,138.47300157546997L38.75000000000001,137.35199842453002L40,133.28100090026857L41.25,128.26599864959718L42.5,129.53449954986573L43.75,124.46049594879152L45,122.18899459838867L46.25,119.09149684906006L47.5,117.73449954986573L48.75,113.42750225067138L50,111.56899909973144L51.25,108.79600315093995L52.5,106.58350315093995L53.75,104.0759963989258L54.99999999999999,107.08499774932861L56.25,101.53899459838867L57.50000000000001,101.21450405120851L58.75,99.8870018005371L60,98.0875L61.25,95.25550270080568L62.5,92.09900360107422L63.75,93.24950180053712L65,91.95149459838866L66.25,91.15500450134279L67.5,88.58849639892577L68.75,84.8125L70,86.64149684906006L71.25,84.01599864959717L72.5,85.78600540161133L73.75,78.82400360107422L75,80.53499774932861L76.25,80.77100315093993L77.50000000000001,78.82400360107422L78.75,75.87400360107422L80,78.41100540161132L81.25,75.13650360107422L82.5,75.13650360107422L83.75,73.13050270080566L85,69.97400360107422L86.25,68.88249549865724L87.5,69.0004981994629L88.75,67.05349864959717L90,69.38400135040284L91.24999999999999,67.14199504852296L92.5,67.46649684906005L93.75,66.81750450134277L95,66.84699954986571L96.25000000000001,64.75250225067138L97.5,63.21850090026856L98.75,62.59900360107422L100,60.799501800537115L101.25,60.41599864959717L102.5,61.30099639892579L103.75,60.887998199462885L105,60.917504501342776L106.25,60.53400135040283L107.5,59.029495048522946L108.75,56.699003601074224L109.99999999999999,57.878996849060066L111.25,55.43050270080566L112.5,53.18849639892578L113.75,56.25649909973145L115.00000000000001,54.928996849060056L116.25,53.2770040512085L117.5,59.05900135040284L118.75,54.22100315093995L120,54.39799594879151L121.25,55.45999774932862L122.5,52.805004501342765L123.75,51.06450405120849L125,51.03499774932862L126.25,49.737001800537115L127.5,53.12949504852295L128.75,50.740002250671395L130,50.38600540161132L131.25,50.23849639892579L132.5,46.37400360107422L133.75,46.875498199462896L135,46.93449954986573L136.25,47.70149459838866L137.5,47.40649909973144L138.75,47.731000900268555L140,47.11150360107422L141.25,45.01699504852296L142.5,45.22350540161132L143.75,46.37400360107422L145,44.10250225067138L146.25,45.13499774932862L147.5,43.42400360107421L148.75,44.574501800537114L150,44.42700405120849L151.25,43.718999099731455L152.5,43.718999099731455L153.75,43.04050045013427L155.00000000000003,42.15550270080567L156.25,43.18799819946289L157.5,41.18199729919433L158.75,41.50649909973144L160,40.11999549865722L161.25,40.768999099731445L162.5,40.44449729919433L163.74999999999997,39.79550495147706L165,40.17899684906005L166.25,41.50649909973144L167.5,39.47100315093994L168.75,38.29099864959717L170,39.41200180053711L171.25,38.40900135040283L172.5,37.31750450134278L173.75000000000003,38.40900135040283L175,38.615500450134284L176.25,37.612500000000004L177.5,38.17299594879151L178.75,36.756997299194346L180,37.730502700805665L181.25,37.64199504852294L182.49999999999997,37.43549594879151L183.75,37.28799819946289L185,35.16399459838867L186.25,34.39699954986573L187.5,36.668500900268555L188.75,34.662499999999994L190,35.01649684906007L191.25,33.42350540161132L192.50000000000003,34.42649459838867L193.75,35.19350090026856L195,36.13750000000001L196.25,34.45600090026856L197.5,35.0754981994629L198.75,35.34099864959716L200,35.19350090026856L201.24999999999997,35.34099864959716L202.5,35.87199954986573L203.75,33.12849864959717L205,33.688994598388675L206.25,33.630004501342775L207.5,32.12549819946289L208.75,33.27599639892579L210,32.18451080322265L211.25000000000003,32.5974977493286L212.5,32.89250450134278L213.75,32.92199954986572L215,31.948505401611328L216.25,32.03700180053712L217.5,31.771490097045906L218.75,31.12250900268554L219.99999999999997,30.443999099731442L221.25,31.682993698120114L222.5,31.03399009704591L223.75,31.535507202148445L225,30.29649009704589L226.25,31.12250900268554L227.5,31.447010803222653L228.75,30.23749999999999L230.00000000000003,29.883491897583006L231.25,29.26399459838867L232.5,29.942504501342768L233.75,28.556000900268565L235,30.385009002685543L236.25,29.588496398925784L237.5,28.792006301879887L238.74999999999997,29.38199729919433L240,29.618002700805654L241.25,29.736005401611337L242.5,28.762499999999996L243.75,29.529506301879884L245,29.116508102417L246.25,29.942504501342768L247.5,29.116508102417L248.75000000000003,29.38199729919433L250,29.529506301879884L251.25,29.736005401611337L252.5,29.558990097045893L253.75,29.618002700805654L255,29.912998199462898L256.25,29.1754981994629L257.5,29.824501800537107L258.75,30.03100090026856L260,29.647509002685545L261.25,29.676992797851554L262.5,29.411503601074223L263.75,29.411503601074223L265,29.26399459838867L266.25,29.234510803222662L267.5,29.116508102417L268.75,29.26399459838867L270,29.14599189758301L271.25,29.14599189758301L272.5,29.14599189758301" style="fill: none;" fill="none"></path></g></g></g></g></g></g><g transform="translate(30, 177)" clip-path="url(#clip_1)"><clipPath id="clip_1"><rect width="300" height="23"></rect></clipPath><g><g><line x1="0" y1="0" x2="0" y2="5" style="visibility: inherit;" fill="rgb(0, 0, 0)" stroke="rgb(200, 195, 188)" stroke-width="1px"></line><line x1="25" y1="0" x2="25" y2="5" style="visibility: inherit;" fill="rgb(0, 0, 0)" stroke="rgb(200, 195, 188)" stroke-width="1px"></line><line x1="50" y1="0" x2="50" y2="5" style="visibility: inherit;" fill="rgb(0, 0, 0)" stroke="rgb(200, 195, 188)" stroke-width="1px"></line><line x1="75" y1="0" x2="75" y2="5" style="visibility: inherit;" fill="rgb(0, 0, 0)" stroke="rgb(200, 195, 188)" stroke-width="1px"></line><line x1="100" y1="0" x2="100" y2="5" style="visibility: inherit;" fill="rgb(0, 0, 0)" stroke="rgb(200, 195, 188)" stroke-width="1px"></line><line x1="125" y1="0" x2="125" y2="5" style="visibility: inherit;" fill="rgb(0, 0, 0)" stroke="rgb(200, 195, 188)" stroke-width="1px"></line><line x1="150" y1="0" x2="150" y2="5" style="visibility: inherit;" fill="rgb(0, 0, 0)" stroke="rgb(200, 195, 188)" stroke-width="1px"></line><line x1="175" y1="0" x2="175" y2="5" style="visibility: inherit;" fill="rgb(0, 0, 0)" stroke="rgb(200, 195, 188)" stroke-width="1px"></line><line x1="200" y1="0" x2="200" y2="5" style="visibility: inherit;" fill="rgb(0, 0, 0)" stroke="rgb(200, 195, 188)" stroke-width="1px"></line><line x1="225" y1="0" x2="225" y2="5" style="visibility: inherit;" fill="rgb(0, 0, 0)" stroke="rgb(200, 195, 188)" stroke-width="1px"></line><line x1="250" y1="0" x2="250" y2="5" style="visibility: inherit;" fill="rgb(0, 0, 0)" stroke="rgb(200, 195, 188)" stroke-width="1px"></line><line x1="275" y1="0" x2="275" y2="5" style="visibility: inherit;" fill="rgb(0, 0, 0)" stroke="rgb(200, 195, 188)" stroke-width="1px"></line><line x1="300" y1="0" x2="300" y2="5" style="visibility: inherit;" fill="rgb(0, 0, 0)" stroke="rgb(200, 195, 188)" stroke-width="1px"></line></g><g transform="translate(0, 8)"><text x="0" y="0" dx="0em" dy="0.95em" style="text-anchor: middle; visibility: hidden; font-family: Roboto, sans-serif; font-size: 12px; font-weight: 200;" fill="rgb(232, 230, 227)" stroke="none" stroke-width="1px">-20</text><text x="25" y="0" dx="0em" dy="0.95em" style="text-anchor: middle; visibility: inherit; font-family: Roboto, sans-serif; font-size: 12px; font-weight: 200;" fill="rgb(232, 230, 227)" stroke="none" stroke-width="1px">0</text><text x="50" y="0" dx="0em" dy="0.95em" style="text-anchor: middle; visibility: hidden; font-family: Roboto, sans-serif; font-size: 12px; font-weight: 200;" fill="rgb(232, 230, 227)" stroke="none" stroke-width="1px">20</text><text x="75" y="0" dx="0em" dy="0.95em" style="text-anchor: middle; visibility: inherit; font-family: Roboto, sans-serif; font-size: 12px; font-weight: 200;" fill="rgb(232, 230, 227)" stroke="none" stroke-width="1px">40</text><text x="100" y="0" dx="0em" dy="0.95em" style="text-anchor: middle; visibility: hidden; font-family: Roboto, sans-serif; font-size: 12px; font-weight: 200;" fill="rgb(232, 230, 227)" stroke="none" stroke-width="1px">60</text><text x="125" y="0" dx="0em" dy="0.95em" style="text-anchor: middle; visibility: inherit; font-family: Roboto, sans-serif; font-size: 12px; font-weight: 200;" fill="rgb(232, 230, 227)" stroke="none" stroke-width="1px">80</text><text x="150" y="0" dx="0em" dy="0.95em" style="text-anchor: middle; visibility: hidden; font-family: Roboto, sans-serif; font-size: 12px; font-weight: 200;" fill="rgb(232, 230, 227)" stroke="none" stroke-width="1px">100</text><text x="175" y="0" dx="0em" dy="0.95em" style="text-anchor: middle; visibility: inherit; font-family: Roboto, sans-serif; font-size: 12px; font-weight: 200;" fill="rgb(232, 230, 227)" stroke="none" stroke-width="1px">120</text><text x="200" y="0" dx="0em" dy="0.95em" style="text-anchor: middle; visibility: hidden; font-family: Roboto, sans-serif; font-size: 12px; font-weight: 200;" fill="rgb(232, 230, 227)" stroke="none" stroke-width="1px">140</text><text x="225" y="0" dx="0em" dy="0.95em" style="text-anchor: middle; visibility: inherit; font-family: Roboto, sans-serif; font-size: 12px; font-weight: 200;" fill="rgb(232, 230, 227)" stroke="none" stroke-width="1px">160</text><text x="250" y="0" dx="0em" dy="0.95em" style="text-anchor: middle; visibility: hidden; font-family: Roboto, sans-serif; font-size: 12px; font-weight: 200;" fill="rgb(232, 230, 227)" stroke="none" stroke-width="1px">180</text><text x="275" y="0" dx="0em" dy="0.95em" style="text-anchor: middle; visibility: inherit; font-family: Roboto, sans-serif; font-size: 12px; font-weight: 200;" fill="rgb(232, 230, 227)" stroke="none" stroke-width="1px">200</text><text x="300" y="0" dx="0em" dy="0.95em" style="text-anchor: middle; visibility: hidden; font-family: Roboto, sans-serif; font-size: 12px; font-weight: 200;" fill="rgb(232, 230, 227)" stroke="none" stroke-width="1px">220</text></g><line x1="0" y1="0" x2="300" y2="0" fill="rgb(0, 0, 0)" stroke="rgb(200, 195, 188)" stroke-width="1px"></line></g></g></g></g></svg>