<svg viewBox="0 0 330 200" xmlns="http://www.w3.org/2000/svg"><g><g><g><g><g><line x1="72.34375" y1="177" x2="67.34375" y2="177" style="visibility: inherit;" fill="rgb(0, 0, 0)" stroke="rgb(200, 195, 188)" stroke-width="1px"></line><line x1="72.34375" y1="164.35714285714283" x2="67.34375" y2="164.35714285714283" style="visibility: inherit;" fill="rgb(0, 0, 0)" stroke="rgb(200, 195, 188)" stroke-width="1px"></line><line x1="72.34375" y1="151.71428571428572" x2="67.34375" y2="151.71428571428572" style="visibility: inherit;" fill="rgb(0, 0, 0)" stroke="rgb(200, 195, 188)" stroke-width="1px"></line><line x1="72.34375" y1="139.07142857142858" x2="67.34375" y2="139.07142857142858" style="visibility: inherit;" fill="rgb(0, 0, 0)" stroke="rgb(200, 195, 188)" stroke-width="1px"></line><line x1="72.34375" y1="126.42857142857142" x2="67.34375" y2="126.42857142857142" style="visibility: inherit;" fill="rgb(0, 0, 0)" stroke="rgb(200, 195, 188)" stroke-width="1px"></line><line x1="72.34375" y1="113.78571428571428" x2="67.34375" y2="113.78571428571428" style="visibility: inherit;" fill="rgb(0, 0, 0)" stroke="rgb(200, 195, 188)" stroke-width="1px"></line><line x1="72.34375" y1="101.14285714285715" x2="67.34375" y2="101.14285714285715" style="visibility: inherit;" fill="rgb(0, 0, 0)" stroke="rgb(200, 195, 188)" stroke-width="1px"></line><line x1="72.34375" y1="88.5" x2="67.34375" y2="88.5" style="visibility: inherit;" fill="rgb(0, 0, 0)" stroke="rgb(200, 195, 188)" stroke-width="1px"></line><line x1="72.34375" y1="75.85714285714285" x2="67.34375" y2="75.85714285714285" style="visibility: inherit;" fill="rgb(0, 0, 0)" stroke="rgb(200, 195, 188)" stroke-width="1px"></line><line x1="72.34375" y1="63.21428571428569" x2="67.34375" y2="63.21428571428569" style="visibility: inherit;" fill="rgb(0, 0, 0)" stroke="rgb(200, 195, 188)" stroke-width="1px"></line><line x1="72.34375" y1="50.57142857142857" x2="67.34375" y2="50.57142857142857" style="visibility: inherit;" fill="rgb(0, 0, 0)" stroke="rgb(200, 195, 188)" stroke-width="1px"></line><line x1="72.34375" y1="37.92857142857143" x2="67.34375" y2="37.92857142857143" style="visibility: inherit;" fill="rgb(0, 0, 0)" stroke="rgb(200, 195, 188)" stroke-width="1px"></line><line x1="72.34375" y1="25.285714285714274" x2="67.34375" y2="25.285714285714274" style="visibility: inherit;" fill="rgb(0, 0, 0)" stroke="rgb(200, 195, 188)" stroke-width="1px"></line><line x1="72.34375" y1="12.642857142857117" x2="67.34375" y2="12.642857142857117" style="visibility: inherit;" fill="rgb(0, 0, 0)" stroke="rgb(200, 195, 188)" stroke-width="1px"></line><line x1="72.34375" y1="0" x2="67.34375" y2="0" style="visibility: inherit;" fill="rgb(0, 0, 0)" stroke="rgb(200, 195, 188)" stroke-width="1px"></line></g><g transform="translate(62.34375, 0)"><text x="0" y="177" dx="0em" dy="0.3em" style="text-anchor: end; visibility: hidden; font-family: Roboto, sans-serif; font-size: 12px; font-weight: 200;" fill="rgb(232, 230, 227)" stroke="none" stroke-width="1px">8e-3</text><text x="0" y="164.35714285714283" dx="0em" dy="0.3em" style="text-anchor: end; visibility: inherit; font-family: Roboto, sans-serif; font-size: 12px; font-weight: 200;" fill="rgb(232, 230, 227)" stroke="none" stroke-width="1px">8.5e-3</text><text x="0" y="151.71428571428572" dx="0em" dy="0.3em" style="text-anchor: end; visibility: hidden; font-family: Roboto, sans-serif; font-size: 12px; font-weight: 200;" fill="rgb(232, 230, 227)" stroke="none" stroke-width="1px">9e-3</text><text x="0" y="139.07142857142858" dx="0em" dy="0.3em" style="text-anchor: end; visibility: inherit; font-family: Roboto, sans-serif; font-size: 12px; font-weight: 200;" fill="rgb(232, 230, 227)" stroke="none" stroke-width="1px">9.5e-3</text><text x="0" y="126.42857142857142" dx="0em" dy="0.3em" style="text-anchor: end; visibility: hidden; font-family: Roboto, sans-serif; font-size: 12px; font-weight: 200;" fill="rgb(232, 230, 227)" stroke="none" stroke-width="1px">0.01</text><text x="0" y="113.78571428571428" dx="0em" dy="0.3em" style="text-anchor: end; visibility: inherit; font-family: Roboto, sans-serif; font-size: 12px; font-weight: 200;" fill="rgb(232, 230, 227)" stroke="none" stroke-width="1px">0.0105</text><text x="0" y="101.14285714285715" dx="0em" dy="0.3em" style="text-anchor: end; visibility: hidden; font-family: Roboto, sans-serif; font-size: 12px; font-weight: 200;" fill="rgb(232, 230, 227)" stroke="none" stroke-width="1px">0.011</text><text x="0" y="88.5" dx="0em" dy="0.3em" style="text-anchor: end; visibility: inherit; font-family: Roboto, sans-serif; font-size: 12px; font-weight: 200;" fill="rgb(232, 230, 227)" stroke="none" stroke-width="1px">0.0115</text><text x="0" y="75.85714285714285" dx="0em" dy="0.3em" style="text-anchor: end; visibility: hidden; font-family: Roboto, sans-serif; font-size: 12px; font-weight: 200;" fill="rgb(232, 230, 227)" stroke="none" stroke-width="1px">0.012</text><text x="0" y="63.21428571428569" dx="0em" dy="0.3em" style="text-anchor: end; visibility: inherit; font-family: Roboto, sans-serif; font-size: 12px; font-weight: 200;" fill="rgb(232, 230, 227)" stroke="none" stroke-width="1px">0.0125</text><text x="0" y="50.57142857142857" dx="0em" dy="0.3em" style="text-anchor: end; visibility: hidden; font-family: Roboto, sans-serif; font-size: 12px; font-weight: 200;" fill="rgb(232, 230, 227)" stroke="none" stroke-width="1px">0.013</text><text x="0" y="37.92857142857143" dx="0em" dy="0.3em" style="text-anchor: end; visibility: inherit; font-family: Roboto, sans-serif; font-size: 12px; font-weight: 200;" fill="rgb(232, 230, 227)" stroke="none" stroke-width="1px">0.0135</text><text x="0" y="25.285714285714274" dx="0em" dy="0.3em" style="text-anchor: end; visibility: hidden; font-family: Roboto, sans-serif; font-size: 12px; font-weight: 200;" fill="rgb(232, 230, 227)" stroke="none" stroke-width="1px">0.014</text><text x="0" y="12.642857142857117" dx="0em" dy="0.3em" style="text-anchor: end; visibility: inherit; font-family: Roboto, sans-serif; font-size: 12px; font-weight: 200;" fill="rgb(232, 230, 227)" stroke="none" stroke-width="1px">0.0145</text><text x="0" y="0" dx="0em" dy="0.3em" style="text-anchor: end; visibility: hidden; font-family: Roboto, sans-serif; font-size: 12px; font-weight: 200;" fill="rgb(232, 230, 227)" stroke="none" stroke-width="1px">0.015</text></g><line x1="72.34375" y1="0" x2="72.34375" y2="177" fill="rgb(0, 0, 0)" stroke="rgb(200, 195, 188)" stroke-width="1px"></line></g></g><g transform="translate(72, 0)" clip-path="url(#clip_0)"><clipPath id="clip_0"><rect width="257" height="177"></rect></clipPath><g><g><g><line x1="0" y1="0" x2="0" y2="177" fill="rgb(0, 0, 0)" stroke="rgb(194, 189, 181)" stroke-width="1px" opacity="0.25"></line><line x1="21.471354166666664" y1="0" x2="21.471354166666664" y2="177" fill="rgb(0, 0, 0)" stroke="rgb(194, 189, 181)" stroke-width="1px" opacity="0.25"></line><line x1="42.94270833333333" y1="0" x2="42.94270833333333" y2="177" fill="rgb(0, 0, 0)" stroke="rgb(194, 189, 181)" stroke-width="1px" opacity="0.25"></line><line x1="64.4140625" y1="0" x2="64.4140625" y2="177" fill="rgb(0, 0, 0)" stroke="rgb(194, 189, 181)" stroke-width="1px" opacity="0.25"></line><line x1="85.88541666666666" y1="0" x2="85.88541666666666" y2="177" fill="rgb(0, 0, 0)" stroke="rgb(194, 189, 181)" stroke-width="1px" opacity="0.25"></line><line x1="107.35677083333334" y1="0" x2="107.35677083333334" y2="177" fill="rgb(0, 0, 0)" stroke="rgb(194, 189, 181)" stroke-width="1px" opacity="0.25"></line><line x1="128.828125" y1="0" x2="128.828125" y2="177" fill="rgb(0, 0, 0)" stroke="rgb(194, 189, 181)" stroke-width="1px" opacity="0.25"></line><line x1="150.29947916666669" y1="0" x2="150.29947916666669" y2="177" fill="rgb(0, 0, 0)" stroke="rgb(194, 189, 181)" stroke-width="1px" opacity="0.25"></line><line x1="171.77083333333331" y1="0" x2="171.77083333333331" y2="177" fill="rgb(0, 0, 0)" stroke="rgb(194, 189, 181)" stroke-width="1px" opacity="0.25"></line><line x1="193.2421875" y1="0" x2="193.2421875" y2="177" fill="rgb(0, 0, 0)" stroke="rgb(194, 189, 181)" stroke-width="1px" opacity="0.25"></line><line x1="214.71354166666669" y1="0" x2="214.71354166666669" y2="177" fill="rgb(0, 0, 0)" stroke="rgb(194, 189, 181)" stroke-width="1px" opacity="0.25"></line><line x1="236.18489583333331" y1="0" x2="236.18489583333331" y2="177" fill="rgb(0, 0, 0)" stroke="rgb(194, 189, 181)" stroke-width="1px" opacity="0.25"></line><line x1="257.65625" y1="0" x2="257.65625" y2="177" fill="rgb(0, 0, 0)" stroke="rgb(194, 189, 181)" stroke-width="1px" opacity="0.25"></line></g><g><line x1="0" y1="177" x2="257.65625" y2="177" fill="rgb(0, 0, 0)" stroke="rgb(194, 189, 181)" stroke-width="1px" opacity="0.25"></line><line x1="0" y1="164.35714285714283" x2="257.65625" y2="164.35714285714283" fill="rgb(0, 0, 0)" stroke="rgb(194, 189, 181)" stroke-width="1px" opacity="0.25"></line><line x1="0" y1="151.71428571428572" x2="257.65625" y2="151.71428571428572" fill="rgb(0, 0, 0)" stroke="rgb(194, 189, 181)" stroke-width="1px" opacity="0.25"></line><line x1="0" y1="139.07142857142858" x2="257.65625" y2="139.07142857142858" fill="rgb(0, 0, 0)" stroke="rgb(194, 189, 181)" stroke-width="1px" opacity="0.25"></line><line x1="0" y1="126.42857142857142" x2="257.65625" y2="126.42857142857142" fill="rgb(0, 0, 0)" stroke="rgb(194, 189, 181)" stroke-width="1px" opacity="0.25"></line><line x1="0" y1="113.78571428571428" x2="257.65625" y2="113.78571428571428" fill="rgb(0, 0, 0)" stroke="rgb(194, 189, 181)" stroke-width="1px" opacity="0.25"></line><line x1="0" y1="101.14285714285715" x2="257.65625" y2="101.14285714285715" fill="rgb(0, 0, 0)" stroke="rgb(194, 189, 181)" stroke-width="1px" opacity="0.25"></line><line x1="0" y1="88.5" x2="257.65625" y2="88.5" fill="rgb(0, 0, 0)" stroke="rgb(194, 189, 181)" stroke-width="1px" opacity="0.25"></line><line x1="0" y1="75.85714285714285" x2="257.65625" y2="75.85714285714285" fill="rgb(0, 0, 0)" stroke="rgb(194, 189, 181)" stroke-width="1px" opacity="0.25"></line><line x1="0" y1="63.21428571428569" x2="257.65625" y2="63.21428571428569" fill="rgb(0, 0, 0)" stroke="rgb(194, 189, 181)" stroke-width="1px" opacity="0.25"></line><line x1="0" y1="50.57142857142857" x2="257.65625" y2="50.57142857142857" fill="rgb(0, 0, 0)" stroke="rgb(194, 189, 181)" stroke-width="1px" opacity="0.25"></line><line x1="0" y1="37.92857142857143" x2="257.65625" y2="37.92857142857143" fill="rgb(0, 0, 0)" stroke="rgb(194, 189, 181)" stroke-width="1px" opacity="0.25"></line><line x1="0" y1="25.285714285714274" x2="257.65625" y2="25.285714285714274" fill="rgb(0, 0, 0)" stroke="rgb(194, 189, 181)" stroke-width="1px" opacity="0.25"></line><line x1="0" y1="12.642857142857117" x2="257.65625" y2="12.642857142857117" fill="rgb(0, 0, 0)" stroke="rgb(194, 189, 181)" stroke-width="1px" opacity="0.25"></line><line x1="0" y1="0" x2="257.65625" y2="0" fill="rgb(0, 0, 0)" stroke="rgb(194, 189, 181)" stroke-width="1px" opacity="0.25"></line></g></g></g><g><g><line x1="0" y1="379.28571428571433" x2="257.65625" y2="379.28571428571433" fill="rgb(0, 0, 0)" stroke="rgb(168, 160, 149)" stroke-width="1.5px"></line></g></g><g><g><line x1="21.471354166666664" y1="0" x2="21.471354166666664" y2="177" fill="rgb(0, 0, 0)" stroke="rgb(168, 160, 149)" stroke-width="1.5px"></line></g></g><g><g><g><g><g><path stroke="rgb(204, 51, 17)" stroke-width="2px" d="M32.20703125,-0.5779198550832998L33.280598958333336,3.1140276959571027L34.354166666666664,6.590110397668852L35.427734375,9.937274077416669L36.501302083333336,13.055219613437353L37.57486979166667,16.022447276485895L38.6484375,19.235937300909004L39.722005208333336,22.091397494488415L40.795572916666664,24.88950143537891L41.869140625,27.62372877941254L42.94270833333333,29.888493620119597L44.016276041666664,32.313489853779714L45.08984375,34.6321157532169L46.163411458333336,37.1424915099939L47.236979166666664,39.286949825625996L48.310546875,41.434749098649576L49.384114583333336,43.45249953035132L50.457682291666664,45.65389035027218L51.53125,47.448589698982495L52.604817708333336,49.12550746367429L53.67838541666667,50.96932033341971L54.751953125,52.57132710280379L55.825520833333336,54.41079220771278L56.899088541666664,55.84337758328249L57.97265625,57.55772550042256L59.04622395833333,59.28734553064779L60.119791666666664,60.77363477540305L61.193359375,62.285457610095236L62.266927083333336,63.74354505336146L63.340494791666664,65.35696500463473L64.4140625,66.74880759526437L65.48763020833333,67.99786964226612L66.56119791666667,69.4790545209682L67.634765625,70.56067071857669L68.70833333333333,72.21337142605448L69.78190104166666,73.62565514337635L70.85546875,74.73435507356275L71.92903645833333,75.90520368133686L73.00260416666667,77.24211770323693L74.076171875,78.36979081690752L75.14973958333334,79.50948413842882L76.22330729166667,80.61862615725101L77.296875,81.75966303550108L78.37044270833333,82.71442224683213L79.44401041666667,83.68978937669624L80.517578125,84.70791850892867L81.59114583333333,85.68447671052174L82.66471354166667,86.45401027544449L83.73828125,87.55281987548628L84.81184895833333,88.47310564715978L85.88541666666666,89.2688884246309L86.958984375,90.42029727233917L88.03255208333333,91.39084062289709L89.10611979166667,92.33157537594919L90.1796875,93.10814702979867L91.25325520833334,93.81880343710104L92.32682291666667,94.6335040333297L93.400390625,95.42331087050253L94.47395833333333,96.04603506173568L95.54752604166667,96.88363505842104L96.62109375,97.33545133394233L97.69466145833333,98.23331602978331L98.76822916666667,99.01868871277854L99.841796875,99.94283795994014L100.91536458333333,100.54305055055487L101.98893229166666,101.47135331434379L103.0625,102.34362049989748L104.13606770833333,102.9058745981539L105.20963541666667,103.75484661220648L106.283203125,104.58126740516418L107.35677083333334,105.32641125196079L108.43033854166667,105.76773272652034L109.50390625,106.5505411172681L110.57747395833333,107.23287503517878L111.65104166666667,107.79779401564635L112.724609375,108.43978536981194L113.79817708333333,109.12018298890328L114.87174479166667,110.08637643584437L115.9453125,110.85992090157252L117.01888020833333,111.19406565662885L118.09244791666666,111.88181281724711L119.166015625,112.39400810809984L120.23958333333333,113.07672709668054L121.31315104166667,113.8585481989474L122.38671875,114.03304091212273L123.46028645833334,114.65200302032052L124.53385416666667,115.58449074770034L125.607421875,116.26038215502257L126.68098958333333,116.90539308199635L127.75455729166667,117.58536056507094L128.828125,118.14603378585345L129.90169270833334,118.92103604885473L130.97526041666666,119.39484479119754L132.048828125,119.79839238493156L133.12239583333334,120.68397809418572L134.19596354166669,121.4821037845677L135.26953125,122.27525682217791L136.34309895833334,122.6969290667503L137.41666666666666,123.34153604725513L138.490234375,124.12701571459142L139.56380208333331,124.80852212550126L140.63736979166666,125.50353880421873L141.7109375,125.98480033012449L142.78450520833334,126.67175464325766L143.85807291666666,127.21570831107698L144.931640625,127.88519172240429L146.00520833333334,128.3970164644581L147.07877604166666,129.1602207930176L148.15234375,129.8351535774045L149.22591145833334,130.35457156843296L150.29947916666669,130.87732642184366L151.373046875,131.66015388925985L152.44661458333334,132.15202425549785L153.52018229166666,132.80658196118264L154.59375,133.3302875735483L155.66731770833331,133.92236272902875L156.74088541666666,134.2237556111652L157.814453125,134.57461625059054L158.88802083333334,135.27840268657653L159.96158854166666,135.8290457102421L161.03515625,136.57607262142503L162.10872395833334,137.35482472918375L163.18229166666666,137.9998815452998L164.255859375,138.38525777434978L165.32942708333334,138.74263163347732L166.40299479166669,139.69082882708977L167.4765625,140.20099670754735L168.55013020833334,140.8010003289734L169.62369791666666,141.43161056934153L170.697265625,141.64024381295994L171.77083333333331,142.27449058566185L172.84440104166666,142.93586705072934L173.91796875,143.6196912102269L174.99153645833334,143.88587428762716L176.06510416666666,144.54933827088507L177.138671875,145.10856824880298L178.21223958333334,145.43031584948997L179.28580729166666,145.81402780082814L180.359375,146.63964358633663L181.43294270833334,147.02618769548735L182.50651041666669,147.50802722973208L183.580078125,148.1687083813276L184.65364583333334,148.57901107463735L185.72721354166666,148.92788585241735L186.80078125,149.27664056506555L187.87434895833331,149.83773663053142L188.94791666666666,150.12420630741505L190.021484375,150.8257557422082L191.09505208333334,151.1734286869519L192.16861979166666,151.5134367472331L193.2421875,151.85305646602427L194.31575520833334,152.2127237135247L195.38932291666666,152.56878283831503L196.462890625,153.06284166914324L197.53645833333334,153.39749253885634L198.61002604166669,153.6765887159763L199.68359375,154.06903506373172L200.75716145833334,154.3790124036445L201.83072916666666,154.637341816451L202.904296875,155.10744601782568L203.97786458333331,155.181993371312L205.05143229166666,155.51477506607338L206.125,155.70912197355452L207.19856770833334,156.09335215250778L208.27213541666666,156.28602321618024L209.345703125,156.6084439666889L210.41927083333334,156.93009802514104L211.49283854166666,157.0275939206536L212.56640625,157.33736095813165L213.63997395833334,157.31459449309176L214.71354166666669,157.65306044182307L215.787109375,157.92827578734318L216.86067708333334,158.10293769321845L217.93424479166666,158.15289356101755L219.0078125,158.43480537791288L220.08138020833331,158.50052457257223L221.15494791666666,158.4823736918218L222.228515625,158.73935010906396L223.30208333333334,158.8313756058338L224.37565104166666,158.77331004132594L225.44921875,158.97739102510755L226.52278645833334,159.0800771632169L227.59635416666666,159.2058838467821L228.669921875,159.10415574420495L229.74348958333334,159.34978541864925L230.81705729166669,159.70037360484073L231.890625,159.61840612672287L232.96419270833334,159.4713741846405L234.03776041666666,159.5966610921507" style="fill: none;" fill="none"></path></g><g><path stroke="rgb(0, 119, 187)" stroke-width="2px" d="M24.692057291666668,-5.030370224052038L25.765625,1.3000777739962297L26.839192708333336,6.174969183314837L27.912760416666668,10.544580496775836L28.986328125,14.879135857679598L30.059895833333332,19.56363806600938L31.133463541666668,22.959546606125965L32.20703125,27.272621218926933L33.280598958333336,30.607449638992446L34.354166666666664,34.82771822431712L35.427734375,38.51839312955691L36.501302083333336,40.913189338968095L37.57486979166667,44.32292668312396L38.6484375,47.755358123508096L39.722005208333336,50.675819444595454L40.795572916666664,52.829820796826624L41.869140625,55.53086197128775L42.94270833333333,58.45245813382524L44.016276041666664,61.69128962952862L45.08984375,63.95967404640055L46.163411458333336,66.64517942787843L47.236979166666664,67.48960817966056L48.310546875,69.95209061795816L49.384114583333336,71.76526625265699L50.457682291666664,73.79772769423212L51.53125,74.71308042123665L52.604817708333336,77.03864278996826L53.67838541666667,80.035661846488L54.751953125,81.11059359442598L55.825520833333336,82.27094945285386L56.899088541666664,83.43187258105495L57.97265625,85.02553627993494L59.04622395833333,87.22301995486845L60.119791666666664,87.66118615082361L61.193359375,89.40722117006291L62.266927083333336,90.53063278300074L63.340494791666664,92.7059667389159L64.4140625,93.93265422267152L65.48763020833333,94.5196664890296L66.56119791666667,95.60216145184405L67.634765625,96.91245718132937L68.70833333333333,97.41507451524201L69.78190104166666,98.65013348044627L70.85546875,99.03514329142966L71.92903645833333,100.06012311991637L73.00260416666667,102.12711432997571L74.076171875,103.73448750460534L75.14973958333334,104.74629231231249L76.22330729166667,105.89657888077141L77.296875,105.67798887136716L78.37044270833333,106.27598268951922L79.44401041666667,107.17294314474917L80.517578125,108.5118755168557L81.59114583333333,108.34728924945317L82.66471354166667,109.0195933917653L83.73828125,109.84719980253874L84.81184895833333,111.00024819540874L85.88541666666666,112.2711038918796L86.958984375,112.83525805448228L88.03255208333333,113.02193384972911L89.10611979166667,113.67232014345608L90.1796875,114.0149920431651L91.25325520833334,114.23022207817979L92.32682291666667,115.23678283215492L93.400390625,115.81027493497855L94.47395833333333,116.08717032360002L95.54752604166667,116.91585836590082L96.62109375,117.95047236294853L97.69466145833333,117.91871247306817L98.76822916666667,118.4501133631872L99.841796875,119.11101010568184L100.91536458333333,118.21207137183688L101.98893229166666,118.64055962556975L103.0625,119.34191212557096L104.13606770833333,119.55242965776273L105.20963541666667,120.31227842536127L106.283203125,120.79374323058627L107.35677083333334,121.07285392359287L108.43033854166667,122.02580716527169L109.50390625,121.31051408964964L110.57747395833333,122.4930990351353L111.65104166666667,123.06843864953343L112.724609375,123.48529779166049L113.79817708333333,124.51290280925414L114.87174479166667,124.81106238420543L115.9453125,124.86038125028792L117.01888020833333,125.02262967849973L118.09244791666666,125.0838543293105L119.166015625,125.5944829261353L120.23958333333333,125.30670544532667L121.31315104166667,126.25174786337283L122.38671875,127.1168396982265L123.46028645833334,127.01014661183521L124.53385416666667,127.69197964560472L125.607421875,127.97684353567904L126.68098958333333,128.66045526636003L127.75455729166667,128.2829124385174L128.828125,128.2221445447921L129.90169270833334,128.5370560633032L130.97526041666666,128.46547394589203L132.048828125,129.3433155350764L133.12239583333334,129.99982343937805L134.19596354166669,129.9815049067403L135.26953125,130.78203656049163L136.34309895833334,130.78912112278692L137.41666666666666,131.3121503588478L138.490234375,131.39841711077042L139.56380208333331,131.47561025097596L140.63736979166666,131.95240471645968L141.7109375,131.87776483569266L142.78450520833334,131.45898262289256L143.85807291666666,131.5256363280242L144.931640625,132.15232281721816L146.00520833333334,132.20562648931593L147.07877604166666,132.70382547388428L148.15234375,132.97823490250937L149.22591145833334,133.37508466272848L150.29947916666669,133.45718606668288L151.373046875,133.40672094098417L152.44661458333334,133.7966906933289L153.52018229166666,133.99727984077683L154.59375,133.981415588216L155.66731770833331,133.89994965365037L156.74088541666666,133.9293098105648L157.814453125,133.96615143610418L158.88802083333334,134.3448659985863L159.96158854166666,134.77711369282196L161.03515625,134.81301849254822L162.10872395833334,135.1778892352598L163.18229166666666,135.28537707218888L164.255859375,135.68550177286826L165.32942708333334,135.70707809933197L166.40299479166669,135.3150537602026L167.4765625,135.14473121245786L168.55013020833334,135.06425000613126L169.62369791666666,135.16293627806763L170.697265625,135.47169374314188L171.77083333333331,135.60059038077995L172.84440104166666,135.77221918610712L173.91796875,135.81838648409152L174.99153645833334,136.13944341560224L176.06510416666666,136.14683048958452L177.138671875,136.48374856518342L178.21223958333334,137.0326466109467L179.28580729166666,137.10610030355446L180.359375,137.22831804014675L181.43294270833334,137.31589121197126L182.50651041666669,137.18041864933392L183.580078125,137.1113241551712L184.65364583333334,137.27821155632193L185.72721354166666,137.4522035715517L186.80078125,137.8847421474351L187.87434895833331,138.06503651073706L188.94791666666666,138.31139957923372L190.021484375,138.2867433979092L191.09505208333334,138.18254767126567L192.16861979166666,138.21341677041318L193.2421875,138.39961764405479L194.31575520833334,138.097174442523L195.38932291666666,137.85859710718844L196.462890625,137.95273200717955L197.53645833333334,138.2602281164542L198.61002604166669,138.43834867043077L199.68359375,138.51214856738656L200.75716145833334,138.68355627216923L201.83072916666666,138.53892751890098L202.904296875,138.54807069131624L203.97786458333331,138.7784510396227L205.05143229166666,138.85801358986018L206.125,138.97500447952476L207.19856770833334,138.97569132291085L208.27213541666666,139.05912833520316L209.345703125,138.94713466700466L210.41927083333334,139.0096189612626L211.49283854166666,139.01507326527454L212.56640625,139.00130567801688L213.63997395833334,139.04766032948567L214.71354166666669,139.09495298264824L215.787109375,139.0941370401117L216.86067708333334,139.1619871268386L217.93424479166666,139.265055345365L219.0078125,139.27944943590506L220.08138020833331,139.2532048795775L221.15494791666666,139.26134641016455L222.228515625,139.2343740295636L223.30208333333334,139.34219103982508L224.37565104166666,139.3758151986882L225.44921875,139.40292256568836L226.52278645833334,139.41553215679502L227.59635416666666,139.4470426938183L228.669921875,139.4713653220341L229.74348958333334,139.48808774271384L230.81705729166669,139.48659152808483L231.890625,139.47942972367053L232.96419270833334,139.47751581566277L234.03776041666666,139.4758022911014" style="fill: none;" fill="none"></path></g></g></g></g><g opacity="0.2"><g><g><g><path stroke="rgb(204, 51, 17)" stroke-width="2px" d="M30.059895833333332,-1.956219955214438L31.133463541666668,1.0255742445587916L32.20703125,4.844423213175359L33.280598958333336,8.631857606981464L34.354166666666664,11.79288443710122L35.427734375,14.951462154941892L36.501302083333336,17.72847288953406L37.57486979166667,20.471196052219184L38.6484375,24.054812496261928L39.722005208333336,26.37386278382368L40.795572916666664,29.086231083742206L41.869140625,31.724819876253584L42.94270833333333,33.28551667609385L44.016276041666664,35.95090440873588L45.08984375,38.11000882514885L46.163411458333336,40.908025407365386L47.236979166666664,42.50362205718244L48.310546875,44.656438848802004L49.384114583333336,46.47912001503364L50.457682291666664,48.95597320050001L51.53125,50.14063706887618L52.604817708333336,51.64088318390504L53.67838541666667,53.735039026609485L54.751953125,54.97433693813426L55.825520833333336,57.16998964548111L56.899088541666664,57.99225554402385L57.97265625,60.12924730245555L59.04622395833333,61.88177553138561L60.119791666666664,63.003068619540755L61.193359375,64.55319184809923L62.266927083333336,65.93067621013947L63.340494791666664,67.7770949261529L64.4140625,68.83657147841794L65.48763020833333,69.8714627112661L66.56119791666667,71.70083183795214L67.634765625,72.18309501452104L68.70833333333333,74.69242248684168L69.78190104166666,75.74408071913889L70.85546875,76.39740496873856L71.92903645833333,77.66147659293243L73.00260416666667,79.24748873604194L74.076171875,80.06130048739058L75.14973958333334,81.21902412069694L76.22330729166667,82.2823391854763L77.296875,83.47121835287128L78.37044270833333,84.14656106382608L79.44401041666667,85.15284007149083L80.517578125,86.23511220727647L81.59114583333333,87.14931401291064L82.66471354166667,87.60831062282834L83.73828125,89.20103427554879L84.81184895833333,89.85353430466992L85.88541666666666,90.46256259083748L86.958984375,92.14741054390157L88.03255208333333,92.84665564873389L89.10611979166667,93.74267750552721L90.1796875,94.27300451057297L91.25325520833334,94.88478804805449L92.32682291666667,95.85555492767266L93.400390625,96.60802112626178L94.47395833333333,96.9801213485854L95.54752604166667,98.14003505344901L96.62109375,98.01317574722427L97.69466145833333,99.58011307354484L98.76822916666667,100.19674773727144L99.841796875,101.3290618306824L100.91536458333333,101.4433694364769L101.98893229166666,102.86380746002709L103.0625,103.65202127822808L104.13606770833333,103.74925574553865L105.20963541666667,105.02830463328532L106.283203125,105.8208985946008L107.35677083333334,106.4441270221557L108.43033854166667,106.42971493835961L109.50390625,107.72475370338984L110.57747395833333,108.25637591204472L111.65104166666667,108.6451724863478L112.724609375,109.40277240106037L113.79817708333333,110.14077941754034L114.87174479166667,111.53566660625594L115.9453125,112.02023760016476L117.01888020833333,111.69528278921331L118.09244791666666,112.91343355817455L119.166015625,113.16230104437895L120.23958333333333,114.10080557955163L121.31315104166667,115.03127985234772L122.38671875,114.29477998188563L123.46028645833334,115.58044618261712L124.53385416666667,116.98322233877012L125.607421875,117.27421926600593L126.68098958333333,117.872909472457L127.75455729166667,118.60531178968293L128.828125,118.98704361702715L129.90169270833334,120.08353944335664L130.97526041666666,120.10555790471179L132.048828125,120.4037137755326L133.12239583333334,122.01235665806702L134.19596354166669,122.67929232014077L135.26953125,123.4649863785931L136.34309895833334,123.32943743360894L137.41666666666666,124.30844651801246L138.490234375,125.30523521559579L139.56380208333331,125.83078174186605L140.63736979166666,126.54606382229498L141.7109375,126.70669261898314L142.78450520833334,127.70218611295735L143.85807291666666,128.0316388128059L144.931640625,128.88941683939527L146.00520833333334,129.1647535775389L147.07877604166666,130.30502728585685L148.15234375,130.84755275398493L149.22591145833334,131.13369855497564L150.29947916666669,131.66145870195967L151.373046875,132.83439509038413L152.44661458333334,132.88982980485474L153.52018229166666,133.7884185197098L154.59375,134.11584599209684L155.66731770833331,134.81047546224934L156.74088541666666,134.67584493436982L157.814453125,135.10090720972846L158.88802083333334,136.33408234055554L159.96158854166666,136.6550102457404L161.03515625,137.6966129881995L162.10872395833334,138.52295289082187L163.18229166666666,138.9674667694739L164.255859375,138.9633221179247L165.32942708333334,139.2786924221686L166.40299479166669,141.11312461750848L167.4765625,140.9662485282336L168.55013020833334,141.70100576111247L169.62369791666666,142.37752592989375L170.697265625,141.95319367838758L171.77083333333331,143.22586074471474L172.84440104166666,143.9279317483306L173.91796875,144.64542744947332L174.99153645833334,144.28514890372753L176.06510416666666,145.544534245772L177.138671875,145.94741321567977L178.21223958333334,145.91293725052049L179.28580729166666,146.3895957278354L180.359375,147.87806726459948L181.43294270833334,147.60600385921342L182.50651041666669,148.23078653109926L183.580078125,149.15973010872094L184.65364583333334,149.19446511460202L185.72721354166666,149.45119801908731L186.80078125,149.7997726340379L187.87434895833331,150.67938072873014L188.94791666666666,150.55391082274062L190.021484375,151.87807989439796L191.09505208333334,151.69493810406755L192.16861979166666,152.02344883765494L193.2421875,152.36248604421107L194.31575520833334,152.75222458477532L195.38932291666666,153.10287152550052L196.462890625,153.8039299153856L197.53645833333334,153.899468843426L198.61002604166669,154.0952329816563L199.68359375,154.65770458536488L200.75716145833334,154.84397841351372L201.83072916666666,155.02483593566078L202.904296875,155.8126023198877L203.97786458333331,155.29381440154145L205.05143229166666,156.0139476082155L206.125,156.00064233477627L207.19856770833334,156.6696974209377L208.27213541666666,156.57502981168884L209.345703125,157.09207509245192L210.41927083333334,157.41257911281926L211.49283854166666,157.17383776392256L212.56640625,157.80201151434866L213.63997395833334,157.2804447955319L214.71354166666669,158.16075936492L215.787109375,158.3410988056234L216.86067708333334,158.3649305520313L217.93424479166666,158.2278273627162L219.0078125,158.8576731032559L220.08138020833331,158.5991033645613L221.15494791666666,158.45514737069607L222.228515625,159.12481473492724L223.30208333333334,158.96941385098864L224.37565104166666,158.68621169456412L225.44921875,159.28351250077998L226.52278645833334,159.23410637038094L227.59635416666666,159.39459387212992L228.669921875,158.95156359033925L229.74348958333334,159.71822993031572L230.81705729166669,160.22625588412797L231.890625,159.49545490954605L232.96419270833334,159.25082627151696L234.03776041666666,159.78459145341603" style="fill: none;" fill="none"></path></g><g><path stroke="rgb(0, 119, 187)" stroke-width="2px" d="M23.618489583333332,-5.419500209391117L24.692057291666668,2.948245129414953L25.765625,9.565110680248033L26.839192708333336,12.918698963310014L27.912760416666668,16.793194588805946L28.986328125,21.198959185608782L30.059895833333332,26.472368905586844L31.133463541666668,28.002075015434183L32.20703125,33.70311386883257L33.280598958333336,35.59154428009475L34.354166666666664,41.14434119313955L35.427734375,44.047175071069155L36.501302083333336,44.50256866003785L37.57486979166667,49.435127888407024L38.6484375,52.902552794132895L39.722005208333336,55.055769921413486L40.795572916666664,56.06049468474728L41.869140625,59.58217684711728L42.94270833333333,62.834692150354385L44.016276041666664,66.54943029795373L45.08984375,67.36220588641507L46.163411458333336,70.67340568772384L47.236979166666664,68.7562453054956L48.310546875,73.64580377404178L49.384114583333336,74.48502506528581L50.457682291666664,76.84641673628772L51.53125,76.08610866857425L52.604817708333336,80.52698505776269L53.67838541666667,84.53118943742344L54.751953125,82.72299100245748L55.825520833333336,84.0114831019725L56.899088541666664,85.17325719020197L57.97265625,87.41603175976446L59.04622395833333,90.51924541060413L60.119791666666664,88.31843543797731L61.193359375,92.02627368271351L62.266927083333336,92.21575019615037L63.340494791666664,95.96896766551903L64.4140625,95.77268544584513L65.48763020833333,95.40018488786049L66.56119791666667,97.22590389528445L67.634765625,98.8779007749898L68.70833333333333,98.16900051598037L69.78190104166666,100.50272192806005L70.85546875,99.6126580078687L71.92903645833333,101.59759286258901L73.00260416666667,105.227601144995L74.076171875,106.14554726651735L75.14973958333334,106.26399952386106L76.22330729166667,107.62200873345137L77.296875,105.35010385726179L78.37044270833333,107.17297341674566L79.44401041666667,108.51838382759264L80.517578125,110.52027407501424L81.59114583333333,108.10040984834944L82.66471354166667,110.02804960523332L83.73828125,111.08860941869872L84.81184895833333,112.72982078471354L85.88541666666666,114.17738743658578L86.958984375,113.68148929838623L88.03255208333333,113.30194754259927L89.10611979166667,114.64789958404643L90.1796875,114.52899989272868L91.25325520833334,114.55306713070189L92.32682291666667,116.7466239631176L93.400390625,116.67051308921405L94.47395833333333,116.50251340653216L95.54752604166667,118.15889042935201L96.62109375,119.5023933585201L97.69466145833333,117.8710726382477L98.76822916666667,119.24721469836575L99.841796875,120.10235521942377L100.91536458333333,116.86366327106953L101.98893229166666,119.28329200616905L103.0625,120.39394087557281L104.13606770833333,119.86820595605033L105.20963541666667,121.45205157675913L106.283203125,121.51594043842384L107.35677083333334,121.49151996310269L108.43033854166667,123.45523702778986L109.50390625,120.23757447621652L110.57747395833333,124.2669764533639L111.65104166666667,123.93144807113069L112.724609375,124.11058650485107L113.79817708333333,126.05431033564466L114.87174479166667,125.25830174663237L115.9453125,124.93435954941171L117.01888020833333,125.26600232081753L118.09244791666666,125.17569130552667L119.166015625,126.36042582137244L120.23958333333333,124.87503922411373L121.31315104166667,127.66931149044207L122.38671875,128.41447745050704L123.46028645833334,126.85010698224818L124.53385416666667,128.71472919625896L125.607421875,128.40413937079055L126.68098958333333,129.6858728623816L127.75455729166667,127.71659819675344L128.828125,128.13099270420415L129.90169270833334,129.00942334106992L130.97526041666666,128.35810076977526L132.048828125,130.66007791885306L133.12239583333334,130.98458529583047L134.19596354166669,129.95402710778373L135.26953125,131.98283404111862L136.34309895833334,130.79974796622992L137.41666666666666,132.09669421293904L138.490234375,131.5278172386544L139.56380208333331,131.59139996128422L140.63736979166666,132.66759641468525L141.7109375,131.76580501454217L142.78450520833334,130.8308093036924L143.85807291666666,131.62561688572168L144.931640625,133.09235255100896L146.00520833333334,132.28558199746269L147.07877604166666,133.45112395073687L148.15234375,133.38984904544694L149.22591145833334,133.9703593030572L150.29947916666669,133.58033817261457L151.373046875,133.3310232524361L152.44661458333334,134.381645321846L153.52018229166666,134.2981635619487L154.59375,133.95761920937468L155.66731770833331,133.7777507518019L156.74088541666666,133.97335004593646L157.814453125,134.02141387441327L158.88802083333334,134.91293784230947L159.96158854166666,135.42548523417543L161.03515625,134.86687569213765L162.10872395833334,135.72519534932715L163.18229166666666,135.44660882758242L164.255859375,136.28568882388728L165.32942708333334,135.73944258902753L166.40299479166669,134.72701725150858L167.4765625,134.88924739084075L168.55013020833334,134.94352819664138L169.62369791666666,135.31096568597215L170.697265625,135.93482994075333L171.77083333333331,135.79393533723695L172.84440104166666,136.02966239409787L173.91796875,135.88763743106807L174.99153645833334,136.62102881286825L176.06510416666666,136.15791110055787L177.138671875,136.98912567858184L178.21223958333334,137.8559936795916L179.28580729166666,137.216280842466L180.359375,137.41164464503527L181.43294270833334,137.44725096970797L182.50651041666669,136.9772098053779L183.580078125,137.00768241392714L184.65364583333334,137.52854265804802L185.72721354166666,137.71319159439633L186.80078125,138.53355001126016L187.87434895833331,138.33547805569003L188.94791666666666,138.6809441819787L190.021484375,138.24975912592242L191.09505208333334,138.02625408130032L192.16861979166666,138.2597204191344L193.2421875,138.67891895451714L194.31575520833334,137.64350964022535L195.38932291666666,137.5007311041866L196.462890625,138.0939343571663L197.53645833333334,138.72147228036607L198.61002604166669,138.70552950139557L199.68359375,138.62284841282028L200.75716145833334,138.94066782934325L201.83072916666666,138.32198438899857L202.904296875,138.56178544993912L203.97786458333331,139.12402156208242L205.05143229166666,138.97735741521632L206.125,139.15049081402165L207.19856770833334,138.97672158799003L208.27213541666666,139.18428385364157L209.345703125,138.77914416470696L210.41927083333334,139.10334540264947L211.49283854166666,139.02325472129243L212.56640625,138.98065429713046L213.63997395833334,139.11719230668885L214.71354166666669,139.16589196239198L215.787109375,139.09291312630688L216.86067708333334,139.26376225692886L217.93424479166666,139.41965767315457L219.0078125,139.30104057171513L220.08138020833331,139.21383804508616L221.15494791666666,139.27355870604515L222.228515625,139.19391545866216L223.30208333333334,139.50391655521733L224.37565104166666,139.42625143698285L225.44921875,139.4435836161886L226.52278645833334,139.43444654345512L227.59635416666666,139.49430849935328L228.669921875,139.5078492643578L229.74348958333334,139.51317137373346L230.81705729166669,139.48434720614125L231.890625,139.4686870170491L232.96419270833334,139.47464495365108L234.03776041666666,139.47323200425933" style="fill: none;" fill="none"></path></g></g></g></g></g><g><g><span fill="rgb(0, 0, 0)" stroke="none" stroke-width="1px">Alt + Scroll to Zoom</span></g></g></g><g transform="translate(72, 177)" clip-path="url(#clip_1)"><clipPath id="clip_1"><rect width="257" height="23"></rect></clipPath><g><g><line x1="0" y1="0" x2="0" y2="5" style="visibility: inherit;" fill="rgb(0, 0, 0)" stroke="rgb(200, 195, 188)" stroke-width="1px"></line><line x1="21.471354166666664" y1="0" x2="21.471354166666664" y2="5" style="visibility: inherit;" fill="rgb(0, 0, 0)" stroke="rgb(200, 195, 188)" stroke-width="1px"></line><line x1="42.94270833333333" y1="0" x2="42.94270833333333" y2="5" style="visibility: inherit;" fill="rgb(0, 0, 0)" stroke="rgb(200, 195, 188)" stroke-width="1px"></line><line x1="64.4140625" y1="0" x2="64.4140625" y2="5" style="visibility: inherit;" fill="rgb(0, 0, 0)" stroke="rgb(200, 195, 188)" stroke-width="1px"></line><line x1="85.88541666666666" y1="0" x2="85.88541666666666" y2="5" style="visibility: inherit;" fill="rgb(0, 0, 0)" stroke="rgb(200, 195, 188)" stroke-width="1px"></line><line x1="107.35677083333334" y1="0" x2="107.35677083333334" y2="5" style="visibility: inherit;" fill="rgb(0, 0, 0)" stroke="rgb(200, 195, 188)" stroke-width="1px"></line><line x1="128.828125" y1="0" x2="128.828125" y2="5" style="visibility: inherit;" fill="rgb(0, 0, 0)" stroke="rgb(200, 195, 188)" stroke-width="1px"></line><line x1="150.29947916666669" y1="0" x2="150.29947916666669" y2="5" style="visibility: inherit;" fill="rgb(0, 0, 0)" stroke="rgb(200, 195, 188)" stroke-width="1px"></line><line x1="171.77083333333331" y1="0" x2="171.77083333333331" y2="5" style="visibility: inherit;" fill="rgb(0, 0, 0)" stroke="rgb(200, 195, 188)" stroke-width="1px"></line><line x1="193.2421875" y1="0" x2="193.2421875" y2="5" style="visibility: inherit;" fill="rgb(0, 0, 0)" stroke="rgb(200, 195, 188)" stroke-width="1px"></line><line x1="214.71354166666669" y1="0" x2="214.71354166666669" y2="5" style="visibility: inherit;" fill="rgb(0, 0, 0)" stroke="rgb(200, 195, 188)" stroke-width="1px"></line><line x1="236.18489583333331" y1="0" x2="236.18489583333331" y2="5" style="visibility: inherit;" fill="rgb(0, 0, 0)" stroke="rgb(200, 195, 188)" stroke-width="1px"></line><line x1="257.65625" y1="0" x2="257.65625" y2="5" style="visibility: inherit;" fill="rgb(0, 0, 0)" stroke="rgb(200, 195, 188)" stroke-width="1px"></line></g><g transform="translate(0, 8)"><text x="0" y="0" dx="0em" dy="0.95em" style="text-anchor: middle; visibility: hidden; font-family: Roboto, sans-serif; font-size: 12px; font-weight: 200;" fill="rgb(232, 230, 227)" stroke="none" stroke-width="1px">-20</text><text x="21.471354166666664" y="0" dx="0em" dy="0.95em" style="text-anchor: middle; visibility: inherit; font-family: Roboto, sans-serif; font-size: 12px; font-weight: 200;" fill="rgb(232, 230, 227)" stroke="none" stroke-width="1px">0</text><text x="42.94270833333333" y="0" dx="0em" dy="0.95em" style="text-anchor: middle; visibility: hidden; font-family: Roboto, sans-serif; font-size: 12px; font-weight: 200;" fill="rgb(232, 230, 227)" stroke="none" stroke-width="1px">20</text><text x="64.4140625" y="0" dx="0em" dy="0.95em" style="text-anchor: middle; visibility: inherit; font-family: Roboto, sans-serif; font-size: 12px; font-weight: 200;" fill="rgb(232, 230, 227)" stroke="none" stroke-width="1px">40</text><text x="85.88541666666666" y="0" dx="0em" dy="0.95em" style="text-anchor: middle; visibility: hidden; font-family: Roboto, sans-serif; font-size: 12px; font-weight: 200;" fill="rgb(232, 230, 227)" stroke="none" stroke-width="1px">60</text><text x="107.35677083333334" y="0" dx="0em" dy="0.95em" style="text-anchor: middle; visibility: inherit; font-family: Roboto, sans-serif; font-size: 12px; font-weight: 200;" fill="rgb(232, 230, 227)" stroke="none" stroke-width="1px">80</text><text x="128.828125" y="0" dx="0em" dy="0.95em" style="text-anchor: middle; visibility: hidden; font-family: Roboto, sans-serif; font-size: 12px; font-weight: 200;" fill="rgb(232, 230, 227)" stroke="none" stroke-width="1px">100</text><text x="150.29947916666669" y="0" dx="0em" dy="0.95em" style="text-anchor: middle; visibility: inherit; font-family: Roboto, sans-serif; font-size: 12px; font-weight: 200;" fill="rgb(232, 230, 227)" stroke="none" stroke-width="1px">120</text><text x="171.77083333333331" y="0" dx="0em" dy="0.95em" style="text-anchor: middle; visibility: hidden; font-family: Roboto, sans-serif; font-size: 12px; font-weight: 200;" fill="rgb(232, 230, 227)" stroke="none" stroke-width="1px">140</text><text x="193.2421875" y="0" dx="0em" dy="0.95em" style="text-anchor: middle; visibility: inherit; font-family: Roboto, sans-serif; font-size: 12px; font-weight: 200;" fill="rgb(232, 230, 227)" stroke="none" stroke-width="1px">160</text><text x="214.71354166666669" y="0" dx="0em" dy="0.95em" style="text-anchor: middle; visibility: hidden; font-family: Roboto, sans-serif; font-size: 12px; font-weight: 200;" fill="rgb(232, 230, 227)" stroke="none" stroke-width="1px">180</text><text x="236.18489583333331" y="0" dx="0em" dy="0.95em" style="text-anchor: middle; visibility: inherit; font-family: Roboto, sans-serif; font-size: 12px; font-weight: 200;" fill="rgb(232, 230, 227)" stroke="none" stroke-width="1px">200</text><text x="257.65625" y="0" dx="0em" dy="0.95em" style="text-anchor: middle; visibility: hidden; font-family: Roboto, sans-serif; font-size: 12px; font-weight: 200;" fill="rgb(232, 230, 227)" stroke="none" stroke-width="1px">220</text></g><line x1="0" y1="0" x2="257.65625" y2="0" fill="rgb(0, 0, 0)" stroke="rgb(200, 195, 188)" stroke-width="1px"></line></g></g></g></g></svg>