<svg viewBox="0 0 330 200" xmlns="http://www.w3.org/2000/svg"><g><g><g><g><g><line x1="40" y1="177" x2="35" y2="177" style="visibility: inherit;" fill="rgb(0, 0, 0)" stroke="rgb(200, 195, 188)" stroke-width="1px"></line><line x1="40" y1="157.33333333333331" x2="35" y2="157.33333333333331" style="visibility: inherit;" fill="rgb(0, 0, 0)" stroke="rgb(200, 195, 188)" stroke-width="1px"></line><line x1="40" y1="137.66666666666666" x2="35" y2="137.66666666666666" style="visibility: inherit;" fill="rgb(0, 0, 0)" stroke="rgb(200, 195, 188)" stroke-width="1px"></line><line x1="40" y1="118.00000000000001" x2="35" y2="118.00000000000001" style="visibility: inherit;" fill="rgb(0, 0, 0)" stroke="rgb(200, 195, 188)" stroke-width="1px"></line><line x1="40" y1="98.33333333333334" x2="35" y2="98.33333333333334" style="visibility: inherit;" fill="rgb(0, 0, 0)" stroke="rgb(200, 195, 188)" stroke-width="1px"></line><line x1="40" y1="78.66666666666666" x2="35" y2="78.66666666666666" style="visibility: inherit;" fill="rgb(0, 0, 0)" stroke="rgb(200, 195, 188)" stroke-width="1px"></line><line x1="40" y1="59.00000000000001" x2="35" y2="59.00000000000001" style="visibility: inherit;" fill="rgb(0, 0, 0)" stroke="rgb(200, 195, 188)" stroke-width="1px"></line><line x1="40" y1="39.33333333333333" x2="35" y2="39.33333333333333" style="visibility: inherit;" fill="rgb(0, 0, 0)" stroke="rgb(200, 195, 188)" stroke-width="1px"></line><line x1="40" y1="19.666666666666675" x2="35" y2="19.666666666666675" style="visibility: inherit;" fill="rgb(0, 0, 0)" stroke="rgb(200, 195, 188)" stroke-width="1px"></line><line x1="40" y1="0" x2="35" y2="0" style="visibility: inherit;" fill="rgb(0, 0, 0)" stroke="rgb(200, 195, 188)" stroke-width="1px"></line></g><g transform="translate(30, 0)"><text x="0" y="177" dx="0em" dy="0.3em" style="text-anchor: end; visibility: hidden; font-family: Roboto, sans-serif; font-size: 12px; font-weight: 200;" fill="rgb(211, 207, 202)" stroke="none" stroke-width="1px">55</text><text x="0" y="157.33333333333331" dx="0em" dy="0.3em" style="text-anchor: end; visibility: inherit; font-family: Roboto, sans-serif; font-size: 12px; font-weight: 200;" fill="rgb(211, 207, 202)" stroke="none" stroke-width="1px">60</text><text x="0" y="137.66666666666666" dx="0em" dy="0.3em" style="text-anchor: end; visibility: hidden; font-family: Roboto, sans-serif; font-size: 12px; font-weight: 200;" fill="rgb(211, 207, 202)" stroke="none" stroke-width="1px">65</text><text x="0" y="118.00000000000001" dx="0em" dy="0.3em" style="text-anchor: end; visibility: inherit; font-family: Roboto, sans-serif; font-size: 12px; font-weight: 200;" fill="rgb(211, 207, 202)" stroke="none" stroke-width="1px">70</text><text x="0" y="98.33333333333334" dx="0em" dy="0.3em" style="text-anchor: end; visibility: hidden; font-family: Roboto, sans-serif; font-size: 12px; font-weight: 200;" fill="rgb(211, 207, 202)" stroke="none" stroke-width="1px">75</text><text x="0" y="78.66666666666666" dx="0em" dy="0.3em" style="text-anchor: end; visibility: inherit; font-family: Roboto, sans-serif; font-size: 12px; font-weight: 200;" fill="rgb(211, 207, 202)" stroke="none" stroke-width="1px">80</text><text x="0" y="59.00000000000001" dx="0em" dy="0.3em" style="text-anchor: end; visibility: hidden; font-family: Roboto, sans-serif; font-size: 12px; font-weight: 200;" fill="rgb(211, 207, 202)" stroke="none" stroke-width="1px">85</text><text x="0" y="39.33333333333333" dx="0em" dy="0.3em" style="text-anchor: end; visibility: inherit; font-family: Roboto, sans-serif; font-size: 12px; font-weight: 200;" fill="rgb(211, 207, 202)" stroke="none" stroke-width="1px">90</text><text x="0" y="19.666666666666675" dx="0em" dy="0.3em" style="text-anchor: end; visibility: hidden; font-family: Roboto, sans-serif; font-size: 12px; font-weight: 200;" fill="rgb(211, 207, 202)" stroke="none" stroke-width="1px">95</text><text x="0" y="0" dx="0em" dy="0.3em" style="text-anchor: end; visibility: hidden; font-family: Roboto, sans-serif; font-size: 12px; font-weight: 200;" fill="rgb(211, 207, 202)" stroke="none" stroke-width="1px">100</text></g><line x1="40" y1="0" x2="40" y2="177" fill="rgb(0, 0, 0)" stroke="rgb(200, 195, 188)" stroke-width="1px"></line></g></g><g transform="translate(40, 0)" clip-path="url(#clip_0)"><clipPath id="clip_0"><rect width="290" height="177"></rect></clipPath><g><g><g><line x1="0" y1="0" x2="0" y2="177" fill="rgb(0, 0, 0)" stroke="rgb(194, 189, 181)" stroke-width="1px" opacity="0.25"></line><line x1="24.166666666666664" y1="0" x2="24.166666666666664" y2="177" fill="rgb(0, 0, 0)" stroke="rgb(194, 189, 181)" stroke-width="1px" opacity="0.25"></line><line x1="48.33333333333333" y1="0" x2="48.33333333333333" y2="177" fill="rgb(0, 0, 0)" stroke="rgb(194, 189, 181)" stroke-width="1px" opacity="0.25"></line><line x1="72.5" y1="0" x2="72.5" y2="177" fill="rgb(0, 0, 0)" stroke="rgb(194, 189, 181)" stroke-width="1px" opacity="0.25"></line><line x1="96.66666666666666" y1="0" x2="96.66666666666666" y2="177" fill="rgb(0, 0, 0)" stroke="rgb(194, 189, 181)" stroke-width="1px" opacity="0.25"></line><line x1="120.83333333333334" y1="0" x2="120.83333333333334" y2="177" fill="rgb(0, 0, 0)" stroke="rgb(194, 189, 181)" stroke-width="1px" opacity="0.25"></line><line x1="145" y1="0" x2="145" y2="177" fill="rgb(0, 0, 0)" stroke="rgb(194, 189, 181)" stroke-width="1px" opacity="0.25"></line><line x1="169.16666666666669" y1="0" x2="169.16666666666669" y2="177" fill="rgb(0, 0, 0)" stroke="rgb(194, 189, 181)" stroke-width="1px" opacity="0.25"></line><line x1="193.33333333333331" y1="0" x2="193.33333333333331" y2="177" fill="rgb(0, 0, 0)" stroke="rgb(194, 189, 181)" stroke-width="1px" opacity="0.25"></line><line x1="217.5" y1="0" x2="217.5" y2="177" fill="rgb(0, 0, 0)" stroke="rgb(194, 189, 181)" stroke-width="1px" opacity="0.25"></line><line x1="241.66666666666669" y1="0" x2="241.66666666666669" y2="177" fill="rgb(0, 0, 0)" stroke="rgb(194, 189, 181)" stroke-width="1px" opacity="0.25"></line><line x1="265.8333333333333" y1="0" x2="265.8333333333333" y2="177" fill="rgb(0, 0, 0)" stroke="rgb(194, 189, 181)" stroke-width="1px" opacity="0.25"></line><line x1="290" y1="0" x2="290" y2="177" fill="rgb(0, 0, 0)" stroke="rgb(194, 189, 181)" stroke-width="1px" opacity="0.25"></line></g><g><line x1="0" y1="177" x2="290" y2="177" fill="rgb(0, 0, 0)" stroke="rgb(194, 189, 181)" stroke-width="1px" opacity="0.25"></line><line x1="0" y1="157.33333333333331" x2="290" y2="157.33333333333331" fill="rgb(0, 0, 0)" stroke="rgb(194, 189, 181)" stroke-width="1px" opacity="0.25"></line><line x1="0" y1="137.66666666666666" x2="290" y2="137.66666666666666" fill="rgb(0, 0, 0)" stroke="rgb(194, 189, 181)" stroke-width="1px" opacity="0.25"></line><line x1="0" y1="118.00000000000001" x2="290" y2="118.00000000000001" fill="rgb(0, 0, 0)" stroke="rgb(194, 189, 181)" stroke-width="1px" opacity="0.25"></line><line x1="0" y1="98.33333333333334" x2="290" y2="98.33333333333334" fill="rgb(0, 0, 0)" stroke="rgb(194, 189, 181)" stroke-width="1px" opacity="0.25"></line><line x1="0" y1="78.66666666666666" x2="290" y2="78.66666666666666" fill="rgb(0, 0, 0)" stroke="rgb(194, 189, 181)" stroke-width="1px" opacity="0.25"></line><line x1="0" y1="59.00000000000001" x2="290" y2="59.00000000000001" fill="rgb(0, 0, 0)" stroke="rgb(194, 189, 181)" stroke-width="1px" opacity="0.25"></line><line x1="0" y1="39.33333333333333" x2="290" y2="39.33333333333333" fill="rgb(0, 0, 0)" stroke="rgb(194, 189, 181)" stroke-width="1px" opacity="0.25"></line><line x1="0" y1="19.666666666666675" x2="290" y2="19.666666666666675" fill="rgb(0, 0, 0)" stroke="rgb(194, 189, 181)" stroke-width="1px" opacity="0.25"></line><line x1="0" y1="0" x2="290" y2="0" fill="rgb(0, 0, 0)" stroke="rgb(194, 189, 181)" stroke-width="1px" opacity="0.25"></line></g></g></g><g><g><line x1="0" y1="393.33333333333337" x2="290" y2="393.33333333333337" fill="rgb(0, 0, 0)" stroke="rgb(168, 160, 149)" stroke-width="1.5px"></line></g></g><g><g><line x1="24.166666666666664" y1="0" x2="24.166666666666664" y2="177" fill="rgb(0, 0, 0)" stroke="rgb(168, 160, 149)" stroke-width="1.5px"></line></g></g><g><g><g><g><g><path stroke="rgb(187, 187, 187)" stroke-width="2px" d="M35.041666666666664,181.27896205426657L36.25,175.6640220816784L37.458333333333336,170.9426430774276L38.666666666666664,166.16606951854564L39.875,161.74844438213847L41.083333333333336,157.84082836662066L42.29166666666667,153.6875946545495L43.5,149.871428970802L44.708333333333336,146.90239522335628L45.916666666666664,143.75857649497465L47.125,140.7710390685992L48.33333333333333,137.69786038696964L49.541666666666664,134.5166477898815L50.75,131.8684726026115L51.958333333333336,129.34501366174777L53.166666666666664,126.47787447602795L54.375,123.78528047665797L55.583333333333336,120.92993591207973L56.791666666666664,118.93038544954378L58,116.36185113225231L59.208333333333336,113.71940237219316L60.41666666666667,111.63046723672524L61.625,109.46457004596083L62.833333333333336,107.26508734084113L64.04166666666667,105.23425762789454L65.25,103.35495070328433L66.45833333333333,101.08827476057027L67.66666666666667,98.99824743618113L68.875,97.2407648614328L70.08333333333333,95.63875599174109L71.29166666666666,93.99471497793813L72.5,92.51112606402341L73.70833333333333,91.16784954727281L74.91666666666667,89.3769778349429L76.125,88.08847897776077L77.33333333333333,86.9157564539174L78.54166666666666,85.61110365254251L79.75,84.16436991445309L80.95833333333333,83.09494559773641L82.16666666666667,81.86800841494048L83.375,80.70074950696262L84.58333333333334,79.19170092487336L85.79166666666667,78.33661479320274L87,77.68196887592049L88.20833333333333,76.34518372626711L89.41666666666667,75.09627934383242L90.625,74.11409125538756L91.83333333333333,73.19437984275059L93.04166666666667,72.27124623247312L94.25,71.33346754742652L95.45833333333333,70.31453222930223L96.66666666666666,69.5269584733235L97.875,68.60759293067379L99.08333333333333,67.61228525059178L100.29166666666667,66.35744846155299L101.5,65.58882169737453L102.70833333333334,64.81926164635436L103.91666666666667,64.023982118021L105.125,63.40836510089068L106.33333333333333,62.52922682420629L107.54166666666667,61.857004681763314L108.75,61.26801201315954L109.95833333333333,60.46150524663269L111.16666666666667,59.54335965025823L112.375,58.75961482986848L113.58333333333333,57.88659978984815L114.79166666666666,57.23692121830991L116,56.504123759631824L117.20833333333333,55.66167713663842L118.41666666666667,55.058656062256475L119.625,54.31924677862994L120.83333333333334,53.4193331013576L122.04166666666667,52.611921109186966L123.25,51.97328791941845L124.45833333333333,51.539764987979176L125.66666666666667,50.58738072130312L126.875,50.31488733577666L128.08333333333334,49.59442515862748L129.29166666666669,48.69329999263743L130.5,47.948083877418405L131.70833333333334,47.34676821382087L132.91666666666666,46.46363099665191L134.125,45.80158924252236L135.33333333333334,45.07396563047434L136.54166666666666,44.750669254586654L137.75,44.21685805503069L138.95833333333334,43.9500592910262L140.16666666666666,42.96240516283188L141.375,42.12123053259492L142.58333333333331,41.55673591884082L143.79166666666666,41.22118408873935L145,40.11990853267068L146.20833333333334,39.877648041151886L147.41666666666666,38.6813062319177L148.625,38.76590450737975L149.83333333333334,38.02370692968828L151.04166666666669,37.51545360931032L152.25,36.939880889544504L153.45833333333334,36.34595510436477L154.66666666666666,35.870031965613634L155.875,35.468043349290056L157.08333333333331,35.24887675013394L158.29166666666666,34.4314081627106L159.5,33.81505746273051L160.70833333333334,33.34770594573725L161.91666666666666,32.60158011041113L163.125,31.965112291507094L164.33333333333334,31.142688183823555L165.54166666666666,30.602035639786347L166.75,30.176958078207704L167.95833333333334,29.59151298169025L169.16666666666669,29.098639681917778L170.375,28.81550745823919L171.58333333333334,28.293202993823744L172.79166666666666,27.9514918646536L174,27.554515927711442L175.20833333333331,26.985931805975806L176.41666666666666,26.663662965421455L177.625,26.036060124630495L178.83333333333334,25.47070610244752L180.04166666666666,25.210153153656044L181.25,24.98774167246702L182.45833333333334,24.813386580628606L183.66666666666666,24.08888460950993L184.875,23.663618241291864L186.08333333333334,23.23854773513969L187.29166666666669,22.7632397250682L188.5,22.323868924559154L189.70833333333334,21.9029035080558L190.91666666666666,21.363978839859534L192.125,21.141322077678755L193.33333333333331,21.01716283482342L194.54166666666666,20.672058565151882L195.75,20.109425934989524L196.95833333333334,19.589331911905127L198.16666666666666,19.214340724291546L199.375,18.98934601172339L200.58333333333334,18.476752545185047L201.79166666666666,18.20066985393395L203,18.141996150641592L204.20833333333334,18.034422340450085L205.41666666666669,17.837718630507013L206.625,17.395587721272996L207.83333333333334,17.149190808219544L209.04166666666666,17.18386710537445L210.25,16.591061840373108L211.45833333333331,16.301458393286385L212.66666666666666,15.945193883628086L213.875,15.671645342221108L215.08333333333334,15.819045148041026L216.29166666666666,15.363110641884512L217.5,14.96997026696663L218.70833333333334,14.979523257185134L219.91666666666666,15.019873378139179L221.125,14.757738032417379L222.33333333333334,14.477732215609274L223.54166666666669,14.27512240228222L224.75,14.373822220666213L225.95833333333334,14.222211219769523L227.16666666666666,14.008532013437241L228.375,13.745008124077955L229.58333333333331,13.498787507910325L230.79166666666666,13.530424645045661L232,13.514788600503962L233.20833333333334,13.26311469676073L234.41666666666666,13.080636965842894L235.625,12.81067445652396L236.83333333333334,12.598353933354456L238.04166666666666,12.622002675767893L239.25,12.57954702375502L240.45833333333334,12.591836897521272L241.66666666666669,12.64955383935908L242.875,12.432456912990428L244.08333333333334,12.39030503972134L245.29166666666666,12.358712035877108L246.5,12.2862682778414L247.70833333333331,12.145248922434016L248.91666666666666,12.038610738551556L250.125,12.002956278742953L251.33333333333334,11.85569405533168L252.54166666666666,11.823981618745865L253.75,11.704256118057405L254.95833333333334,11.698500529558386L256.1666666666667,11.638402278998047L257.375,11.904425441292027L258.58333333333337,11.806010367314249L259.7916666666667,11.734381570323444L261,11.65993090345709L262.2083333333333,11.637287073975303L263.4166666666667,11.570212820557066" style="fill: none;" fill="none"></path></g><g><path stroke="rgb(0, 153, 136)" stroke-width="2px" d="M29,181.5073885255629L30.208333333333336,170.47336144056365L31.416666666666668,162.10385469271563L32.625,154.03423802881105L33.833333333333336,146.6735622437978L35.041666666666664,141.07025629792818L36.25,136.5773149047458L37.458333333333336,130.45465548425284L38.666666666666664,126.91563486982285L39.875,123.34658406506448L41.083333333333336,119.97916905163548L42.29166666666667,116.57480192654666L43.5,112.12519081092867L44.708333333333336,109.15695068684123L45.916666666666664,106.73108781602492L47.125,103.04145256446726L48.33333333333333,102.2123171357847L49.541666666666664,100.72363879432919L50.75,99.38990943806964L51.958333333333336,97.61420295524755L53.166666666666664,95.87224871362608L54.375,94.33934901404498L55.583333333333336,91.95640889008362L56.791666666666664,90.33784193938142L58,88.12376717335938L59.208333333333336,85.74119215033731L60.41666666666667,83.91831408812142L61.625,82.6515197648134L62.833333333333336,81.81278376707895L64.04166666666667,79.7519335068657L65.25,77.93329772747818L66.45833333333333,76.66904865111619L67.66666666666667,75.20249200711451L68.875,73.22122949053171L70.08333333333333,72.74046718543548L71.29166666666666,73.12854361744414L72.5,70.6867276089377L73.70833333333333,70.63764040648482L74.91666666666667,69.11351421578159L76.125,68.45077759673693L77.33333333333333,68.13179508991009L78.54166666666666,67.13801422836328L79.75,66.66760325542485L80.95833333333333,66.63709576673078L82.16666666666667,65.07691932525184L83.375,63.16535447599501L84.58333333333334,62.42747359054138L85.79166666666667,61.55995034084576L87,61.49570449812709L88.20833333333333,60.041154591778394L89.41666666666667,59.48309851678546L90.625,59.573059590214534L91.83333333333333,59.186504821511456L93.04166666666667,59.26923382552407L94.25,58.07593645416853L95.45833333333333,58.39836379307405L96.66666666666666,57.03422355741993L97.875,56.32587226921756L99.08333333333333,55.806453333861256L100.29166666666667,55.79373914712665L101.5,54.700506793940015L102.70833333333334,54.40643933027026L103.91666666666667,53.78946743930802L105.125,54.70941715792076L106.33333333333333,53.37337978693997L107.54166666666667,53.50003027288009L108.75,52.868013362295756L109.95833333333333,51.765071323041475L111.16666666666667,51.21343895267903L112.375,50.94539430422461L113.58333333333333,50.70590805063374L114.79166666666666,49.88568248500266L116,49.97567279666565L117.20833333333333,49.243000316996756L118.41666666666667,49.02366253557565L119.625,49.66300184263446L120.83333333333334,49.71620686729941L122.04166666666667,49.43345601328327L123.25,48.917670246967376L124.45833333333333,48.19914076308929L125.66666666666667,48.302950644377056L126.875,47.92470516038923L128.08333333333334,47.272951147991364L129.29166666666669,48.12483351431564L130.5,47.84929626744357L131.70833333333334,47.60531445480209L132.91666666666666,47.11279011331094L134.125,46.6914059608902L135.33333333333334,45.10124453682056L136.54166666666666,45.0596838965715L137.75,45.31794799256533L138.95833333333334,44.890768795539174L140.16666666666666,44.16245647589121L141.375,44.811072925248276L142.58333333333331,44.44504951686774L143.79166666666666,44.52436064273782L145,44.44607777073382L146.20833333333334,44.11590756738823L147.41666666666666,44.075148381578735L148.625,44.333893350236295L149.83333333333334,43.76540843852718L151.04166666666669,43.487240261684036L152.25,43.21020650238803L153.45833333333334,42.80799584967501L154.66666666666666,43.36906081546907L155.875,43.57984225100018L157.08333333333331,43.10843676336052L158.29166666666666,42.57386637930536L159.5,42.28458553396342L160.70833333333334,42.12675372109419L161.91666666666666,42.86591937946642L163.125,43.089153068109546L164.33333333333334,42.42068992029279L165.54166666666666,42.4129453649361L166.75,42.36110055229497L167.95833333333334,42.26705889094727L169.16666666666669,42.52530776295376L170.375,42.3341218322514L171.58333333333334,41.6844706986347L172.79166666666666,41.93975244685009L174,41.46358576172985L175.20833333333331,41.41388815137383L176.41666666666666,41.997668624873754L177.625,41.63992970682532L178.83333333333334,41.29942881205091L180.04166666666666,41.23672251346755L181.25,41.4980359087967L182.45833333333334,41.21429253323376L183.66666666666666,41.20137744051318L184.875,41.25656315864384L186.08333333333334,41.242476510095166L187.29166666666669,40.903613957814926L188.5,40.841902668308734L189.70833333333334,41.16673583926653L190.91666666666666,40.905379638325556L192.125,41.0789644773313L193.33333333333331,40.8684415119196L194.54166666666666,40.52186202629239L195.75,40.59711481505927L196.95833333333334,40.23319646065014L198.16666666666666,40.801512114671326L199.375,40.733443482995504L200.58333333333334,40.67686560965411L201.79166666666666,40.56424741755025L203,40.41801703776973L204.20833333333334,40.424674968755575L205.41666666666669,40.161205941539826L206.625,39.9559264457833L207.83333333333334,40.02155106603768L209.04166666666666,39.714802587864824L210.25,39.4992801122892L211.45833333333331,39.967828972321456L212.66666666666666,39.792702184825195L213.875,39.79775896551749L215.08333333333334,40.162652978594345L216.29166666666666,39.94105797368004L217.5,40.107038145210616L218.70833333333334,39.954887153076925L219.91666666666666,39.72200231951545L221.125,39.755339046331656L222.33333333333334,39.680932919986525L223.54166666666669,39.90376503356742L224.75,40.21051992508834L225.95833333333334,40.12710907419361L227.16666666666666,40.31306496437296L228.375,40.377440419053436L229.58333333333331,40.274459449999725L230.79166666666666,40.14974809838528L232,40.32664837888798L233.20833333333334,40.322655693999494L234.41666666666666,40.131455761777296L235.625,40.0010111116888L236.83333333333334,39.82833615920076L238.04166666666666,39.99220697709597L239.25,39.996121305398184L240.45833333333334,39.809677584671185L241.66666666666669,39.77647081675326L242.875,39.75654675600246L244.08333333333334,39.57152469259886L245.29166666666666,39.57064430774685L246.5,39.334125679700186L247.70833333333331,39.365270126244575L248.91666666666666,39.5884978097962L250.125,39.64376295182824L251.33333333333334,39.708395425719374L252.54166666666666,39.82583437457227L253.75,39.88057305312879L254.95833333333334,39.89767956592678L256.1666666666667,39.95514155303262L257.375,39.94242066586904L258.58333333333337,39.887590054143836L259.7916666666667,39.90188976653573L261,39.87899620529906L262.2083333333333,39.91247015156484L263.4166666666667,39.91681782498839" style="fill: none;" fill="none"></path></g></g></g></g><g opacity="0.2"><g><g><g><path stroke="rgb(187, 187, 187)" stroke-width="2px" d="M33.833333333333336,177.5428019205729L35.041666666666664,171.2966636657715L36.25,167.29253921508788L37.458333333333336,163.88626810709636L38.666666666666664,159.01680552164714L39.875,155.13066126505535L41.083333333333336,151.98399759928384L42.29166666666667,147.46067326863607L43.5,144.1487953186035L44.708333333333336,142.4495984395345L45.916666666666664,139.04332733154297L47.125,136.29000600179035L48.33333333333333,133.0882609049479L49.541666666666664,129.74493357340495L50.75,127.89626210530598L51.958333333333336,125.55985514322917L53.166666666666664,122.17718607584634L54.375,119.74640096028645L55.583333333333336,116.6469263712565L56.791666666666664,115.93106282552083L58,112.50905202229818L59.208333333333336,109.75573069254558L60.41666666666667,108.49706522623697L61.625,106.21572469075521L62.833333333333336,103.96586354573569L64.04166666666667,102.1880132039388L65.25,100.53599039713542L66.45833333333333,97.68826090494791L67.66666666666667,95.8632064819336L68.875,94.60454101562499L70.08333333333333,93.23574269612631L71.29166666666666,91.52865346272787L72.5,90.28574269612632L73.70833333333333,89.15293477376304L74.91666666666667,86.69067026774088L76.125,86.15573069254557L77.33333333333333,85.15667266845703L78.54166666666666,83.6541244506836L79.75,81.99426930745442L80.95833333333333,81.49080912272136L82.16666666666667,80.02760264078776L83.375,78.94986114501953L84.58333333333334,76.92812805175781L85.79166666666667,77.05398559570312L87,76.7L88.20833333333333,74.34000600179036L89.41666666666667,73.2229227701823L90.625,72.64080912272135L91.83333333333333,71.81481272379557L93.04166666666667,70.8865458170573L94.25,69.92679951985677L95.45833333333333,68.78612925211587L96.66666666666666,68.34559783935546L97.875,67.22854461669922L99.08333333333333,66.11932373046875L100.29166666666667,64.47519327799479L101.5,64.43588155110677L102.70833333333334,63.664921569824216L103.91666666666667,62.83106282552084L105.125,62.484939575195305L106.33333333333333,61.210519409179696L107.54166666666667,60.84867146809896L108.75,60.38452301025391L109.95833333333333,59.25174509684245L111.16666666666667,58.16614125569661L112.375,57.583997599283855L113.58333333333333,56.5770772298177L114.79166666666666,56.2624033610026L116,55.40492757161457L117.20833333333333,54.39800720214844L118.41666666666667,54.15412445068359L119.625,53.2101328531901L120.83333333333334,52.06946258544921L122.04166666666667,51.40080312093098L123.25,51.01533813476563L124.45833333333333,50.88948059082032L125.66666666666667,49.15880432128906L126.875,49.90614725748697L128.08333333333334,48.513731892903635L129.29166666666669,47.341612243652335L130.5,46.83025970458985L131.70833333333334,46.444794718424475L132.91666666666666,45.13892517089843L134.125,44.80852661132813L135.33333333333334,43.982530212402345L136.54166666666666,44.26572469075521L137.75,43.41614125569662L138.95833333333334,43.54986114501954L140.16666666666666,41.48092397054035L141.375,40.859468587239576L142.58333333333331,40.70999399820965L143.79166666666666,40.71785634358723L145,38.4679951985677L146.20833333333334,39.5142573038737L147.41666666666666,36.8867935180664L148.625,38.89280192057292L149.83333333333334,36.910410563151046L151.04166666666669,36.75307362874348L152.25,36.07652180989582L153.45833333333334,35.455066426595046L154.66666666666666,35.156147257486985L155.875,34.86506042480468L157.08333333333331,34.920126851399736L158.29166666666666,33.205205281575516L159.5,32.89053141276042L160.70833333333334,32.646678670247404L161.91666666666666,31.482391357421868L163.125,31.010410563151044L164.33333333333334,29.909052022298173L165.54166666666666,29.79105682373047L166.75,29.539341735839834L167.95833333333334,28.713345336914067L169.16666666666669,28.35932973225912L170.375,28.390809122721354L171.58333333333334,27.50974629720053L172.79166666666666,27.438925170898436L174,26.959052022298184L175.20833333333331,26.133055623372396L176.41666666666666,26.180259704589844L177.625,25.094655863444007L178.83333333333334,24.622675069173184L180.04166666666666,24.819323730468746L181.25,24.654124450683597L182.45833333333334,24.55185394287109L183.66666666666666,23.00213165283204L184.875,23.025718688964844L186.08333333333334,22.60094197591145L187.29166666666669,22.050277709960945L188.5,21.664812723795567L189.70833333333334,21.271455383300783L190.91666666666666,20.555591837565107L192.125,20.807336934407548L193.33333333333331,20.830923970540372L194.54166666666666,20.154402160644537L195.75,19.265476989746084L196.95833333333334,18.809190877278652L198.16666666666666,18.651853942871092L199.375,18.651853942871092L200.58333333333334,17.707862345377603L201.79166666666666,17.786545817057284L203,18.053985595703118L204.20833333333334,17.873061625162755L205.41666666666669,17.542663065592453L206.625,16.732391357421882L207.83333333333334,16.77959543863933L209.04166666666666,17.23588155110678L210.25,15.701853942871104L211.45833333333331,15.867053222656253L212.66666666666666,15.410797119140625L213.875,15.261322530110672L215.08333333333334,16.040144856770834L216.29166666666666,14.679208882649736L217.5,14.380259704589847L218.70833333333334,14.993852742513017L219.91666666666666,15.080398559570305L221.125,14.364535013834631L222.33333333333334,14.057723490397136L223.54166666666669,13.971207682291668L224.75,14.521871948242193L225.95833333333334,13.99479471842447L227.16666666666666,13.688013203938798L228.375,13.349722290039068L229.58333333333331,13.129456583658861L230.79166666666666,13.577880350748703L232,13.491334533691415L233.20833333333334,12.885603841145832L234.41666666666666,12.80692036946615L235.625,12.405730692545578L236.83333333333334,12.27987314860025L238.04166666666666,12.657475789388018L239.25,12.515863545735673L240.45833333333334,12.61027170817057L241.66666666666669,12.736129252115878L242.875,12.106811523437493L244.08333333333334,12.3270772298177L245.29166666666666,12.311322530110681L246.5,12.177602640787764L247.70833333333331,11.933719889322914L248.91666666666666,11.878653462727858L250.125,11.94947458902995L251.33333333333334,11.634800720214848L252.54166666666666,11.776412963867195L253.75,11.524667867024736L254.95833333333334,11.689867146809904L256.1666666666667,11.548254903157558L257.375,12.303460184733074L258.58333333333337,11.65838775634765L259.7916666666667,11.62693837483724L261,11.548254903157558L262.2083333333333,11.603321329752594L263.4166666666667,11.469601440429678" style="fill: none;" fill="none"></path></g><g><path stroke="rgb(0, 153, 136)" stroke-width="2px" d="M26.583333333333332,193.28399759928385L27.791666666666668,174.8759963989258L29,163.98066126505532L30.208333333333336,155.20932973225914L31.416666666666668,150.13532613118488L32.625,142.26865946451824L33.833333333333336,135.8179951985677L35.041666666666664,132.75L36.25,129.87865346272784L37.458333333333336,121.30398559570312L38.666666666666664,121.61865946451823L39.875,118.00000000000001L41.083333333333336,114.9320048014323L42.29166666666667,111.47065226236978L43.5,105.45265706380209L44.708333333333336,104.70534413655601L45.916666666666664,103.09266306559245L47.125,97.50733693440755L48.33333333333333,100.96865946451824L49.541666666666664,98.4906702677409L50.75,97.38934173583985L51.958333333333336,94.95066426595052L53.166666666666664,93.25932973225913L54.375,92.04000600179036L55.583333333333336,88.3820048014323L56.791666666666664,87.90999399820963L58,84.80265706380209L59.208333333333336,82.16733093261719L60.41666666666667,81.18399759928384L61.625,80.75132853190104L62.833333333333336,80.55467987060547L64.04166666666667,76.66065826416016L65.25,75.205344136556L66.45833333333333,74.77267506917319L67.66666666666667,73.00265706380209L68.875,70.24933573404948L70.08333333333333,72.01932373046876L71.29166666666666,73.71065826416016L72.5,67.02400360107423L73.70833333333333,70.56400960286459L74.91666666666667,66.82732493082682L76.125,67.45667266845703L77.33333333333333,67.65332132975261L78.54166666666666,65.64734293619792L79.75,65.9619867960612L80.95833333333333,66.59133453369141L82.16666666666667,62.73665466308594L83.375,60.29800720214844L84.58333333333334,61.32065226236979L85.79166666666667,60.2586654663086L87,61.39933573404947L88.20833333333333,57.85932973225911L89.41666666666667,58.646014404296885L90.625,59.708001200358076L91.83333333333333,58.60667266845702L93.04166666666667,59.39332733154297L94.25,56.28599039713542L95.45833333333333,58.88200480143229L96.66666666666666,54.988013203938806L97.875,55.26334533691407L99.08333333333333,55.02732493082683L100.29166666666667,55.77466786702473L101.5,53.060658264160146L102.70833333333334,53.96533813476562L103.91666666666667,52.864009602864584L105.125,56.08934173583984L106.33333333333333,51.36932373046875L107.54166666666667,53.69000600179037L108.75,51.91998799641927L109.95833333333333,50.11065826416016L111.16666666666667,50.38599039713542L112.375,50.54332733154296L113.58333333333333,50.3466786702474L114.79166666666666,48.65534413655598L116,50.11065826416016L117.20833333333333,48.143991597493496L118.41666666666667,48.694655863444005L119.625,50.622010803222665L120.83333333333334,49.796014404296876L122.04166666666667,49.009329732259104L123.25,48.143991597493496L124.45833333333333,47.12134653727213L125.66666666666667,48.4586654663086L126.875,47.35733693440755L128.08333333333334,46.29532012939454L129.29166666666669,49.40265706380209L130.5,47.43599039713541L131.70833333333334,47.23934173583985L132.91666666666666,46.37400360107422L134.125,46.059329732259116L135.33333333333334,42.71600240071614L136.54166666666666,44.99734293619791L137.75,45.70534413655599L138.95833333333334,44.25L140.16666666666666,43.069987996419265L141.375,45.78399759928386L142.58333333333331,43.89601440429688L143.79166666666666,44.64332733154296L145,44.32865346272786L146.20833333333334,43.620652262369795L147.41666666666666,44.014009602864576L148.625,44.722010803222666L149.83333333333334,42.91268107096355L151.04166666666669,43.069987996419265L152.25,42.79465586344401L153.45833333333334,42.20467987060546L154.66666666666666,44.21065826416016L155.875,43.89601440429688L157.08333333333331,42.401328531901044L158.29166666666666,41.772010803222656L159.5,41.85066426595051L160.70833333333334,41.890006001790354L161.91666666666666,43.974667867024735L163.125,43.42400360107421L164.33333333333334,41.41799519856771L165.54166666666666,42.401328531901044L166.75,42.28333333333334L167.95833333333334,42.12599639892578L169.16666666666669,42.91268107096355L170.375,42.04734293619792L171.58333333333334,40.70999399820965L172.79166666666666,42.32267506917318L174,40.74933573404949L175.20833333333331,41.33934173583985L176.41666666666666,42.87333933512371L177.625,41.10332132975261L178.83333333333334,40.78867746988933L180.04166666666666,41.14266306559245L181.25,41.890006001790354L182.45833333333334,40.78867746988933L183.66666666666666,41.18200480143229L184.875,41.33934173583985L186.08333333333334,41.22134653727213L187.29166666666669,40.39532012939454L188.5,40.74933573404949L189.70833333333334,41.65398559570313L190.91666666666666,40.513345336914064L192.125,41.33934173583985L193.33333333333331,40.55265706380208L194.54166666666666,40.00199279785156L195.75,40.70999399820965L196.95833333333334,39.68731892903645L198.16666666666666,41.65398559570313L199.375,40.63134053548176L200.58333333333334,40.59199879964192L201.79166666666666,40.39532012939454L203,40.19867146809896L204.20833333333334,40.43466186523438L205.41666666666669,39.766002400716154L206.625,39.648007202148435L207.83333333333334,40.119987996419276L209.04166666666666,39.25467987060547L210.25,39.17599639892579L211.45833333333331,40.670652262369785L212.66666666666666,39.53001200358074L213.875,39.805344136555995L215.08333333333334,40.70999399820965L216.29166666666666,39.608665466308594L217.5,40.356008402506504L218.70833333333334,39.72666066487629L219.91666666666666,39.37267506917317L221.125,39.805344136555995L222.33333333333334,39.56932373046875L223.54166666666669,40.2380132039388L224.75,40.670652262369785L225.95833333333334,40.00199279785156L227.16666666666666,40.59199879964192L228.375,40.47400360107422L229.58333333333331,40.119987996419276L230.79166666666666,39.96268107096354L232,40.59199879964192L233.20833333333334,40.31666666666666L234.41666666666666,39.84465586344402L235.625,39.805344136555995L236.83333333333334,39.56932373046875L238.04166666666666,40.2380132039388L239.25,40.00199279785156L240.45833333333334,39.53001200358074L241.66666666666669,39.72666066487629L242.875,39.72666066487629L244.08333333333334,39.29399159749349L245.29166666666666,39.56932373046875L246.5,38.979347737630206L247.70833333333331,39.41198679606119L248.91666666666666,39.9233393351237L250.125,39.72666066487629L251.33333333333334,39.805344136555995L252.54166666666666,40.00199279785156L253.75,39.96268107096354L254.95833333333334,39.9233393351237L256.1666666666667,40.0413345336914L257.375,39.9233393351237L258.58333333333337,39.805344136555995L259.7916666666667,39.9233393351237L261,39.84465586344402L262.2083333333333,39.96268107096354L263.4166666666667,39.9233393351237" style="fill: none;" fill="none"></path></g></g></g></g></g></g><g transform="translate(40, 177)" clip-path="url(#clip_1)"><clipPath id="clip_1"><rect width="290" height="23"></rect></clipPath><g><g><line x1="0" y1="0" x2="0" y2="5" style="visibility: inherit;" fill="rgb(0, 0, 0)" stroke="rgb(200, 195, 188)" stroke-width="1px"></line><line x1="24.166666666666664" y1="0" x2="24.166666666666664" y2="5" style="visibility: inherit;" fill="rgb(0, 0, 0)" stroke="rgb(200, 195, 188)" stroke-width="1px"></line><line x1="48.33333333333333" y1="0" x2="48.33333333333333" y2="5" style="visibility: inherit;" fill="rgb(0, 0, 0)" stroke="rgb(200, 195, 188)" stroke-width="1px"></line><line x1="72.5" y1="0" x2="72.5" y2="5" style="visibility: inherit;" fill="rgb(0, 0, 0)" stroke="rgb(200, 195, 188)" stroke-width="1px"></line><line x1="96.66666666666666" y1="0" x2="96.66666666666666" y2="5" style="visibility: inherit;" fill="rgb(0, 0, 0)" stroke="rgb(200, 195, 188)" stroke-width="1px"></line><line x1="120.83333333333334" y1="0" x2="120.83333333333334" y2="5" style="visibility: inherit;" fill="rgb(0, 0, 0)" stroke="rgb(200, 195, 188)" stroke-width="1px"></line><line x1="145" y1="0" x2="145" y2="5" style="visibility: inherit;" fill="rgb(0, 0, 0)" stroke="rgb(200, 195, 188)" stroke-width="1px"></line><line x1="169.16666666666669" y1="0" x2="169.16666666666669" y2="5" style="visibility: inherit;" fill="rgb(0, 0, 0)" stroke="rgb(200, 195, 188)" stroke-width="1px"></line><line x1="193.33333333333331" y1="0" x2="193.33333333333331" y2="5" style="visibility: inherit;" fill="rgb(0, 0, 0)" stroke="rgb(200, 195, 188)" stroke-width="1px"></line><line x1="217.5" y1="0" x2="217.5" y2="5" style="visibility: inherit;" fill="rgb(0, 0, 0)" stroke="rgb(200, 195, 188)" stroke-width="1px"></line><line x1="241.66666666666669" y1="0" x2="241.66666666666669" y2="5" style="visibility: inherit;" fill="rgb(0, 0, 0)" stroke="rgb(200, 195, 188)" stroke-width="1px"></line><line x1="265.8333333333333" y1="0" x2="265.8333333333333" y2="5" style="visibility: inherit;" fill="rgb(0, 0, 0)" stroke="rgb(200, 195, 188)" stroke-width="1px"></line><line x1="290" y1="0" x2="290" y2="5" style="visibility: inherit;" fill="rgb(0, 0, 0)" stroke="rgb(200, 195, 188)" stroke-width="1px"></line></g><g transform="translate(0, 8)"><text x="0" y="0" dx="0em" dy="0.95em" style="text-anchor: middle; visibility: hidden; font-family: Roboto, sans-serif; font-size: 12px; font-weight: 200;" fill="rgb(211, 207, 202)" stroke="none" stroke-width="1px">-20</text><text x="24.166666666666664" y="0" dx="0em" dy="0.95em" style="text-anchor: middle; visibility: inherit; font-family: Roboto, sans-serif; font-size: 12px; font-weight: 200;" fill="rgb(211, 207, 202)" stroke="none" stroke-width="1px">0</text><text x="48.33333333333333" y="0" dx="0em" dy="0.95em" style="text-anchor: middle; visibility: hidden; font-family: Roboto, sans-serif; font-size: 12px; font-weight: 200;" fill="rgb(211, 207, 202)" stroke="none" stroke-width="1px">20</text><text x="72.5" y="0" dx="0em" dy="0.95em" style="text-anchor: middle; visibility: inherit; font-family: Roboto, sans-serif; font-size: 12px; font-weight: 200;" fill="rgb(211, 207, 202)" stroke="none" stroke-width="1px">40</text><text x="96.66666666666666" y="0" dx="0em" dy="0.95em" style="text-anchor: middle; visibility: hidden; font-family: Roboto, sans-serif; font-size: 12px; font-weight: 200;" fill="rgb(211, 207, 202)" stroke="none" stroke-width="1px">60</text><text x="120.83333333333334" y="0" dx="0em" dy="0.95em" style="text-anchor: middle; visibility: inherit; font-family: Roboto, sans-serif; font-size: 12px; font-weight: 200;" fill="rgb(211, 207, 202)" stroke="none" stroke-width="1px">80</text><text x="145" y="0" dx="0em" dy="0.95em" style="text-anchor: middle; visibility: hidden; font-family: Roboto, sans-serif; font-size: 12px; font-weight: 200;" fill="rgb(211, 207, 202)" stroke="none" stroke-width="1px">100</text><text x="169.16666666666669" y="0" dx="0em" dy="0.95em" style="text-anchor: middle; visibility: inherit; font-family: Roboto, sans-serif; font-size: 12px; font-weight: 200;" fill="rgb(211, 207, 202)" stroke="none" stroke-width="1px">120</text><text x="193.33333333333331" y="0" dx="0em" dy="0.95em" style="text-anchor: middle; visibility: hidden; font-family: Roboto, sans-serif; font-size: 12px; font-weight: 200;" fill="rgb(211, 207, 202)" stroke="none" stroke-width="1px">140</text><text x="217.5" y="0" dx="0em" dy="0.95em" style="text-anchor: middle; visibility: inherit; font-family: Roboto, sans-serif; font-size: 12px; font-weight: 200;" fill="rgb(211, 207, 202)" stroke="none" stroke-width="1px">160</text><text x="241.66666666666669" y="0" dx="0em" dy="0.95em" style="text-anchor: middle; visibility: hidden; font-family: Roboto, sans-serif; font-size: 12px; font-weight: 200;" fill="rgb(211, 207, 202)" stroke="none" stroke-width="1px">180</text><text x="265.8333333333333" y="0" dx="0em" dy="0.95em" style="text-anchor: middle; visibility: inherit; font-family: Roboto, sans-serif; font-size: 12px; font-weight: 200;" fill="rgb(211, 207, 202)" stroke="none" stroke-width="1px">200</text><text x="290" y="0" dx="0em" dy="0.95em" style="text-anchor: middle; visibility: hidden; font-family: Roboto, sans-serif; font-size: 12px; font-weight: 200;" fill="rgb(211, 207, 202)" stroke="none" stroke-width="1px">220</text></g><line x1="0" y1="0" x2="290" y2="0" fill="rgb(0, 0, 0)" stroke="rgb(200, 195, 188)" stroke-width="1px"></line></g></g></g></g></svg>