<svg viewBox="0 0 330 200" xmlns="http://www.w3.org/2000/svg"><g><g><g><g><g><line x1="30" y1="177" x2="25" y2="177" style="visibility: inherit;" fill="rgb(0, 0, 0)" stroke="rgb(200, 195, 188)" stroke-width="1px"></line><line x1="30" y1="163.3846153846154" x2="25" y2="163.3846153846154" style="visibility: inherit;" fill="rgb(0, 0, 0)" stroke="rgb(200, 195, 188)" stroke-width="1px"></line><line x1="30" y1="149.76923076923077" x2="25" y2="149.76923076923077" style="visibility: inherit;" fill="rgb(0, 0, 0)" stroke="rgb(200, 195, 188)" stroke-width="1px"></line><line x1="30" y1="136.15384615384613" x2="25" y2="136.15384615384613" style="visibility: inherit;" fill="rgb(0, 0, 0)" stroke="rgb(200, 195, 188)" stroke-width="1px"></line><line x1="30" y1="122.53846153846153" x2="25" y2="122.53846153846153" style="visibility: inherit;" fill="rgb(0, 0, 0)" stroke="rgb(200, 195, 188)" stroke-width="1px"></line><line x1="30" y1="108.92307692307693" x2="25" y2="108.92307692307693" style="visibility: inherit;" fill="rgb(0, 0, 0)" stroke="rgb(200, 195, 188)" stroke-width="1px"></line><line x1="30" y1="95.3076923076923" x2="25" y2="95.3076923076923" style="visibility: inherit;" fill="rgb(0, 0, 0)" stroke="rgb(200, 195, 188)" stroke-width="1px"></line><line x1="30" y1="81.6923076923077" x2="25" y2="81.6923076923077" style="visibility: inherit;" fill="rgb(0, 0, 0)" stroke="rgb(200, 195, 188)" stroke-width="1px"></line><line x1="30" y1="68.07692307692307" x2="25" y2="68.07692307692307" style="visibility: inherit;" fill="rgb(0, 0, 0)" stroke="rgb(200, 195, 188)" stroke-width="1px"></line><line x1="30" y1="54.46153846153847" x2="25" y2="54.46153846153847" style="visibility: inherit;" fill="rgb(0, 0, 0)" stroke="rgb(200, 195, 188)" stroke-width="1px"></line><line x1="30" y1="40.84615384615384" x2="25" y2="40.84615384615384" style="visibility: inherit;" fill="rgb(0, 0, 0)" stroke="rgb(200, 195, 188)" stroke-width="1px"></line><line x1="30" y1="27.230769230769234" x2="25" y2="27.230769230769234" style="visibility: inherit;" fill="rgb(0, 0, 0)" stroke="rgb(200, 195, 188)" stroke-width="1px"></line><line x1="30" y1="13.615384615384606" x2="25" y2="13.615384615384606" style="visibility: inherit;" fill="rgb(0, 0, 0)" stroke="rgb(200, 195, 188)" stroke-width="1px"></line><line x1="30" y1="0" x2="25" y2="0" style="visibility: inherit;" fill="rgb(0, 0, 0)" stroke="rgb(200, 195, 188)" stroke-width="1px"></line></g><g transform="translate(20, 0)"><text x="0" y="177" dx="0em" dy="0.3em" style="text-anchor: end; visibility: hidden; font-family: Roboto, sans-serif; font-size: 12px; font-weight: 200;" fill="rgb(211, 207, 202)" stroke="none" stroke-width="1px">25</text><text x="0" y="163.3846153846154" dx="0em" dy="0.3em" style="text-anchor: end; visibility: inherit; font-family: Roboto, sans-serif; font-size: 12px; font-weight: 200;" fill="rgb(211, 207, 202)" stroke="none" stroke-width="1px">30</text><text x="0" y="149.76923076923077" dx="0em" dy="0.3em" style="text-anchor: end; visibility: hidden; font-family: Roboto, sans-serif; font-size: 12px; font-weight: 200;" fill="rgb(211, 207, 202)" stroke="none" stroke-width="1px">35</text><text x="0" y="136.15384615384613" dx="0em" dy="0.3em" style="text-anchor: end; visibility: inherit; font-family: Roboto, sans-serif; font-size: 12px; font-weight: 200;" fill="rgb(211, 207, 202)" stroke="none" stroke-width="1px">40</text><text x="0" y="122.53846153846153" dx="0em" dy="0.3em" style="text-anchor: end; visibility: hidden; font-family: Roboto, sans-serif; font-size: 12px; font-weight: 200;" fill="rgb(211, 207, 202)" stroke="none" stroke-width="1px">45</text><text x="0" y="108.92307692307693" dx="0em" dy="0.3em" style="text-anchor: end; visibility: inherit; font-family: Roboto, sans-serif; font-size: 12px; font-weight: 200;" fill="rgb(211, 207, 202)" stroke="none" stroke-width="1px">50</text><text x="0" y="95.3076923076923" dx="0em" dy="0.3em" style="text-anchor: end; visibility: hidden; font-family: Roboto, sans-serif; font-size: 12px; font-weight: 200;" fill="rgb(211, 207, 202)" stroke="none" stroke-width="1px">55</text><text x="0" y="81.6923076923077" dx="0em" dy="0.3em" style="text-anchor: end; visibility: inherit; font-family: Roboto, sans-serif; font-size: 12px; font-weight: 200;" fill="rgb(211, 207, 202)" stroke="none" stroke-width="1px">60</text><text x="0" y="68.07692307692307" dx="0em" dy="0.3em" style="text-anchor: end; visibility: hidden; font-family: Roboto, sans-serif; font-size: 12px; font-weight: 200;" fill="rgb(211, 207, 202)" stroke="none" stroke-width="1px">65</text><text x="0" y="54.46153846153847" dx="0em" dy="0.3em" style="text-anchor: end; visibility: inherit; font-family: Roboto, sans-serif; font-size: 12px; font-weight: 200;" fill="rgb(211, 207, 202)" stroke="none" stroke-width="1px">70</text><text x="0" y="40.84615384615384" dx="0em" dy="0.3em" style="text-anchor: end; visibility: hidden; font-family: Roboto, sans-serif; font-size: 12px; font-weight: 200;" fill="rgb(211, 207, 202)" stroke="none" stroke-width="1px">75</text><text x="0" y="27.230769230769234" dx="0em" dy="0.3em" style="text-anchor: end; visibility: inherit; font-family: Roboto, sans-serif; font-size: 12px; font-weight: 200;" fill="rgb(211, 207, 202)" stroke="none" stroke-width="1px">80</text><text x="0" y="13.615384615384606" dx="0em" dy="0.3em" style="text-anchor: end; visibility: hidden; font-family: Roboto, sans-serif; font-size: 12px; font-weight: 200;" fill="rgb(211, 207, 202)" stroke="none" stroke-width="1px">85</text><text x="0" y="0" dx="0em" dy="0.3em" style="text-anchor: end; visibility: hidden; font-family: Roboto, sans-serif; font-size: 12px; font-weight: 200;" fill="rgb(211, 207, 202)" stroke="none" stroke-width="1px">90</text></g><line x1="30" y1="0" x2="30" y2="177" fill="rgb(0, 0, 0)" stroke="rgb(200, 195, 188)" stroke-width="1px"></line></g></g><g transform="translate(30, 0)" clip-path="url(#clip_0)"><clipPath id="clip_0"><rect width="300" height="177"></rect></clipPath><g><g><g><line x1="0" y1="0" x2="0" y2="177" fill="rgb(0, 0, 0)" stroke="rgb(194, 189, 181)" stroke-width="1px" opacity="0.25"></line><line x1="25" y1="0" x2="25" y2="177" fill="rgb(0, 0, 0)" stroke="rgb(194, 189, 181)" stroke-width="1px" opacity="0.25"></line><line x1="50" y1="0" x2="50" y2="177" fill="rgb(0, 0, 0)" stroke="rgb(194, 189, 181)" stroke-width="1px" opacity="0.25"></line><line x1="75" y1="0" x2="75" y2="177" fill="rgb(0, 0, 0)" stroke="rgb(194, 189, 181)" stroke-width="1px" opacity="0.25"></line><line x1="100" y1="0" x2="100" y2="177" fill="rgb(0, 0, 0)" stroke="rgb(194, 189, 181)" stroke-width="1px" opacity="0.25"></line><line x1="125" y1="0" x2="125" y2="177" fill="rgb(0, 0, 0)" stroke="rgb(194, 189, 181)" stroke-width="1px" opacity="0.25"></line><line x1="150" y1="0" x2="150" y2="177" fill="rgb(0, 0, 0)" stroke="rgb(194, 189, 181)" stroke-width="1px" opacity="0.25"></line><line x1="175" y1="0" x2="175" y2="177" fill="rgb(0, 0, 0)" stroke="rgb(194, 189, 181)" stroke-width="1px" opacity="0.25"></line><line x1="200" y1="0" x2="200" y2="177" fill="rgb(0, 0, 0)" stroke="rgb(194, 189, 181)" stroke-width="1px" opacity="0.25"></line><line x1="225" y1="0" x2="225" y2="177" fill="rgb(0, 0, 0)" stroke="rgb(194, 189, 181)" stroke-width="1px" opacity="0.25"></line><line x1="250" y1="0" x2="250" y2="177" fill="rgb(0, 0, 0)" stroke="rgb(194, 189, 181)" stroke-width="1px" opacity="0.25"></line><line x1="275" y1="0" x2="275" y2="177" fill="rgb(0, 0, 0)" stroke="rgb(194, 189, 181)" stroke-width="1px" opacity="0.25"></line><line x1="300" y1="0" x2="300" y2="177" fill="rgb(0, 0, 0)" stroke="rgb(194, 189, 181)" stroke-width="1px" opacity="0.25"></line></g><g><line x1="0" y1="177" x2="300" y2="177" fill="rgb(0, 0, 0)" stroke="rgb(194, 189, 181)" stroke-width="1px" opacity="0.25"></line><line x1="0" y1="163.3846153846154" x2="300" y2="163.3846153846154" fill="rgb(0, 0, 0)" stroke="rgb(194, 189, 181)" stroke-width="1px" opacity="0.25"></line><line x1="0" y1="149.76923076923077" x2="300" y2="149.76923076923077" fill="rgb(0, 0, 0)" stroke="rgb(194, 189, 181)" stroke-width="1px" opacity="0.25"></line><line x1="0" y1="136.15384615384613" x2="300" y2="136.15384615384613" fill="rgb(0, 0, 0)" stroke="rgb(194, 189, 181)" stroke-width="1px" opacity="0.25"></line><line x1="0" y1="122.53846153846153" x2="300" y2="122.53846153846153" fill="rgb(0, 0, 0)" stroke="rgb(194, 189, 181)" stroke-width="1px" opacity="0.25"></line><line x1="0" y1="108.92307692307693" x2="300" y2="108.92307692307693" fill="rgb(0, 0, 0)" stroke="rgb(194, 189, 181)" stroke-width="1px" opacity="0.25"></line><line x1="0" y1="95.3076923076923" x2="300" y2="95.3076923076923" fill="rgb(0, 0, 0)" stroke="rgb(194, 189, 181)" stroke-width="1px" opacity="0.25"></line><line x1="0" y1="81.6923076923077" x2="300" y2="81.6923076923077" fill="rgb(0, 0, 0)" stroke="rgb(194, 189, 181)" stroke-width="1px" opacity="0.25"></line><line x1="0" y1="68.07692307692307" x2="300" y2="68.07692307692307" fill="rgb(0, 0, 0)" stroke="rgb(194, 189, 181)" stroke-width="1px" opacity="0.25"></line><line x1="0" y1="54.46153846153847" x2="300" y2="54.46153846153847" fill="rgb(0, 0, 0)" stroke="rgb(194, 189, 181)" stroke-width="1px" opacity="0.25"></line><line x1="0" y1="40.84615384615384" x2="300" y2="40.84615384615384" fill="rgb(0, 0, 0)" stroke="rgb(194, 189, 181)" stroke-width="1px" opacity="0.25"></line><line x1="0" y1="27.230769230769234" x2="300" y2="27.230769230769234" fill="rgb(0, 0, 0)" stroke="rgb(194, 189, 181)" stroke-width="1px" opacity="0.25"></line><line x1="0" y1="13.615384615384606" x2="300" y2="13.615384615384606" fill="rgb(0, 0, 0)" stroke="rgb(194, 189, 181)" stroke-width="1px" opacity="0.25"></line><line x1="0" y1="0" x2="300" y2="0" fill="rgb(0, 0, 0)" stroke="rgb(194, 189, 181)" stroke-width="1px" opacity="0.25"></line></g></g></g><g><g><line x1="0" y1="245.07692307692307" x2="300" y2="245.07692307692307" fill="rgb(0, 0, 0)" stroke="rgb(168, 160, 149)" stroke-width="1.5px"></line></g></g><g><g><line x1="25" y1="0" x2="25" y2="177" fill="rgb(0, 0, 0)" stroke="rgb(168, 160, 149)" stroke-width="1.5px"></line></g></g><g><g><g><g><g><path stroke="rgb(238, 51, 119)" stroke-width="2px" d="M36.25,177.14101053703826L37.5,174.56567445569087L38.75000000000001,171.59209488160533L40,169.19914662467374L41.25,166.69273663725102L42.5,164.43604455440286L43.75,162.45295649585364L45,160.38757311959284L46.25,158.47099471316827L47.5,156.68066416622196L48.75,154.62183577547233L50,152.50429329880362L51.25,150.34714876878235L52.5,148.4646941196406L53.75,147.12609608339847L54.99999999999999,145.31866673265677L56.25,143.41511067186977L57.50000000000001,141.31663531435944L58.75,139.6632460705896L60,137.9436075499827L61.25,136.34760563974538L62.5,134.49683570258082L63.75,132.48231029254435L65,130.88583007371312L66.25,129.20033661428835L67.5,127.8187019354317L68.75,126.74573035711052L70,124.77744322574812L71.25,123.65529034722262L72.5,122.45263240126714L73.75,121.22563379327421L75,119.98838947250076L76.25,118.89966663163186L77.50000000000001,117.32058843536662L78.75,116.75437062516187L80,115.1707402619893L81.25,114.14649348762099L82.5,113.42737853789573L83.75,112.18769970571742L85,110.63350527920129L86.25,109.98200953019578L87.5,109.40158615963357L88.75,108.21244668150383L90,107.48153656546653L91.24999999999999,106.62908164011287L92.5,105.37257689966938L93.75,104.86266068400964L95,103.74414240743828L96.25000000000001,102.93797038286432L97.5,101.8007262135301L98.75,100.57158706244041L100,100.00838032866014L101.25,99.59203320207891L102.5,98.60154767064637L103.75,97.25132993201525L105,96.5348715394375L106.25,95.91329331785569L107.5,95.03058385861456L108.75,94.6251329173322L109.99999999999999,93.58454296967518L111.25,92.80334282845475L112.5,92.325905374056L113.75,91.29658838105922L115.00000000000001,90.29994634293841L116.25,89.52550709831866L117.5,88.58157935383042L118.75,87.81044762168828L120,87.27152276096369L121.25,86.17263773072185L122.5,85.3542791199911L123.75,84.80226729640121L125,83.94387124679356L126.25,83.14998997501424L127.5,82.39264030505811L128.75,81.88812432538764L130,81.06258446696486L131.25,80.28623964502268L132.5,79.65922789439793L133.75,78.9017875817409L135,78.25562020811155L136.25,77.49104520648503L137.5,76.55739469262598L138.75,75.7270781119623L140,74.86726275040304L141.25,74.05074477745788L142.5,73.53251292998885L143.75,72.66606795743743L145,72.03509813905829L146.25,71.29489498995541L147.5,70.70045872248885L148.75,69.57697590769702L150,68.6480049556759L151.25,68.05576952613993L152.5,67.1013480212729L153.75,66.84457303865018L155.00000000000003,65.77991272155248L156.25,65.41342422360157L157.5,64.61841741163994L158.75,63.967140722675055L160,63.30188144194337L161.25,62.22304527517203L162.5,61.65635223646738L163.74999999999997,60.830540420906864L165,60.08888112791972L166.25,59.33890226637024L167.5,58.801774493460954L168.75,57.89567505702911L170,57.07316759806965L171.25,56.24635877323478L172.5,55.42350923366741L173.75000000000003,54.57688315626114L175,53.79006802288829L176.25,53.02606755652143L177.5,52.12761877722716L178.75,51.795497704887985L180,50.953582896520544L181.25,50.032343735808965L182.49999999999997,49.351075130457716L183.75,48.42819691120735L185,47.75465393022803L186.25,47.28735421961519L187.5,46.83705632120723L188.75,45.98086923443107L190,45.24930584241644L191.25,44.73848482568726L192.50000000000003,43.58457081015091L193.75,42.87478766149619L195,42.5883458259392L196.25,41.63441050600522L197.5,40.811522580646404L198.75,40.25461590340587L200,39.58281301785483L201.24999999999997,38.961888456746536L202.5,37.92490228603712L203.75,37.22646476217216L205,36.79650761331291L206.25,36.40564537515423L207.5,35.643939076805275L208.75,34.8318299894275L210,34.12235886730433L211.25000000000003,33.87313437086335L212.5,33.08531203778241L213.75,32.527655446828106L215,31.99482235651332L216.25,31.524808124319662L217.5,30.933453459327364L218.75,30.262771050205792L219.99999999999997,29.799364947581402L221.25,29.153155768053026L222.5,28.90267273892681L223.75,28.07052505824491L225,27.412213012335787L226.25,26.862548566866632L227.5,26.72227997583212L228.75,26.039038574065984L230.00000000000003,25.6988077598242L231.25,25.647160914157734L232.5,25.03888182869295L233.75,24.73055650481793L235,24.127293769928006L236.25,23.693444837302334L237.5,23.45274748193369L238.74999999999997,23.11008162279904L240,22.78902889780801L241.25,22.184669827041187L242.5,21.878688201813638L243.75,21.48815103143973L245,21.24075682980132L246.25,20.780796918268386L247.5,20.674739043388904L248.75000000000003,20.635070852415545L250,20.262716424084555L251.25,20.18307804029807L252.5,20.0459855993441L253.75,19.691422442464052L255,19.56146216439668L256.25,19.24821673861697L257.5,19.038480214068603L258.75,19.03463161364246L260,18.80793951881648L261.25,18.878880767329566L262.5,18.49229165150351L263.75,18.19715594981137L265,18.29892232589644L266.25,18.710712930168242L267.5,18.62012841352461L268.75,18.69648007733655L270,18.61594323157322L271.25,18.4979070972973L272.5,18.48372754413558" style="fill: none;" fill="none"></path></g><g><path stroke="rgb(51, 187, 238)" stroke-width="2px" d="M30,179.85359862093446L31.25,174.61171597556066L32.5,169.3864151452541L33.75,163.66548347765809L35,159.63485374501448L36.25,156.04814621300847L37.5,152.9261775329772L38.75000000000001,150.3288822128154L40,147.0181725474258L41.25,144.23875473431943L42.5,142.60519378669778L43.75,140.49242826235795L45,137.68907524969984L46.25,135.46269646057377L47.5,132.88521582462906L48.75,130.45651728838098L50,129.44594924409856L51.25,127.05326129661917L52.5,126.05336609434997L53.75,124.71275326164447L54.99999999999999,122.48149176729211L56.25,121.36058628702477L57.50000000000001,119.4245354032906L58.75,119.11250533333624L60,116.4418416747373L61.25,115.79796440651833L62.5,114.11545484520227L63.75,112.98613319228005L65,111.6550034273373L66.25,109.71263409960939L67.5,107.76296504163406L68.75,106.89814691720217L70,105.33359550053966L71.25,103.6324022844291L72.5,103.60288619481045L73.75,103.12770161183398L75,101.50283751383654L76.25,101.90034799752564L77.50000000000001,99.79701062614575L78.75,99.5262080376748L80,98.44877247216988L81.25,98.05283371126701L82.5,96.90031644234959L83.75,96.55735959478153L85,94.72862981183228L86.25,93.18480749289367L87.5,92.9338401701265L88.75,91.93365695100627L90,90.99588814032867L91.24999999999999,89.73611567134283L92.5,89.92788595084518L93.75,89.92313206911739L95,89.78957321119697L96.25000000000001,89.52426650503091L97.5,87.2955465128441L98.75,86.78612807390986L100,85.94675210538857L101.25,84.33211479613576L102.5,83.4940389394678L103.75,83.62294511097635L105,83.24281388524565L106.25,82.54636558663115L107.5,82.56419057718902L108.75,82.33525347266557L109.99999999999999,81.25026160414474L111.25,81.53600145429874L112.5,80.40037176538272L113.75,79.45757673918006L115.00000000000001,79.52365556405339L116.25,78.80084048949875L117.5,78.24733539533688L118.75,78.78661612320722L120,78.94680243759619L121.25,77.75762158613044L122.5,76.61930958497905L123.75,76.5027228828985L125,76.44366549619043L126.25,76.29930549419113L127.5,75.35220034316431L128.75,74.79482773200287L130,74.66735651562901L131.25,74.28589050004747L132.5,73.8173787918404L133.75,73.9283955086529L135,73.54842108955923L136.25,72.9827775588963L137.5,71.70664815906073L138.75,72.4332196646672L140,71.15907059274562L141.25,70.87384534730904L142.5,70.64824533751704L143.75,70.4475341447428L145,69.30322784674652L146.25,70.15245928636071L147.5,69.13707756625756L148.75,68.60409435563493L150,68.56750675610931L151.25,67.89200908671846L152.5,68.41256328706712L153.75,68.85559818107441L155.00000000000003,68.90357628770113L156.25,68.98681970403594L157.5,68.13271053110545L158.75,67.81630689821556L160,66.7550767790285L161.25,67.07685879277768L162.5,66.93226912182048L163.74999999999997,67.03068255557424L165,66.45797477523156L166.25,66.31041197789438L167.5,66.15652311259299L168.75,65.08388043907023L170,65.02848044756175L171.25,64.67936253235915L172.5,64.73131315117628L173.75000000000003,63.98912236336202L175,64.01217745384953L176.25,63.917089093253225L177.5,63.77289562091586L178.75,63.83887949056334L180,63.35563538664571L181.25,63.544953122011464L182.49999999999997,63.74567590903923L183.75,63.343283465720994L185,63.0582777717403L186.25,62.985301135700446L187.5,62.82170741481872L188.75,62.38588399291166L190,62.004573890338364L191.25,62.22237643306117L192.50000000000003,61.78665330499895L193.75,61.43808728235336L195,61.414114905094124L196.25,61.32348565729924L197.5,61.49784557294024L198.75,61.67870734376415L200,61.28617924963288L201.24999999999997,60.7892493353867L202.5,60.94856631547478L203.75,60.662927396331156L205,60.731167833531856L206.25,60.47802344463533L207.5,60.533093316706065L208.75,60.10865200114142L210,59.17866945338917L211.25000000000003,59.600989279079776L212.5,59.701889531615535L213.75,59.185130394900824L215,58.60276722056427L216.25,58.93957001908734L217.5,58.618817272495086L218.75,58.85116495972601L219.99999999999997,58.71826587975689L221.25,58.6058508383259L222.5,58.53840181346729L223.75,58.77024009085982L225,58.386516941760505L226.25,58.483047296967364L227.5,58.323122680313844L228.75,58.21627327578146L230.00000000000003,58.021452949092655L231.25,57.64314769531197L232.5,58.03702574909824L233.75,57.81587765273419L235,57.944601852683185L236.25,57.89113399885452L237.5,57.5867455942496L238.74999999999997,57.414998875855645L240,57.464442487697866L241.25,57.428757467904184L242.5,57.222179219699825L243.75,57.23982927911558L245,57.25041931476502L246.25,57.049816830746025L247.5,56.95124460941515L248.75000000000003,56.968347098055936L250,56.78254672037201L251.25,56.68196112830195L252.5,56.588934179610355L253.75,56.6638203841935L255,56.45823368371622L256.25,56.69432150154583L257.5,56.639912321375256L258.75,56.53102099183355L260,56.34587014467948L261.25,56.45263077633594L262.5,56.527581789870055L263.75,56.48541194201096L265,56.623496310714394L266.25,56.662776703946655L267.5,56.56652889045694L268.75,56.62859625179219L270,56.633161075143846L271.25,56.592329741165024L272.5,56.57871726514677" style="fill: none;" fill="none"></path></g></g></g></g><g opacity="0.2"><g><g><g><path stroke="rgb(238, 51, 119)" stroke-width="2px" d="M33.75,177.64809467609112L35,175.5023097698505L36.25,172.1420296889085L37.5,170.7260284423828L38.75000000000001,167.147907609206L40,165.61753763052133L41.25,162.93803197420561L42.5,161.053659086961L43.75,159.47972303537222L45,157.29037205622748L46.25,155.5966137225811L47.5,153.99544108464167L48.75,151.5337813744178L50,149.32809571486254L51.25,147.11150295551008L52.5,145.64104931171124L53.75,145.11821488600512L54.99999999999999,142.6075355529785L56.25,140.55978469848634L57.50000000000001,138.16892764751728L58.75,137.18316474327673L60,135.36415135310247L61.25,133.95360365647537L62.5,131.72068141056943L63.75,129.4605225783128L65,128.49110993605393L66.25,126.67209654587967L67.5,125.74624997652492L68.75,125.13627301729643L70,121.82501255915716L71.25,121.97206103985127L72.5,120.64864548903243L73.75,119.38513588538535L75,118.13252299382137L76.25,117.26658237163838L77.50000000000001,114.9519711421086L78.75,115.90504391009992L80,112.79529471764197L81.25,112.6101233262282L82.5,112.34870611337516L83.75,110.32818145751953L85,108.3022136394794L86.25,109.00476590670071L87.5,108.53095110379734L88.75,106.42873746431789L90,106.38517139141378L91.24999999999999,105.35039925208457L92.5,103.48781978900615L93.75,104.09778636052059L95,102.06636499258188L96.25000000000001,101.7287123460036L97.5,100.094859959529L98.75,98.72787833580605L100,99.16357022798977L101.25,98.96751251220702L102.5,97.11581937349759L103.75,95.2260033240685L105,95.46018395057091L106.25,94.98092598548303L107.5,93.70651966975285L108.75,94.01695650540867L109.99999999999999,92.0236580481896L111.25,91.6315426166241L112.5,91.60974919245794L113.75,89.75261289156398L115.00000000000001,88.80498328575722L116.25,88.36384823138899L117.5,87.1656877370981L118.75,86.65375002347507L120,86.4631354698768L121.25,84.52431018535907L122.5,84.12674120389498L123.75,83.97424956101638L125,82.65627717238206L126.25,81.95916806734525L127.5,81.25661580012395L128.75,81.1313503558819L130,79.82427467933068L131.25,79.12172241210938L132.5,78.71871026846078L133.75,77.76562711275541L135,77.28636914766753L136.25,76.34418270404522L137.5,75.15691892183743L138.75,74.4816032409668L140,73.57753970806415L141.25,72.82596781804013L142.5,72.7551651587853L143.75,71.36640049861028L145,71.08864341148963L146.25,70.18459026630109L147.5,69.80880432128906L148.75,67.8917516855093L150,67.25454852764422L151.25,67.16741638183593L152.5,65.66971576397236L153.75,66.45941056471605L155.00000000000003,64.18292224590596L156.25,64.86369147667519L157.5,63.42590719369741L158.75,62.99022568922777L160,62.303992520845846L161.25,60.604791025015025L162.5,60.80631267841045L163.74999999999997,59.59182269756611L165,58.976392188439L166.25,58.21393397404598L167.5,57.99608283409705L168.75,56.5365259023813L170,55.839406409630406L171.25,55.00614553598257L172.5,54.1892349243164L173.75000000000003,53.30694404015175L175,52.60984532282903L176.25,51.88006685697115L177.5,50.779945608285765L178.75,51.29731609637921L180,49.69071068396935L181.25,48.650484994741596L182.49999999999997,48.3291722224309L183.75,47.04387958233173L185,46.744339458759015L186.25,46.58640465369591L187.5,46.16160947359526L188.75,44.696588604266836L190,44.15196075439452L191.25,43.972253300593444L192.50000000000003,41.85369978684645L193.75,41.810112938514116L195,42.15868307260366L196.25,40.20350752610426L197.5,39.57719069260818L198.75,39.41925588754508L200,38.57510868952825L201.24999999999997,38.03050161508413L202.5,36.36942302997295L203.75,36.1788084763747L205,36.15157189002404L206.25,35.81935201791617L207.5,34.50137962928185L208.75,33.61366635836089L210,33.058152184119585L211.25000000000003,33.49929762620192L212.5,31.903578538161053L213.75,31.691170560396635L215,31.195572721041167L216.25,30.819786776029154L217.5,30.046421461838943L218.75,29.256747436523433L219.99999999999997,29.104255793644825L221.25,28.183841998760524L222.5,28.526948195237384L223.75,26.822303537222048L225,26.424744943472053L226.25,26.038051898662868L227.5,26.511877089280357L228.75,25.014176471416757L230.00000000000003,25.188461538461546L231.25,25.569690645658056L232.5,24.12646320049579L233.75,24.26806851900541L235,23.222399667593155L236.25,23.04267143836389L237.5,23.091701448880713L238.74999999999997,22.596082834097057L240,22.30744981032151L241.25,21.278131220890927L242.5,21.419715763972363L243.75,20.902345275878915L245,20.86966552734374L246.25,20.090857050969056L247.5,20.51565223106971L248.75000000000003,20.575568565955535L250,19.704184781588033L251.25,20.0636204646184L252.5,19.840346937913157L253.75,19.159577707143928L255,19.366521747295668L256.25,18.77834859994742L257.5,18.723875427246085L258.75,19.028858713003302L260,18.467901376577526L261.25,18.98529264009916L262.5,17.912407977764413L263.75,17.754452397273145L265,18.45157189002404L266.25,19.32839883657602L267.5,18.484251638559197L268.75,18.81100757305439L270,18.495137962928183L271.25,18.320852895883416L272.5,18.46245821439303" style="fill: none;" fill="none"></path></g><g><path stroke="rgb(51, 187, 238)" stroke-width="2px" d="M27.499999999999996,186.28569189218373L28.750000000000004,176.373693554218L30,172.15292120713454L31.25,167.36030519925632L32.5,161.91415135310248L33.75,155.32431018535908L35,153.69045779888447L36.25,150.72230353722205L37.5,148.2715405390813L38.75000000000001,146.4470735990084L40,142.06291809082032L41.25,140.07507318349985L42.5,140.15677255483774L43.75,137.32477006178635L45,133.48523201575645L46.25,132.123693554218L47.5,129.01938752394457L48.75,126.81369147667517L50,127.93015259962814L51.25,123.46430810781627L52.5,124.55354303213267L53.75,122.70184989342322L54.99999999999999,119.13461538461539L56.25,119.67923284677359L57.50000000000001,116.5204640315129L58.75,118.64446070744442L60,112.43584864689754L61.25,114.83214886005109L62.5,111.59169106116663L63.75,111.2921509375939L65,109.65830893883337L66.25,106.79908024714544L67.5,104.83846153846154L68.75,105.60091975285458L70,102.9867683997521L71.25,101.08061247605545L72.5,103.55861206054688L73.75,102.41492473895732L75,99.0655413700984L76.25,102.49661372258113L77.50000000000001,96.64200457059421L78.75,99.12000415508565L80,96.83261912419246L81.25,97.45892556997447L82.5,95.17154053908128L83.75,96.04292432344876L85,91.98553513746995L86.25,90.86907401451698L87.5,92.55738918597882L88.75,90.43338212233321L90,89.58923492431641L91.24999999999999,87.84645696786734L92.5,90.2155413700984L93.75,89.9160012465257L95,89.58923492431641L96.25000000000001,89.12630644578202L97.5,83.9524665245643L98.75,86.02200041550856L100,84.68768815260667L101.25,81.91015883225661L102.5,82.23692515446591L103.75,83.81630436823919L105,82.67261704664965L106.25,81.50169313870944L107.5,82.59092806302584L108.75,81.99184781588042L109.99999999999999,79.62277380136344L111.25,81.96461122952974L112.5,78.69692723200872L113.75,78.04338419987604L115.00000000000001,79.62277380136344L116.25,77.71661787766678L117.5,77.41707775409405L118.75,79.59553721501278L120,79.1870819091797L121.25,75.97385030893179L122.5,74.91184158325196L123.75,76.32784282977764L125,76.35507941612829L126.25,76.08276549119215L127.5,73.9315426166241L128.75,73.95876881526065L130,74.4761496910682L131.25,73.71369147667517L132.5,73.11461122952976L133.75,74.0949205838717L135,72.97845946091871L136.25,72.13431226290189L137.5,69.7924540593074L138.75,73.52307692307691L140,69.24784698486327L141.25,70.44600747915415L142.5,70.30984532282903L143.75,70.14646735558144L145,67.5867683997521L146.25,71.426306445782L147.5,67.61400498610277L148.75,67.80461953970102L150,68.51262535682092L151.25,66.8787625826322L152.5,69.19339458759015L153.75,69.52015052208533L155.00000000000003,68.97554344764123L156.25,69.11168482853817L157.5,66.85154677170974L158.75,67.34170144888071L160,65.1632316002479L161.25,67.55953181340143L162.5,66.71538461538461L163.74999999999997,67.17830270620493L165,65.59891310471754L166.25,66.08906778188852L167.5,65.92568981464092L168.75,63.47491642878605L170,64.94538046029898L171.25,64.1556856595553L172.5,64.80923907940205L173.75000000000003,62.87583618164063L175,64.04676008958083L176.25,63.77445655235877L177.5,63.55660541240986L178.75,63.93785529503455L180,62.630769230769225L181.25,63.82892972506011L182.49999999999997,64.04676008958083L183.75,62.73969480074369L185,62.630769230769225L186.25,62.87583618164063L187.5,62.576316833496094L188.75,61.73214886005108L190,61.432608736478365L191.25,62.54908024714543L192.50000000000003,61.133068612905646L193.75,60.91523824838492L195,61.37815633920523L196.25,61.18754178560698L197.5,61.759385446401744L198.75,61.949999999999996L200,60.697387108436004L201.24999999999997,60.043854464017436L202.5,61.18754178560698L203.75,60.23446901761569L205,60.83352848933293L206.25,60.09830686129057L207.5,60.6156981248122L208.75,59.47199002779447L210,57.78369563176082L211.25000000000003,60.23446901761569L212.5,59.85323991041918L213.75,58.40999168982873L215,57.7292224590595L216.25,59.44477421687199L217.5,58.13768815260667L218.75,59.199686490572425L219.99999999999997,58.518917259803175L221.25,58.43722827617939L222.5,58.43722827617939L223.75,59.11799750694862L225,57.810932218111475L226.25,58.62784282977764L227.5,58.08323575533354L228.75,58.05599916898288L230.00000000000003,57.7292224590595L231.25,57.07568981464093L232.5,58.62784282977764L233.75,57.484155508188095L235,58.13768815260667L236.25,57.810932218111475L237.5,57.130162987342246L238.74999999999997,57.15737879826472L240,57.53860790546123L241.25,57.375229938213636L242.5,56.91231184739333L243.75,57.26630436823918L245,57.26630436823918L246.25,56.74891310471755L247.5,56.803386277418866L248.75000000000003,56.994000831017125L250,56.50384615384615L251.25,56.53108274019681L252.5,56.449393756573016L253.75,56.77614969106821L255,56.1498536330003L256.25,57.04845322829027L257.5,56.5582985511193L258.75,56.36768399752103L260,56.06814387394832L261.25,56.612771723820615L262.5,56.640008310171275L263.75,56.42215717022236L265,56.83062286376953L266.25,56.72169729379508L267.5,56.42215717022236L268.75,56.72169729379508L270,56.640008310171275L271.25,56.53108274019681L272.5,56.5582985511193" style="fill: none;" fill="none"></path></g></g></g></g></g></g><g transform="translate(30, 177)" clip-path="url(#clip_1)"><clipPath id="clip_1"><rect width="300" height="23"></rect></clipPath><g><g><line x1="0" y1="0" x2="0" y2="5" style="visibility: inherit;" fill="rgb(0, 0, 0)" stroke="rgb(200, 195, 188)" stroke-width="1px"></line><line x1="25" y1="0" x2="25" y2="5" style="visibility: inherit;" fill="rgb(0, 0, 0)" stroke="rgb(200, 195, 188)" stroke-width="1px"></line><line x1="50" y1="0" x2="50" y2="5" style="visibility: inherit;" fill="rgb(0, 0, 0)" stroke="rgb(200, 195, 188)" stroke-width="1px"></line><line x1="75" y1="0" x2="75" y2="5" style="visibility: inherit;" fill="rgb(0, 0, 0)" stroke="rgb(200, 195, 188)" stroke-width="1px"></line><line x1="100" y1="0" x2="100" y2="5" style="visibility: inherit;" fill="rgb(0, 0, 0)" stroke="rgb(200, 195, 188)" stroke-width="1px"></line><line x1="125" y1="0" x2="125" y2="5" style="visibility: inherit;" fill="rgb(0, 0, 0)" stroke="rgb(200, 195, 188)" stroke-width="1px"></line><line x1="150" y1="0" x2="150" y2="5" style="visibility: inherit;" fill="rgb(0, 0, 0)" stroke="rgb(200, 195, 188)" stroke-width="1px"></line><line x1="175" y1="0" x2="175" y2="5" style="visibility: inherit;" fill="rgb(0, 0, 0)" stroke="rgb(200, 195, 188)" stroke-width="1px"></line><line x1="200" y1="0" x2="200" y2="5" style="visibility: inherit;" fill="rgb(0, 0, 0)" stroke="rgb(200, 195, 188)" stroke-width="1px"></line><line x1="225" y1="0" x2="225" y2="5" style="visibility: inherit;" fill="rgb(0, 0, 0)" stroke="rgb(200, 195, 188)" stroke-width="1px"></line><line x1="250" y1="0" x2="250" y2="5" style="visibility: inherit;" fill="rgb(0, 0, 0)" stroke="rgb(200, 195, 188)" stroke-width="1px"></line><line x1="275" y1="0" x2="275" y2="5" style="visibility: inherit;" fill="rgb(0, 0, 0)" stroke="rgb(200, 195, 188)" stroke-width="1px"></line><line x1="300" y1="0" x2="300" y2="5" style="visibility: inherit;" fill="rgb(0, 0, 0)" stroke="rgb(200, 195, 188)" stroke-width="1px"></line></g><g transform="translate(0, 8)"><text x="0" y="0" dx="0em" dy="0.95em" style="text-anchor: middle; visibility: hidden; font-family: Roboto, sans-serif; font-size: 12px; font-weight: 200;" fill="rgb(211, 207, 202)" stroke="none" stroke-width="1px">-20</text><text x="25" y="0" dx="0em" dy="0.95em" style="text-anchor: middle; visibility: inherit; font-family: Roboto, sans-serif; font-size: 12px; font-weight: 200;" fill="rgb(211, 207, 202)" stroke="none" stroke-width="1px">0</text><text x="50" y="0" dx="0em" dy="0.95em" style="text-anchor: middle; visibility: inherit; font-family: Roboto, sans-serif; font-size: 12px; font-weight: 200;" fill="rgb(211, 207, 202)" stroke="none" stroke-width="1px">20</text><text x="75" y="0" dx="0em" dy="0.95em" style="text-anchor: middle; visibility: inherit; font-family: Roboto, sans-serif; font-size: 12px; font-weight: 200;" fill="rgb(211, 207, 202)" stroke="none" stroke-width="1px">40</text><text x="100" y="0" dx="0em" dy="0.95em" style="text-anchor: middle; visibility: inherit; font-family: Roboto, sans-serif; font-size: 12px; font-weight: 200;" fill="rgb(211, 207, 202)" stroke="none" stroke-width="1px">60</text><text x="125" y="0" dx="0em" dy="0.95em" style="text-anchor: middle; visibility: inherit; font-family: Roboto, sans-serif; font-size: 12px; font-weight: 200;" fill="rgb(211, 207, 202)" stroke="none" stroke-width="1px">80</text><text x="150" y="0" dx="0em" dy="0.95em" style="text-anchor: middle; visibility: inherit; font-family: Roboto, sans-serif; font-size: 12px; font-weight: 200;" fill="rgb(211, 207, 202)" stroke="none" stroke-width="1px">100</text><text x="175" y="0" dx="0em" dy="0.95em" style="text-anchor: middle; visibility: inherit; font-family: Roboto, sans-serif; font-size: 12px; font-weight: 200;" fill="rgb(211, 207, 202)" stroke="none" stroke-width="1px">120</text><text x="200" y="0" dx="0em" dy="0.95em" style="text-anchor: middle; visibility: inherit; font-family: Roboto, sans-serif; font-size: 12px; font-weight: 200;" fill="rgb(211, 207, 202)" stroke="none" stroke-width="1px">140</text><text x="225" y="0" dx="0em" dy="0.95em" style="text-anchor: middle; visibility: inherit; font-family: Roboto, sans-serif; font-size: 12px; font-weight: 200;" fill="rgb(211, 207, 202)" stroke="none" stroke-width="1px">160</text><text x="250" y="0" dx="0em" dy="0.95em" style="text-anchor: middle; visibility: inherit; font-family: Roboto, sans-serif; font-size: 12px; font-weight: 200;" fill="rgb(211, 207, 202)" stroke="none" stroke-width="1px">180</text><text x="275" y="0" dx="0em" dy="0.95em" style="text-anchor: middle; visibility: inherit; font-family: Roboto, sans-serif; font-size: 12px; font-weight: 200;" fill="rgb(211, 207, 202)" stroke="none" stroke-width="1px">200</text><text x="300" y="0" dx="0em" dy="0.95em" style="text-anchor: middle; visibility: hidden; font-family: Roboto, sans-serif; font-size: 12px; font-weight: 200;" fill="rgb(211, 207, 202)" stroke="none" stroke-width="1px">220</text></g><line x1="0" y1="0" x2="300" y2="0" fill="rgb(0, 0, 0)" stroke="rgb(200, 195, 188)" stroke-width="1px"></line></g></g></g></g></svg>