<svg viewBox="0 0 330 200" xmlns="http://www.w3.org/2000/svg"><g><g><g><g><g><line x1="72.34375" y1="177" x2="67.34375" y2="177" style="visibility: inherit;" fill="rgb(0, 0, 0)" stroke="rgb(200, 195, 188)" stroke-width="1px"></line><line x1="72.34375" y1="164.35714285714286" x2="67.34375" y2="164.35714285714286" style="visibility: inherit;" fill="rgb(0, 0, 0)" stroke="rgb(200, 195, 188)" stroke-width="1px"></line><line x1="72.34375" y1="151.71428571428572" x2="67.34375" y2="151.71428571428572" style="visibility: inherit;" fill="rgb(0, 0, 0)" stroke="rgb(200, 195, 188)" stroke-width="1px"></line><line x1="72.34375" y1="139.07142857142856" x2="67.34375" y2="139.07142857142856" style="visibility: inherit;" fill="rgb(0, 0, 0)" stroke="rgb(200, 195, 188)" stroke-width="1px"></line><line x1="72.34375" y1="126.42857142857144" x2="67.34375" y2="126.42857142857144" style="visibility: inherit;" fill="rgb(0, 0, 0)" stroke="rgb(200, 195, 188)" stroke-width="1px"></line><line x1="72.34375" y1="113.78571428571429" x2="67.34375" y2="113.78571428571429" style="visibility: inherit;" fill="rgb(0, 0, 0)" stroke="rgb(200, 195, 188)" stroke-width="1px"></line><line x1="72.34375" y1="101.14285714285714" x2="67.34375" y2="101.14285714285714" style="visibility: inherit;" fill="rgb(0, 0, 0)" stroke="rgb(200, 195, 188)" stroke-width="1px"></line><line x1="72.34375" y1="88.49999999999999" x2="67.34375" y2="88.49999999999999" style="visibility: inherit;" fill="rgb(0, 0, 0)" stroke="rgb(200, 195, 188)" stroke-width="1px"></line><line x1="72.34375" y1="75.85714285714288" x2="67.34375" y2="75.85714285714288" style="visibility: inherit;" fill="rgb(0, 0, 0)" stroke="rgb(200, 195, 188)" stroke-width="1px"></line><line x1="72.34375" y1="63.21428571428572" x2="67.34375" y2="63.21428571428572" style="visibility: inherit;" fill="rgb(0, 0, 0)" stroke="rgb(200, 195, 188)" stroke-width="1px"></line><line x1="72.34375" y1="50.57142857142857" x2="67.34375" y2="50.57142857142857" style="visibility: inherit;" fill="rgb(0, 0, 0)" stroke="rgb(200, 195, 188)" stroke-width="1px"></line><line x1="72.34375" y1="37.92857142857141" x2="67.34375" y2="37.92857142857141" style="visibility: inherit;" fill="rgb(0, 0, 0)" stroke="rgb(200, 195, 188)" stroke-width="1px"></line><line x1="72.34375" y1="25.285714285714313" x2="67.34375" y2="25.285714285714313" style="visibility: inherit;" fill="rgb(0, 0, 0)" stroke="rgb(200, 195, 188)" stroke-width="1px"></line><line x1="72.34375" y1="12.642857142857157" x2="67.34375" y2="12.642857142857157" style="visibility: inherit;" fill="rgb(0, 0, 0)" stroke="rgb(200, 195, 188)" stroke-width="1px"></line><line x1="72.34375" y1="0" x2="67.34375" y2="0" style="visibility: inherit;" fill="rgb(0, 0, 0)" stroke="rgb(200, 195, 188)" stroke-width="1px"></line></g><g transform="translate(62.34375, 0)"><text x="0" y="177" dx="0em" dy="0.3em" style="text-anchor: end; visibility: hidden; font-family: Roboto, sans-serif; font-size: 12px; font-weight: 200;" fill="rgb(211, 207, 202)" stroke="none" stroke-width="1px">7e-3</text><text x="0" y="164.35714285714286" dx="0em" dy="0.3em" style="text-anchor: end; visibility: inherit; font-family: Roboto, sans-serif; font-size: 12px; font-weight: 200;" fill="rgb(211, 207, 202)" stroke="none" stroke-width="1px">7.5e-3</text><text x="0" y="151.71428571428572" dx="0em" dy="0.3em" style="text-anchor: end; visibility: hidden; font-family: Roboto, sans-serif; font-size: 12px; font-weight: 200;" fill="rgb(211, 207, 202)" stroke="none" stroke-width="1px">8e-3</text><text x="0" y="139.07142857142856" dx="0em" dy="0.3em" style="text-anchor: end; visibility: inherit; font-family: Roboto, sans-serif; font-size: 12px; font-weight: 200;" fill="rgb(211, 207, 202)" stroke="none" stroke-width="1px">8.5e-3</text><text x="0" y="126.42857142857144" dx="0em" dy="0.3em" style="text-anchor: end; visibility: hidden; font-family: Roboto, sans-serif; font-size: 12px; font-weight: 200;" fill="rgb(211, 207, 202)" stroke="none" stroke-width="1px">9e-3</text><text x="0" y="113.78571428571429" dx="0em" dy="0.3em" style="text-anchor: end; visibility: inherit; font-family: Roboto, sans-serif; font-size: 12px; font-weight: 200;" fill="rgb(211, 207, 202)" stroke="none" stroke-width="1px">9.5e-3</text><text x="0" y="101.14285714285714" dx="0em" dy="0.3em" style="text-anchor: end; visibility: hidden; font-family: Roboto, sans-serif; font-size: 12px; font-weight: 200;" fill="rgb(211, 207, 202)" stroke="none" stroke-width="1px">0.01</text><text x="0" y="88.49999999999999" dx="0em" dy="0.3em" style="text-anchor: end; visibility: inherit; font-family: Roboto, sans-serif; font-size: 12px; font-weight: 200;" fill="rgb(211, 207, 202)" stroke="none" stroke-width="1px">0.0105</text><text x="0" y="75.85714285714288" dx="0em" dy="0.3em" style="text-anchor: end; visibility: hidden; font-family: Roboto, sans-serif; font-size: 12px; font-weight: 200;" fill="rgb(211, 207, 202)" stroke="none" stroke-width="1px">0.011</text><text x="0" y="63.21428571428572" dx="0em" dy="0.3em" style="text-anchor: end; visibility: inherit; font-family: Roboto, sans-serif; font-size: 12px; font-weight: 200;" fill="rgb(211, 207, 202)" stroke="none" stroke-width="1px">0.0115</text><text x="0" y="50.57142857142857" dx="0em" dy="0.3em" style="text-anchor: end; visibility: hidden; font-family: Roboto, sans-serif; font-size: 12px; font-weight: 200;" fill="rgb(211, 207, 202)" stroke="none" stroke-width="1px">0.012</text><text x="0" y="37.92857142857141" dx="0em" dy="0.3em" style="text-anchor: end; visibility: inherit; font-family: Roboto, sans-serif; font-size: 12px; font-weight: 200;" fill="rgb(211, 207, 202)" stroke="none" stroke-width="1px">0.0125</text><text x="0" y="25.285714285714313" dx="0em" dy="0.3em" style="text-anchor: end; visibility: hidden; font-family: Roboto, sans-serif; font-size: 12px; font-weight: 200;" fill="rgb(211, 207, 202)" stroke="none" stroke-width="1px">0.013</text><text x="0" y="12.642857142857157" dx="0em" dy="0.3em" style="text-anchor: end; visibility: inherit; font-family: Roboto, sans-serif; font-size: 12px; font-weight: 200;" fill="rgb(211, 207, 202)" stroke="none" stroke-width="1px">0.0135</text><text x="0" y="0" dx="0em" dy="0.3em" style="text-anchor: end; visibility: hidden; font-family: Roboto, sans-serif; font-size: 12px; font-weight: 200;" fill="rgb(211, 207, 202)" stroke="none" stroke-width="1px">0.014</text></g><line x1="72.34375" y1="0" x2="72.34375" y2="177" fill="rgb(0, 0, 0)" stroke="rgb(200, 195, 188)" stroke-width="1px"></line></g></g><g transform="translate(72, 0)" clip-path="url(#clip_0)"><clipPath id="clip_0"><rect width="257" height="177"></rect></clipPath><g><g><g><line x1="0" y1="0" x2="0" y2="177" fill="rgb(0, 0, 0)" stroke="rgb(194, 189, 181)" stroke-width="1px" opacity="0.25"></line><line x1="21.471354166666664" y1="0" x2="21.471354166666664" y2="177" fill="rgb(0, 0, 0)" stroke="rgb(194, 189, 181)" stroke-width="1px" opacity="0.25"></line><line x1="42.94270833333333" y1="0" x2="42.94270833333333" y2="177" fill="rgb(0, 0, 0)" stroke="rgb(194, 189, 181)" stroke-width="1px" opacity="0.25"></line><line x1="64.4140625" y1="0" x2="64.4140625" y2="177" fill="rgb(0, 0, 0)" stroke="rgb(194, 189, 181)" stroke-width="1px" opacity="0.25"></line><line x1="85.88541666666666" y1="0" x2="85.88541666666666" y2="177" fill="rgb(0, 0, 0)" stroke="rgb(194, 189, 181)" stroke-width="1px" opacity="0.25"></line><line x1="107.35677083333334" y1="0" x2="107.35677083333334" y2="177" fill="rgb(0, 0, 0)" stroke="rgb(194, 189, 181)" stroke-width="1px" opacity="0.25"></line><line x1="128.828125" y1="0" x2="128.828125" y2="177" fill="rgb(0, 0, 0)" stroke="rgb(194, 189, 181)" stroke-width="1px" opacity="0.25"></line><line x1="150.29947916666669" y1="0" x2="150.29947916666669" y2="177" fill="rgb(0, 0, 0)" stroke="rgb(194, 189, 181)" stroke-width="1px" opacity="0.25"></line><line x1="171.77083333333331" y1="0" x2="171.77083333333331" y2="177" fill="rgb(0, 0, 0)" stroke="rgb(194, 189, 181)" stroke-width="1px" opacity="0.25"></line><line x1="193.2421875" y1="0" x2="193.2421875" y2="177" fill="rgb(0, 0, 0)" stroke="rgb(194, 189, 181)" stroke-width="1px" opacity="0.25"></line><line x1="214.71354166666669" y1="0" x2="214.71354166666669" y2="177" fill="rgb(0, 0, 0)" stroke="rgb(194, 189, 181)" stroke-width="1px" opacity="0.25"></line><line x1="236.18489583333331" y1="0" x2="236.18489583333331" y2="177" fill="rgb(0, 0, 0)" stroke="rgb(194, 189, 181)" stroke-width="1px" opacity="0.25"></line><line x1="257.65625" y1="0" x2="257.65625" y2="177" fill="rgb(0, 0, 0)" stroke="rgb(194, 189, 181)" stroke-width="1px" opacity="0.25"></line></g><g><line x1="0" y1="177" x2="257.65625" y2="177" fill="rgb(0, 0, 0)" stroke="rgb(194, 189, 181)" stroke-width="1px" opacity="0.25"></line><line x1="0" y1="164.35714285714286" x2="257.65625" y2="164.35714285714286" fill="rgb(0, 0, 0)" stroke="rgb(194, 189, 181)" stroke-width="1px" opacity="0.25"></line><line x1="0" y1="151.71428571428572" x2="257.65625" y2="151.71428571428572" fill="rgb(0, 0, 0)" stroke="rgb(194, 189, 181)" stroke-width="1px" opacity="0.25"></line><line x1="0" y1="139.07142857142856" x2="257.65625" y2="139.07142857142856" fill="rgb(0, 0, 0)" stroke="rgb(194, 189, 181)" stroke-width="1px" opacity="0.25"></line><line x1="0" y1="126.42857142857144" x2="257.65625" y2="126.42857142857144" fill="rgb(0, 0, 0)" stroke="rgb(194, 189, 181)" stroke-width="1px" opacity="0.25"></line><line x1="0" y1="113.78571428571429" x2="257.65625" y2="113.78571428571429" fill="rgb(0, 0, 0)" stroke="rgb(194, 189, 181)" stroke-width="1px" opacity="0.25"></line><line x1="0" y1="101.14285714285714" x2="257.65625" y2="101.14285714285714" fill="rgb(0, 0, 0)" stroke="rgb(194, 189, 181)" stroke-width="1px" opacity="0.25"></line><line x1="0" y1="88.49999999999999" x2="257.65625" y2="88.49999999999999" fill="rgb(0, 0, 0)" stroke="rgb(194, 189, 181)" stroke-width="1px" opacity="0.25"></line><line x1="0" y1="75.85714285714288" x2="257.65625" y2="75.85714285714288" fill="rgb(0, 0, 0)" stroke="rgb(194, 189, 181)" stroke-width="1px" opacity="0.25"></line><line x1="0" y1="63.21428571428572" x2="257.65625" y2="63.21428571428572" fill="rgb(0, 0, 0)" stroke="rgb(194, 189, 181)" stroke-width="1px" opacity="0.25"></line><line x1="0" y1="50.57142857142857" x2="257.65625" y2="50.57142857142857" fill="rgb(0, 0, 0)" stroke="rgb(194, 189, 181)" stroke-width="1px" opacity="0.25"></line><line x1="0" y1="37.92857142857141" x2="257.65625" y2="37.92857142857141" fill="rgb(0, 0, 0)" stroke="rgb(194, 189, 181)" stroke-width="1px" opacity="0.25"></line><line x1="0" y1="25.285714285714313" x2="257.65625" y2="25.285714285714313" fill="rgb(0, 0, 0)" stroke="rgb(194, 189, 181)" stroke-width="1px" opacity="0.25"></line><line x1="0" y1="12.642857142857157" x2="257.65625" y2="12.642857142857157" fill="rgb(0, 0, 0)" stroke="rgb(194, 189, 181)" stroke-width="1px" opacity="0.25"></line><line x1="0" y1="0" x2="257.65625" y2="0" fill="rgb(0, 0, 0)" stroke="rgb(194, 189, 181)" stroke-width="1px" opacity="0.25"></line></g></g></g><g><g><line x1="0" y1="354" x2="257.65625" y2="354" fill="rgb(0, 0, 0)" stroke="rgb(168, 160, 149)" stroke-width="1.5px"></line></g></g><g><g><line x1="21.471354166666664" y1="0" x2="21.471354166666664" y2="177" fill="rgb(0, 0, 0)" stroke="rgb(168, 160, 149)" stroke-width="1.5px"></line></g></g><g><g><g><g><g><path stroke="rgb(204, 51, 17)" stroke-width="2px" d="M31.133463541666668,-2.270153663571463L32.20703125,1.2421553034411397L33.280598958333336,4.5723807302473345L34.354166666666664,7.732493365997598L35.427734375,10.824896746373156L36.501302083333336,13.63706665162333L37.57486979166667,16.49751502107894L38.6484375,19.178183251451507L39.722005208333336,21.575101062775303L40.795572916666664,23.936232034161755L41.869140625,26.105646653025673L42.94270833333333,28.369229968131275L44.016276041666664,30.733014013708555L45.08984375,32.91934988404995L46.163411458333336,34.95696647799565L47.236979166666664,37.04114924385384L48.310546875,39.23565762971423L49.384114583333336,41.433231496477944L50.457682291666664,43.132074649217465L51.53125,45.242883680498075L52.604817708333336,47.14942539782261L53.67838541666667,49.13576011724485L54.751953125,51.16296246481524L55.825520833333336,52.97801639362457L56.899088541666664,54.5816072000161L57.97265625,56.18075692985885L59.04622395833333,57.63058729248668L60.119791666666664,59.597782004934956L61.193359375,61.10701460491345L62.266927083333336,62.53856696205539L63.340494791666664,63.93294025685907L64.4140625,65.42475828570201L65.48763020833333,66.90106112499645L66.56119791666667,68.21848944776741L67.634765625,69.14870597538236L68.70833333333333,70.50666886396405L69.78190104166666,71.46566163161877L70.85546875,72.54339847961816L71.92903645833333,73.83947922717884L73.00260416666667,75.24560756516604L74.076171875,76.15102103670458L75.14973958333334,77.16991498320947L76.22330729166667,78.23574065246858L77.296875,79.00400284192585L78.37044270833333,79.97197349568141L79.44401041666667,81.09882314920456L80.517578125,81.90970947396805L81.59114583333333,83.00478915220043L82.66471354166667,83.9506438148183L83.73828125,84.99823913706322L84.81184895833333,86.18137896668142L85.88541666666666,86.83424564666282L86.958984375,87.75383412775584L88.03255208333333,88.67001512353787L89.10611979166667,89.7892836208311L90.1796875,90.57439875199259L91.25325520833334,91.38040277417817L92.32682291666667,92.20217107525401L93.400390625,92.68244015407267L94.47395833333333,93.60099368233506L95.54752604166667,94.51434008570496L96.62109375,95.16573814455428L97.69466145833333,95.99845335298461L98.76822916666667,96.94710837508589L99.841796875,97.7221398557403L100.91536458333333,98.5269730728545L101.98893229166666,99.27550748877648L103.0625,100.06708939224521L104.13606770833333,100.81210968107008L105.20963541666667,101.5728813963023L106.283203125,102.24398085771469L107.35677083333334,103.22854961207027L108.43033854166667,103.93308980869702L109.50390625,104.55535063977936L110.57747395833333,105.08426344680046L111.65104166666667,105.9596884621133L112.724609375,106.60218059216777L113.79817708333333,107.32346800298683L114.87174479166667,108.2522327843039L115.9453125,109.01899436924371L117.01888020833333,109.64917042697716L118.09244791666666,110.73354352492667L119.166015625,111.53402479618791L120.23958333333333,112.23044771757299L121.31315104166667,112.76404086491551L122.38671875,113.52647817193406L123.46028645833334,114.14796514120488L124.53385416666667,114.92749473805729L125.607421875,115.7807310278829L126.68098958333333,116.45278822685407L127.75455729166667,117.05681207447046L128.828125,118.10330112123621L129.90169270833334,118.67591996908946L130.97526041666666,119.65228537273865L132.048828125,119.96437863909112L133.12239583333334,120.70450285657844L134.19596354166669,121.21651199382731L135.26953125,122.04858107690758L136.34309895833334,122.7885796834513L137.41666666666666,123.46550826444276L138.490234375,124.22378182113029L139.56380208333331,124.70464060766271L140.63736979166666,125.4717595172264L141.7109375,126.14955913165949L142.78450520833334,126.77806253516522L143.85807291666666,127.52947371047476L144.931640625,128.36857064953207L146.00520833333334,129.29129799581875L147.07877604166666,129.94366188742532L148.15234375,130.48011476762358L149.22591145833334,131.2251648385787L150.29947916666669,131.89172953798303L151.373046875,132.54831648514738L152.44661458333334,133.38060323342467L153.52018229166666,133.82235520619452L154.59375,134.6046023852213L155.66731770833331,135.3593947287635L156.74088541666666,135.86599989042668L157.814453125,136.72016548058127L158.88802083333334,137.34058590921774L159.96158854166666,137.84055937175333L161.03515625,138.2790784273068L162.10872395833334,138.85273729762554L163.18229166666666,139.55801654671586L164.255859375,140.1397358572523L165.32942708333334,140.86658069127185L166.40299479166669,141.47747885110863L167.4765625,142.00999220223105L168.55013020833334,142.79615029869433L169.62369791666666,143.4525741600528L170.697265625,143.95929487428276L171.77083333333331,144.69763026720153L172.84440104166666,145.24362609395052L173.91796875,145.9313561309752L174.99153645833334,146.43085286213363L176.06510416666666,146.94705242629888L177.138671875,147.266286024036L178.21223958333334,148.00151026930757L179.28580729166666,148.6895435931891L180.359375,149.2036343802577L181.43294270833334,149.49000916333677L182.50651041666669,150.13412649687848L183.580078125,150.71174069072268L184.65364583333334,151.00012395107592L185.72721354166666,151.39718174318494L186.80078125,152.0711982698612L187.87434895833331,152.62882841791097L188.94791666666666,153.06827561059825L190.021484375,153.66600284107636L191.09505208333334,153.88909023437907L192.16861979166666,154.528335828473L193.2421875,155.0793365271797L194.31575520833334,155.42009134269927L195.38932291666666,155.5779263217451L196.462890625,156.06569099063884L197.53645833333334,156.40978114983562L198.61002604166669,156.6909237502029L199.68359375,157.01045578748904L200.75716145833334,157.29908920864244L201.83072916666666,157.6142989341956L202.904296875,158.0947372554608L203.97786458333331,158.3659223999047L205.05143229166666,158.58782193659243L206.125,158.7881426923526L207.19856770833334,159.23850844984713L208.27213541666666,159.5297808502812L209.345703125,159.89518884214243L210.41927083333334,160.30679727728653L211.49283854166666,160.5864344381421L212.56640625,160.69420877398682L213.63997395833334,160.75403637874248L214.71354166666669,160.99365669473315L215.787109375,161.24480832827103L216.86067708333334,161.3377850355711L217.93424479166666,161.52993480575122L219.0078125,161.6425824524967L220.08138020833331,161.7499408560911L221.15494791666666,161.93601084087945L222.228515625,162.0177877914417L223.30208333333334,162.28905438312935L224.37565104166666,162.3437519686591L225.44921875,162.6715802234854L226.52278645833334,162.71426569267783L227.59635416666666,162.67085910623646L228.669921875,162.42170573557925L229.74348958333334,162.53417924025106L230.81705729166669,162.5800028288783L231.890625,162.71810737027397L232.96419270833334,162.71977260339744L234.03776041666666,162.7659154763387" style="fill: none;" fill="none"></path></g><g><path stroke="rgb(0, 119, 187)" stroke-width="2px" d="M25.765625,-3.7570210197036795L26.839192708333336,3.3512309680003844L27.912760416666668,8.956006101080092L28.986328125,14.642610984188316L30.059895833333332,19.627167788643916L31.133463541666668,23.45307875924457L32.20703125,27.005853003756265L33.280598958333336,31.396109566686864L34.354166666666664,34.91401841304827L35.427734375,37.83026580692137L36.501302083333336,39.83934391216697L37.57486979166667,42.782999952389794L38.6484375,46.28107106543625L39.722005208333336,48.76822950174656L40.795572916666664,51.31380911575811L41.869140625,53.8350755864137L42.94270833333333,54.95911266589228L44.016276041666664,56.97757196304427L45.08984375,57.83010592808003L46.163411458333336,59.34041239684813L47.236979166666664,61.85154663571853L48.310546875,63.04438717534367L49.384114583333336,65.19659021541314L50.457682291666664,66.65005138179518L51.53125,69.05816419946972L52.604817708333336,70.47365138803055L53.67838541666667,72.35844714916519L54.751953125,73.48796801431713L55.825520833333336,74.8023460825483L56.899088541666664,76.69939403427156L57.97265625,78.47292250663307L59.04622395833333,79.56803026085008L60.119791666666664,81.10929038200739L61.193359375,82.68892965479088L62.266927083333336,83.01764356681605L63.340494791666664,83.27620333691L64.4140625,85.61015426092095L65.48763020833333,85.27628014949431L66.56119791666667,87.35688930620283L67.634765625,87.86520842627976L68.70833333333333,88.54501769329568L69.78190104166666,89.13446725031427L70.85546875,90.12409608610047L71.92903645833333,90.62240510697546L73.00260416666667,92.35256695844029L74.076171875,93.5918209643814L75.14973958333334,94.00761620735962L76.22330729166667,94.90889632723496L77.296875,95.36207095653096L78.37044270833333,96.73232723397328L79.44401041666667,97.23014317738715L80.517578125,97.2266593865104L81.59114583333333,97.56042718240906L82.66471354166667,97.70100487763975L83.73828125,99.30236931908746L84.81184895833333,99.61587818893395L85.88541666666666,100.35736043029871L86.958984375,101.8340890372795L88.03255208333333,102.4126118958424L89.10611979166667,102.23572861920947L90.1796875,103.06052506983114L91.25325520833334,103.80295167364294L92.32682291666667,104.28101850789216L93.400390625,104.27283477543934L94.47395833333333,105.3615379455379L95.54752604166667,105.34737675154923L96.62109375,106.12794633282338L97.69466145833333,107.08567723292268L98.76822916666667,107.34740400067999L99.841796875,108.1385811680251L100.91536458333333,108.61135643759671L101.98893229166666,108.65184358935282L103.0625,108.25616022285826L104.13606770833333,109.25212314670347L105.20963541666667,110.00760270537263L106.283203125,110.1948320701031L107.35677083333334,110.40321256893152L108.43033854166667,110.34925785894131L109.50390625,110.97242761309195L110.57747395833333,111.62808099396462L111.65104166666667,111.77600603448664L112.724609375,112.06755697516988L113.79817708333333,113.01800836241136L114.87174479166667,112.5567413617979L115.9453125,113.0210825370778L117.01888020833333,113.6648310437305L118.09244791666666,114.53565585146225L119.166015625,114.37187179685418L120.23958333333333,115.28227767588875L121.31315104166667,115.32071661156868L122.38671875,115.08138585126159L123.46028645833334,115.78207175497525L124.53385416666667,116.87140179825694L125.607421875,115.92418468132196L126.68098958333333,116.56326676474472L127.75455729166667,116.98317952876876L128.828125,117.36007901172906L129.90169270833334,117.87012733262563L130.97526041666666,117.94577963666616L132.048828125,117.95365250290757L133.12239583333334,117.8935030062448L134.19596354166669,118.07170121300359L135.26953125,118.57089256686567L136.34309895833334,118.72283894470606L137.41666666666666,119.26573611162297L138.490234375,118.94376899092141L139.56380208333331,119.28663345875167L140.63736979166666,119.7307543804924L141.7109375,119.98525454235725L142.78450520833334,120.2102882286724L143.85807291666666,119.85161450331312L144.931640625,120.33619700353002L146.00520833333334,120.55275724092942L147.07877604166666,120.82853801958794L148.15234375,120.9830419995029L149.22591145833334,121.06158663454627L150.29947916666669,121.01623116804944L151.373046875,121.29121950406392L152.44661458333334,121.53513985869706L153.52018229166666,121.39523794436624L154.59375,121.75396442054783L155.66731770833331,121.87542756495606L156.74088541666666,121.91950954299662L157.814453125,122.44473928477973L158.88802083333334,122.6965581577729L159.96158854166666,122.82832975355197L161.03515625,122.73636931663911L162.10872395833334,123.07137431919838L163.18229166666666,123.27575897961164L164.255859375,123.23014518194977L165.32942708333334,123.2411431891706L166.40299479166669,123.50610449962028L167.4765625,123.66473275837343L168.55013020833334,123.80512409416205L169.62369791666666,123.91097702132936L170.697265625,123.84594806162879L171.77083333333331,124.06568881775532L172.84440104166666,124.42303057469567L173.91796875,124.32686935254804L174.99153645833334,124.43968735185872L176.06510416666666,124.44668726523717L177.138671875,124.71745424551622L178.21223958333334,124.58418412598542L179.28580729166666,124.60625583967821L180.359375,125.02993240721635L181.43294270833334,124.88920015341321L182.50651041666669,124.87969421720844L183.580078125,124.91062372338297L184.65364583333334,125.30434774959141L185.72721354166666,125.34003754831075L186.80078125,125.49672720231075L187.87434895833331,125.49888044492025L188.94791666666666,125.56870985564957L190.021484375,125.67110999504293L191.09505208333334,125.73880473465321L192.16861979166666,125.60765403069274L193.2421875,125.68539594531107L194.31575520833334,125.79438042124708L195.38932291666666,126.13803736002463L196.462890625,126.17355665642751L197.53645833333334,126.3978337045662L198.61002604166669,126.4531240529083L199.68359375,126.16940197232657L200.75716145833334,126.25287791676445L201.83072916666666,126.11268629866827L202.904296875,126.24380119882815L203.97786458333331,126.40449656094783L205.05143229166666,126.46152074917703L206.125,126.57855293579772L207.19856770833334,126.55880505016458L208.27213541666666,126.77965024428457L209.345703125,126.68644340525206L210.41927083333334,126.69856694454035L211.49283854166666,126.72380436471411L212.56640625,126.82192462476593L213.63997395833334,126.8220934434001L214.71354166666669,126.90702821606271L215.787109375,126.9239087403307L216.86067708333334,126.97426843390659L217.93424479166666,126.99166408923742L219.0078125,127.01295293376478L220.08138020833331,127.06867048232846L221.15494791666666,127.03146296154058L222.228515625,127.08766075660009L223.30208333333334,127.16198759915532L224.37565104166666,127.21540050889317L225.44921875,127.20119771131176L226.52278645833334,127.20359342173005L227.59635416666666,127.20634018108406L228.669921875,127.2081672102861L229.74348958333334,127.20265082465386L230.81705729166669,127.20877949521153L231.890625,127.20673896234072L232.96419270833334,127.20598562574887L234.03776041666666,127.21085573316944" style="fill: none;" fill="none"></path></g></g></g></g><g opacity="0.2"><g><g><g><path stroke="rgb(204, 51, 17)" stroke-width="2px" d="M28.986328125,-2.696200956191313L30.059895833333332,0.6183899236577066L31.133463541666668,3.995386068310073L32.20703125,6.47876237013512L33.280598958333336,9.549595930746637L34.354166666666664,12.4623440035752L35.427734375,15.457443476787649L36.501302083333336,17.8520159093397L37.57486979166667,20.78617016545364L38.6484375,23.198051228054936L39.722005208333336,25.169869202588288L40.795572916666664,27.477568796702798L41.869140625,29.35957028823241L42.94270833333333,31.76448080050095L44.016276041666664,34.27861230075359L45.08984375,36.19881052417415L46.163411458333336,38.01336723140308L47.236979166666664,40.167408579162206L48.310546875,42.527410849928856L49.384114583333336,44.7295866736344L50.457682291666664,45.68033677020243L51.53125,48.409095283065525L52.604817708333336,50.00923692009279L53.67838541666667,52.11526153768813L54.751953125,54.203765582825454L55.825520833333336,55.70059707015753L56.899088541666664,56.986993294741424L57.97265625,58.579481455896584L59.04622395833333,59.80533279904297L60.119791666666664,62.548574043171755L61.193359375,63.37086349087104L62.266927083333336,64.68589548979487L63.340494791666664,66.02450019440481L64.4140625,67.66248532597508L65.48763020833333,69.11551538216217L66.56119791666667,70.19463193097285L67.634765625,70.54403076640197L68.70833333333333,72.54361319648369L69.78190104166666,72.90415078295129L70.85546875,74.16000375151634L71.92903645833333,75.78360034844705L73.00260416666667,77.35480007209948L74.076171875,77.50914124399424L75.14973958333334,78.69825590295451L76.22330729166667,79.83447915634939L77.296875,80.15639612610852L78.37044270833333,81.42392947631224L79.44401041666667,82.78909762948751L80.517578125,83.1260389611125L81.59114583333333,84.64740866954838L82.66471354166667,85.36942580874478L83.73828125,86.56963212043047L84.81184895833333,87.95608871110848L85.88541666666666,87.81354566663504L86.958984375,89.13321684939521L88.03255208333333,90.04428661721093L89.10611979166667,91.46818636677095L90.1796875,91.75207144873482L91.25325520833334,92.5894088074565L92.32682291666667,93.4348235268678L93.400390625,93.40284377230066L94.47395833333333,94.97882397472858L95.54752604166667,95.88435969075987L96.62109375,96.14283523282835L97.69466145833333,97.24752616563015L98.76822916666667,98.37009090823787L99.841796875,98.88468707672187L100.91536458333333,99.73422289852586L101.98893229166666,100.39830911265952L103.0625,101.25446224744832L104.13606770833333,101.9296401143074L105.20963541666667,102.71403896915061L106.283203125,103.25063004983323L107.35677083333334,104.70540274360351L108.43033854166667,104.98990010363715L109.50390625,105.48874188640289L110.57747395833333,105.87763265733209L111.65104166666667,107.27282598508256L112.724609375,107.5659187872495L113.79817708333333,108.40539911921536L114.87174479166667,109.64537995627948L115.9453125,110.16913674665349L117.01888020833333,110.5944345135774L118.09244791666666,112.36010317185097L119.166015625,112.73474670307976L120.23958333333333,113.27508209965059L121.31315104166667,113.56443058592933L122.38671875,114.6701341324619L123.46028645833334,115.08019559511118L124.53385416666667,116.09678913333588L125.607421875,117.06058546262128L126.68098958333333,117.4608740253108L127.75455729166667,117.96284784589496L128.828125,119.67303469138486L129.90169270833334,119.5348482408694L130.97526041666666,121.11683347821236L132.048828125,120.4325185386198L133.12239583333334,121.81468918280942L134.19596354166669,121.98452569970064L135.26953125,123.29668470152788L136.34309895833334,123.89857759326696L137.41666666666666,124.48090113593L138.490234375,125.3611921561616L139.56380208333331,125.42592878746134L140.63736979166666,126.62243788157191L141.7109375,127.1662585533091L142.78450520833334,127.72081764042377L143.85807291666666,128.65659047343902L144.931640625,129.62721605811802L146.00520833333334,130.67538901524884L147.07877604166666,130.9222077248352L148.15234375,131.2847940879209L149.22591145833334,132.3427399450115L150.29947916666669,132.89157658708947L151.373046875,133.53319690589396L152.44661458333334,134.62903335584062L153.52018229166666,134.4849831653493L154.59375,135.77797315376145L155.66731770833331,136.4915832440768L156.74088541666666,136.62590763292144L157.814453125,138.0014138658132L158.88802083333334,138.2712165521724L159.96158854166666,138.59051956555675L161.03515625,138.93685701063703L162.10872395833334,139.71322560310364L163.18229166666666,140.61593542035138L164.255859375,141.01231482305695L165.32942708333334,141.9568479423012L166.40299479166669,142.39382609086377L167.4765625,142.80876222891467L168.55013020833334,143.9753874433892L169.62369791666666,144.43720995209048L170.697265625,144.7193759456277L171.77083333333331,145.80513335657972L172.84440104166666,146.06261983407396L173.91796875,146.9629511865122L174.99153645833334,147.1800979588713L176.06510416666666,147.72135177254677L177.138671875,147.74513642064164L178.21223958333334,149.10434663721492L179.28580729166666,149.7215935790113L180.359375,149.97477056086063L181.43294270833334,149.91957133795535L182.50651041666669,151.1003024971911L183.580078125,151.57816198148896L184.65364583333334,151.43269884160588L185.72721354166666,151.99276843134848L186.80078125,153.08222305987564L187.87434895833331,153.4652736399855L188.94791666666666,153.72744639962912L190.021484375,154.56259368679355L191.09505208333334,154.22372132433313L192.16861979166666,155.48720421961377L193.2421875,155.90583757523981L194.31575520833334,155.93122356597868L195.38932291666666,155.81467879031388L196.462890625,156.79733799397945L197.53645833333334,156.92591638863087L198.61002604166669,157.11263765075375L199.68359375,157.48975384341819L200.75716145833334,157.73203934037258L201.83072916666666,158.08711352252533L202.904296875,158.8153947373586L203.97786458333331,158.7727001165705L205.05143229166666,158.92067124162404L206.125,159.08862382599284L207.19856770833334,159.91405708608883L208.27213541666666,159.96668945093242L209.345703125,160.44330082993423L210.41927083333334,160.9242099300027L211.49283854166666,161.00589017942548L212.56640625,160.8558702777539L213.63997395833334,160.84377778587597L214.71354166666669,161.35308716871907L215.787109375,161.62153577857782L216.86067708333334,161.4772500965212L217.93424479166666,161.81815946102142L219.0078125,161.81155392261488L220.08138020833331,161.9109784614827L221.15494791666666,162.215115818062L222.228515625,162.14045321728503L223.30208333333334,162.69595427066088L224.37565104166666,162.42579834695374L225.44921875,163.16332260572483L226.52278645833334,162.7782938964665L227.59635416666666,162.6057492265744L228.669921875,162.04797567959343L229.74348958333334,162.70288949725884L230.81705729166669,162.6487382118191L231.890625,162.9252641823675L232.96419270833334,162.72227045308267L234.03776041666666,162.8351297857506" style="fill: none;" fill="none"></path></g><g><path stroke="rgb(0, 119, 187)" stroke-width="2px" d="M23.618489583333332,-12.813460231891694L24.692057291666668,1.112380580178343L25.765625,6.59398839303427L26.839192708333336,13.184502437710762L27.912760416666668,16.970924217786106L28.986328125,22.93373549516713L30.059895833333332,26.978420874902184L31.133463541666668,29.134110663618358L32.20703125,32.302790969610214L33.280598958333336,37.957602828741074L34.354166666666664,40.179395099835745L35.427734375,42.198923665497986L36.501302083333336,42.85059947414058L37.57486979166667,47.196407918419155L38.6484375,51.526697468544754L39.722005208333336,52.49833566695452L40.795572916666664,55.131790743342485L41.869140625,57.616744838654995L42.94270833333333,56.64510664024523L44.016276041666664,60.00519449050938L45.08984375,59.10889004383769L46.163411458333336,61.60585420898029L47.236979166666664,65.61823014595679L48.310546875,64.83364289786135L49.384114583333336,68.42488926861968L50.457682291666664,68.83024089996304L51.53125,72.67033120776927L52.604817708333336,72.59688138855356L53.67838541666667,75.1856401658484L54.751953125,75.18224908730814L55.825520833333336,76.77391302798476L56.899088541666664,79.54496582597494L57.97265625,81.13321513895478L59.04622395833333,81.21069186393704L60.119791666666664,83.42118053989752L61.193359375,85.05838854930231L62.266927083333336,83.51071443302291L63.340494791666664,83.66404299118689L64.4140625,89.11108064225742L65.48763020833333,84.77546898275614L66.56119791666667,90.47780303976366L67.634765625,88.62768710617509L68.70833333333333,89.56473159364292L69.78190104166666,90.01864158575025L70.85546875,91.60853933968716L71.92903645833333,91.36986863826003L73.00260416666667,94.94780973557916L74.076171875,95.45070197326797L75.14973958333334,94.63130907182183L76.22330729166667,96.26081650704145L77.296875,96.04183290047305L78.37044270833333,98.78771165013313L79.44401041666667,97.97686709250723L80.517578125,97.22143370019538L81.59114583333333,98.06107887625694L82.66471354166667,97.91187142048564L83.73828125,101.70441598125868L84.81184895833333,100.08614149370365L85.88541666666666,101.46958379234587L86.958984375,104.04918194775071L88.03255208333333,103.2803961836866L89.10611979166667,101.97040370426008L90.1796875,104.29771974576371L91.25325520833334,104.91659157936063L92.32682291666667,104.99811875926596L93.400390625,104.26055917676007L94.47395833333333,106.99459270068579L95.54752604166667,105.32613496056625L96.62109375,107.29880070473467L97.69466145833333,108.52227358307158L98.76822916666667,107.73999415231603L99.841796875,109.32534691904273L100.91536458333333,109.32051934195417L101.98893229166666,108.71257431698697L103.0625,107.66263517311641L104.13606770833333,110.74606753247124L105.20963541666667,111.14082204337632L106.283203125,110.47567611719882L107.35677083333334,110.71578331717424L108.43033854166667,110.26832579395601L109.50390625,111.90718224431788L110.57747395833333,112.61156106527363L111.65104166666667,111.99789359526974L112.724609375,112.5048833861947L113.79817708333333,114.44368544327361L114.87174479166667,111.86484086087772L115.9453125,113.71759429999761L117.01888020833333,114.63045380370957L118.09244791666666,115.84189306305987L119.166015625,114.12619571494204L120.23958333333333,116.6478864944407L121.31315104166667,115.3783750150885L122.38671875,114.722389710801L123.46028645833334,116.8331006105457L124.53385416666667,118.50539686317956L125.607421875,114.50335900591952L126.68098958333333,117.52188988987889L127.75455729166667,117.61304867480483L128.828125,117.92542823616948L129.90169270833334,118.6351998139705L130.97526041666666,118.05925809272699L132.048828125,117.96546180226974L133.12239583333334,117.80327876125064L134.19596354166669,118.33899852314167L135.26953125,119.31967959765878L136.34309895833334,118.95075851146665L137.41666666666666,120.08008186199837L138.490234375,118.4608183098691L139.56380208333331,119.80093016049692L140.63736979166666,120.39693576310363L141.7109375,120.36700478515455L142.78450520833334,120.54783875814506L143.85807291666666,119.31360391527414L144.931640625,121.06307075385537L146.00520833333334,120.87759759702854L147.07877604166666,121.24220918757575L148.15234375,121.21479796937534L149.22591145833334,121.17940358711141L150.29947916666669,120.94819796830416L151.373046875,121.7037020080856L152.44661458333334,121.9010203906468L153.52018229166666,121.18538507286992L154.59375,122.29205413482019L155.66731770833331,122.0576222815684L156.74088541666666,121.98563251005751L157.814453125,123.2325838974544L158.88802083333334,123.07428646726268L159.96158854166666,123.02598714722055L161.03515625,122.5984286612698L162.10872395833334,123.57388182303735L163.18229166666666,123.58233597023147L164.255859375,123.16172448545694L165.32942708333334,123.25764020000186L166.40299479166669,123.90354646529471L167.4765625,123.90267514650311L168.55013020833334,124.01571109784501L169.62369791666666,124.06975641208035L170.697265625,123.74840462207794L171.77083333333331,124.39529995194503L172.84440104166666,124.95904321010624L173.91796875,124.18262751932656L174.99153645833334,124.6089143508247L176.06510416666666,124.45718713530474L177.138671875,125.12360471593482L178.21223958333334,124.3842789466892L179.28580729166666,124.63936341021743L180.359375,125.66544725852353L181.43294270833334,124.67810177270856L182.50651041666669,124.86543531290123L183.580078125,124.9570179826447L184.65364583333334,125.89493378890413L185.72721354166666,125.39357224638974L186.80078125,125.7317616833108L187.87434895833331,125.50211030883449L188.94791666666666,125.67345397174358L190.021484375,125.82471020413297L191.09505208333334,125.84034684406859L192.16861979166666,125.41092797475201L193.2421875,125.80200881723847L194.31575520833334,125.95785713515112L195.38932291666666,126.65352276819092L196.462890625,126.22683560103178L197.53645833333334,126.73424927677428L198.61002604166669,126.53605957542148L199.68359375,125.74381885145392L200.75716145833334,126.37809183342117L201.83072916666666,125.902398871524L202.904296875,126.44047354906797L203.97786458333331,126.6455396041274L205.05143229166666,126.54705703152078L206.125,126.7541012157287L207.19856770833334,126.52918322171485L208.27213541666666,127.11091803546464L209.345703125,126.54663314670324L210.41927083333334,126.7167522534728L211.49283854166666,126.76166049497468L212.56640625,126.9691050148436L213.63997395833334,126.82234667135137L214.71354166666669,127.03443037505662L215.787109375,126.94922952673265L216.86067708333334,127.04980797427041L217.93424479166666,127.01775757223368L219.0078125,127.04488620055574L220.08138020833331,127.15224680517402L221.15494791666666,126.97565168035882L222.228515625,127.17195744918925L223.30208333333334,127.2734778629882L224.37565104166666,127.29551987349987L225.44921875,127.17989351493972L226.52278645833334,127.20718698735749L227.59635416666666,127.21046032011509L228.669921875,127.21090775408916L229.74348958333334,127.1943762462054L230.81705729166669,127.21797250104802L231.890625,127.20367816303458L232.96419270833334,127.20485562086105L234.03776041666666,127.21816089430027" style="fill: none;" fill="none"></path></g></g></g></g></g><g><g><span fill="rgb(0, 0, 0)" stroke="none" stroke-width="1px">Alt + Scroll to Zoom</span></g></g></g><g transform="translate(72, 177)" clip-path="url(#clip_1)"><clipPath id="clip_1"><rect width="257" height="23"></rect></clipPath><g><g><line x1="0" y1="0" x2="0" y2="5" style="visibility: inherit;" fill="rgb(0, 0, 0)" stroke="rgb(200, 195, 188)" stroke-width="1px"></line><line x1="21.471354166666664" y1="0" x2="21.471354166666664" y2="5" style="visibility: inherit;" fill="rgb(0, 0, 0)" stroke="rgb(200, 195, 188)" stroke-width="1px"></line><line x1="42.94270833333333" y1="0" x2="42.94270833333333" y2="5" style="visibility: inherit;" fill="rgb(0, 0, 0)" stroke="rgb(200, 195, 188)" stroke-width="1px"></line><line x1="64.4140625" y1="0" x2="64.4140625" y2="5" style="visibility: inherit;" fill="rgb(0, 0, 0)" stroke="rgb(200, 195, 188)" stroke-width="1px"></line><line x1="85.88541666666666" y1="0" x2="85.88541666666666" y2="5" style="visibility: inherit;" fill="rgb(0, 0, 0)" stroke="rgb(200, 195, 188)" stroke-width="1px"></line><line x1="107.35677083333334" y1="0" x2="107.35677083333334" y2="5" style="visibility: inherit;" fill="rgb(0, 0, 0)" stroke="rgb(200, 195, 188)" stroke-width="1px"></line><line x1="128.828125" y1="0" x2="128.828125" y2="5" style="visibility: inherit;" fill="rgb(0, 0, 0)" stroke="rgb(200, 195, 188)" stroke-width="1px"></line><line x1="150.29947916666669" y1="0" x2="150.29947916666669" y2="5" style="visibility: inherit;" fill="rgb(0, 0, 0)" stroke="rgb(200, 195, 188)" stroke-width="1px"></line><line x1="171.77083333333331" y1="0" x2="171.77083333333331" y2="5" style="visibility: inherit;" fill="rgb(0, 0, 0)" stroke="rgb(200, 195, 188)" stroke-width="1px"></line><line x1="193.2421875" y1="0" x2="193.2421875" y2="5" style="visibility: inherit;" fill="rgb(0, 0, 0)" stroke="rgb(200, 195, 188)" stroke-width="1px"></line><line x1="214.71354166666669" y1="0" x2="214.71354166666669" y2="5" style="visibility: inherit;" fill="rgb(0, 0, 0)" stroke="rgb(200, 195, 188)" stroke-width="1px"></line><line x1="236.18489583333331" y1="0" x2="236.18489583333331" y2="5" style="visibility: inherit;" fill="rgb(0, 0, 0)" stroke="rgb(200, 195, 188)" stroke-width="1px"></line><line x1="257.65625" y1="0" x2="257.65625" y2="5" style="visibility: inherit;" fill="rgb(0, 0, 0)" stroke="rgb(200, 195, 188)" stroke-width="1px"></line></g><g transform="translate(0, 8)"><text x="0" y="0" dx="0em" dy="0.95em" style="text-anchor: middle; visibility: hidden; font-family: Roboto, sans-serif; font-size: 12px; font-weight: 200;" fill="rgb(211, 207, 202)" stroke="none" stroke-width="1px">-20</text><text x="21.471354166666664" y="0" dx="0em" dy="0.95em" style="text-anchor: middle; visibility: inherit; font-family: Roboto, sans-serif; font-size: 12px; font-weight: 200;" fill="rgb(211, 207, 202)" stroke="none" stroke-width="1px">0</text><text x="42.94270833333333" y="0" dx="0em" dy="0.95em" style="text-anchor: middle; visibility: hidden; font-family: Roboto, sans-serif; font-size: 12px; font-weight: 200;" fill="rgb(211, 207, 202)" stroke="none" stroke-width="1px">20</text><text x="64.4140625" y="0" dx="0em" dy="0.95em" style="text-anchor: middle; visibility: inherit; font-family: Roboto, sans-serif; font-size: 12px; font-weight: 200;" fill="rgb(211, 207, 202)" stroke="none" stroke-width="1px">40</text><text x="85.88541666666666" y="0" dx="0em" dy="0.95em" style="text-anchor: middle; visibility: hidden; font-family: Roboto, sans-serif; font-size: 12px; font-weight: 200;" fill="rgb(211, 207, 202)" stroke="none" stroke-width="1px">60</text><text x="107.35677083333334" y="0" dx="0em" dy="0.95em" style="text-anchor: middle; visibility: inherit; font-family: Roboto, sans-serif; font-size: 12px; font-weight: 200;" fill="rgb(211, 207, 202)" stroke="none" stroke-width="1px">80</text><text x="128.828125" y="0" dx="0em" dy="0.95em" style="text-anchor: middle; visibility: hidden; font-family: Roboto, sans-serif; font-size: 12px; font-weight: 200;" fill="rgb(211, 207, 202)" stroke="none" stroke-width="1px">100</text><text x="150.29947916666669" y="0" dx="0em" dy="0.95em" style="text-anchor: middle; visibility: inherit; font-family: Roboto, sans-serif; font-size: 12px; font-weight: 200;" fill="rgb(211, 207, 202)" stroke="none" stroke-width="1px">120</text><text x="171.77083333333331" y="0" dx="0em" dy="0.95em" style="text-anchor: middle; visibility: hidden; font-family: Roboto, sans-serif; font-size: 12px; font-weight: 200;" fill="rgb(211, 207, 202)" stroke="none" stroke-width="1px">140</text><text x="193.2421875" y="0" dx="0em" dy="0.95em" style="text-anchor: middle; visibility: inherit; font-family: Roboto, sans-serif; font-size: 12px; font-weight: 200;" fill="rgb(211, 207, 202)" stroke="none" stroke-width="1px">160</text><text x="214.71354166666669" y="0" dx="0em" dy="0.95em" style="text-anchor: middle; visibility: hidden; font-family: Roboto, sans-serif; font-size: 12px; font-weight: 200;" fill="rgb(211, 207, 202)" stroke="none" stroke-width="1px">180</text><text x="236.18489583333331" y="0" dx="0em" dy="0.95em" style="text-anchor: middle; visibility: inherit; font-family: Roboto, sans-serif; font-size: 12px; font-weight: 200;" fill="rgb(211, 207, 202)" stroke="none" stroke-width="1px">200</text><text x="257.65625" y="0" dx="0em" dy="0.95em" style="text-anchor: middle; visibility: hidden; font-family: Roboto, sans-serif; font-size: 12px; font-weight: 200;" fill="rgb(211, 207, 202)" stroke="none" stroke-width="1px">220</text></g><line x1="0" y1="0" x2="257.65625" y2="0" fill="rgb(0, 0, 0)" stroke="rgb(200, 195, 188)" stroke-width="1px"></line></g></g></g></g></svg>